<svg width="168" height="52" viewBox="0 0 168 52" fill="none" xmlns="http://www.w3.org/2000/svg">
<path fill-rule="evenodd" clip-rule="evenodd" d="M64.5957 16.4014C64.5957 16.4014 68.0905 7.71028 75.3343 3.56551C82.578 -0.579257 90.1452 -0.657722 98.0772 1.03849C108.703 3.31396 114.59 0.085382 114.59 0.085382C114.59 0.085382 108.525 7.70104 98.9758 9.53111C90.1636 11.2112 82.1715 10.0873 75.4359 11.8066C68.7003 13.5259 64.5957 16.4014 64.5957 16.4014Z" fill="#91BF4B"/>
<path fill-rule="evenodd" clip-rule="evenodd" d="M58.0214 29.1311C58.227 29.108 59.3888 24.4163 62.9853 22.1939C66.5818 19.9715 67.9885 20.3477 73.9156 21.5616C79.8427 22.7755 90.3272 25.2009 97.6726 19.2353C105.018 13.2697 107.346 7.50952 107.346 7.50952C107.346 7.50952 103.251 11.8066 93.5172 12.312C83.7834 12.8174 72.9593 12.5128 65.3044 18.7738C57.6495 25.0348 56.9589 26.9502 56.9496 27.2572C56.9417 27.6462 57.0503 28.0287 57.2615 28.3557C57.5733 28.8957 57.8228 29.1519 58.0214 29.1311Z" fill="#91BF4B"/>
<path d="M3.7674 38.9228V44.8123C3.7674 45.3846 4.0492 45.6685 4.61281 45.6685H5.1972V46.2847H0V45.8231H0.554369C1.0995 45.8231 1.37206 45.5285 1.37206 44.9392V29.154C1.37206 28.5648 1.11952 28.2701 0.614425 28.2701H0.087775V27.8086H6.51152C8.75055 27.8086 10.4876 28.2863 11.7226 29.2417C12.9576 30.1971 13.5736 31.5572 13.5705 33.3219C13.5705 35.0896 12.9622 36.4643 11.7457 37.4459C10.5292 38.4274 8.8622 38.9198 6.74482 38.9228H3.7674ZM3.7674 37.612H6.28746C7.87203 37.5782 9.02697 37.2259 9.75227 36.5551C10.4776 35.8843 10.8441 34.8073 10.8518 33.3242C10.8518 32.0226 10.4668 30.9926 9.69683 30.2341C8.92687 29.4756 7.87819 29.0979 6.55079 29.1009C5.04783 29.1009 4.12389 29.4387 3.77895 30.1141L3.7674 37.612Z" fill="#766A63"/>
<path d="M14.9194 27.7625V27.654C15.6586 27.6002 16.7681 27.4848 18.2479 27.3079V45.027C18.2479 45.4193 18.4789 45.6155 18.9409 45.6155H19.3497L19.3774 46.077C18.8893 46.0955 18.1494 46.1401 17.1577 46.2109C16.1667 46.2824 15.416 46.3263 14.9102 46.3447V45.8832H15.319C15.781 45.8832 16.012 45.687 16.012 45.2947V28.6464C16.0211 28.5722 16.0129 28.497 15.988 28.4266C15.963 28.3562 15.9221 28.2925 15.8684 28.2406C15.8146 28.1887 15.7495 28.15 15.6783 28.1275C15.607 28.105 15.5314 28.0993 15.4576 28.111C15.1042 27.9679 14.9194 27.8525 14.9194 27.7625Z" fill="#766A63"/>
<path d="M29.8109 44.277C29.0302 45.7925 27.6443 46.5509 25.6532 46.5525C24.1733 46.5525 22.9953 46.1825 22.1191 45.4424C21.6969 45.0985 21.3589 44.6627 21.1311 44.1684C20.9034 43.674 20.7917 43.1341 20.8047 42.59C20.8047 41.45 21.3306 40.4499 22.3824 39.5899C23.4924 38.6987 24.8258 38.1288 26.2375 37.9422C26.5665 37.9048 26.8981 37.8963 27.2285 37.9168L27.8129 37.9422C28.4505 37.9783 29.0797 38.1049 29.6816 38.3183V36.1767C29.6891 35.8651 29.6099 35.5576 29.4529 35.2883C29.2959 35.019 29.0672 34.7985 28.7923 34.6513C28.1106 34.2724 27.3381 34.0872 26.5586 34.1159C25.8368 34.1272 25.1198 34.2351 24.4266 34.4367C23.9393 34.5694 23.4689 34.7575 23.0245 34.9974C23.4542 35.0874 23.6667 35.3298 23.6667 35.7221C23.6667 35.9529 23.5396 36.0682 23.2878 36.0682C23.1604 36.06 23.0338 36.0423 22.909 36.0152C22.4009 35.8721 22.1491 35.6136 22.1491 35.2398C22.1491 34.7044 22.5772 34.1866 23.4334 33.6866C24.4623 33.1243 25.6218 32.844 26.7942 32.8743C30.199 32.8743 31.9021 34.1413 31.9037 36.6752V44.8401C31.9037 45.3386 32.0492 45.5878 32.3402 45.5878C32.7298 45.5878 32.9246 45.2801 32.9246 44.6647H33.3335C33.3335 45.137 33.0956 45.5501 32.6197 45.904C32.1415 46.2549 31.5614 46.4397 30.9682 46.4302C30.3322 46.4225 29.9464 45.7048 29.8109 44.277ZM29.6931 41.6277V40.4738C29.6505 40.2247 29.5572 39.987 29.4189 39.7755C29.2807 39.5639 29.1004 39.3829 28.8893 39.2437C28.5371 38.9937 28.1103 38.8708 27.6789 38.8953L27.3278 38.9207C26.247 38.9746 25.217 39.3955 24.4081 40.1138C24.0491 40.4136 23.7598 40.7879 23.5604 41.2108C23.3609 41.6337 23.2561 42.0949 23.2532 42.5623C23.2429 42.9178 23.3091 43.2713 23.4474 43.599C23.5857 43.9267 23.7928 44.2209 24.0547 44.4616C24.5906 44.9632 25.3159 45.2132 26.2306 45.2117C26.6944 45.223 27.1554 45.1359 27.583 44.956C28.0107 44.7762 28.3953 44.5078 28.7114 44.1685C29.0342 43.8303 29.2871 43.4318 29.4556 42.9958C29.624 42.5598 29.7047 42.0949 29.6931 41.6277Z" fill="#766A63"/>
<path d="M46.7749 45.0269C46.7749 45.4192 46.9874 45.6154 47.4171 45.6154H47.7959L47.8259 46.077C46.403 46.1485 45.3151 46.2385 44.5551 46.3447V37.2982C44.5551 35.1935 43.5426 34.1404 41.5177 34.1388C40.9952 34.1316 40.4773 34.2366 39.9991 34.4469C39.5208 34.6571 39.0934 34.9676 38.7458 35.3573C37.9951 36.1466 37.5859 37.1996 37.607 38.2882V45.0338C37.607 45.4262 37.838 45.6223 38.3 45.6223H38.7389V46.0839C38.2507 46.1023 37.52 46.147 36.5468 46.2177C35.5736 46.2885 34.8444 46.3331 34.3594 46.3516V45.89H34.7382C35.1655 45.89 35.3803 45.7031 35.3803 45.3292V34.3211C35.3803 33.9634 35.214 33.7857 34.8837 33.7857C34.5326 33.6242 34.3594 33.4626 34.3594 33.3034L35.147 33.2226C35.4958 33.188 35.7499 33.1696 35.907 33.1696C36.4105 33.1326 36.9372 33.0796 37.4823 33.008V35.3896C38.6696 33.7311 40.1779 32.9019 42.0073 32.9019C43.5272 32.9019 44.6999 33.3257 45.5253 34.1734C46.3507 35.0212 46.7649 36.2212 46.768 37.7736L46.7749 45.0269Z" fill="#766A63"/>
<path d="M52.6139 43.1809C52.6139 43.9656 52.7786 44.514 53.1082 44.8264C53.4408 45.1379 54.0137 45.2879 54.8314 45.2879C55.4735 45.2879 56.0286 44.6902 56.4968 43.4948L56.9056 44.2171C56.7427 44.5878 56.5365 44.9379 56.2912 45.2602C56.0633 45.5886 55.7689 45.8655 55.4271 46.073C55.0853 46.2805 54.7037 46.414 54.307 46.4649C54.0922 46.4833 53.8866 46.4926 53.6926 46.4926C52.6424 46.4926 51.8301 46.1664 51.2557 45.5141C50.6813 44.8617 50.3941 43.9986 50.3941 42.9248V34.4275H48.3799L48.5832 33.1952C49.5764 33.1952 50.2971 32.9098 50.7452 32.339C51.0547 32.1244 51.3481 31.582 51.6206 30.7074C51.7621 30.1443 51.9371 29.5902 52.145 29.0481H52.6069V33.2021H56.6354V34.4344H52.6139V43.1809Z" fill="#766A63"/>
<path d="M72.2342 44.7871C72.2342 45.3763 72.516 45.6702 73.0796 45.6686H73.664V46.1302L68.379 46.2917V45.8302H68.9634C69.527 45.8302 69.8111 45.5348 69.8111 44.9463V29.1011H66.8914C65.2607 29.1011 64.2913 30.0019 63.9833 31.8035H63.5444C63.603 30.785 63.71 29.4557 63.8655 27.8157H78.2883L78.3761 31.8035H77.9395C77.5884 30.0004 76.6152 29.0996 75.0199 29.1011H72.248L72.2342 44.7871Z" fill="#766A63"/>
<path d="M91.5333 45.0269C91.5333 45.4193 91.7481 45.6154 92.1754 45.6154H92.5542V46.077C91.1544 46.1493 90.0765 46.2385 89.3204 46.3447V37.2982C89.3204 35.1935 88.3087 34.1404 86.2852 34.1389C85.7629 34.1322 85.2452 34.2375 84.767 34.4477C84.2889 34.6579 83.8614 34.9681 83.5134 35.3574C82.7626 36.1466 82.3535 37.1996 82.3746 38.2882V45.0339C82.3746 45.4262 82.6056 45.6224 83.0676 45.6224H83.5065L83.4764 46.0839L81.841 46.2178C81.1404 46.2701 80.586 46.297 80.1779 46.2985C80.0994 46.2985 79.7506 46.317 79.127 46.3516V45.8901H79.5058C79.9354 45.8901 80.1479 45.6939 80.1479 45.3016V28.6463C80.1479 28.2886 79.9839 28.1109 79.6513 28.1109C79.3025 27.9679 79.127 27.8155 79.127 27.6494C79.8476 27.5802 80.9263 27.4625 82.3608 27.3032V35.3804C83.354 33.7219 84.8239 32.8927 86.7703 32.8927C88.2871 32.8927 89.4598 33.3165 90.2882 34.1642C91.1167 35.012 91.5302 36.212 91.5286 37.7644L91.5333 45.0269Z" fill="#766A63"/>
<path d="M106.511 44.1708C105.125 45.7585 103.218 46.5524 100.789 46.5524C99.8689 46.5735 98.9537 46.4091 98.0984 46.0689C97.2432 45.7287 96.4653 45.2197 95.8114 44.5723C95.1706 43.9363 94.6615 43.1804 94.3131 42.3477C93.9648 41.515 93.7841 40.622 93.7813 39.7195C93.7785 38.8171 93.9537 37.9229 94.2969 37.0881C94.6401 36.2533 95.1445 35.4942 95.7814 34.8543C97.1134 33.5527 98.7827 32.9019 100.789 32.9019C102.288 32.8616 103.751 33.3659 104.905 34.3212C105.952 35.1686 106.632 36.3858 106.804 37.7205L96.2919 41.0114C96.4736 42.0051 96.9061 42.936 97.5484 43.7161C97.9972 44.2409 98.558 44.6584 99.1896 44.938C99.8212 45.2176 100.508 45.3521 101.198 45.3316C103.046 45.3316 104.701 44.5623 106.162 43.0238C106.238 43.2094 106.297 43.4018 106.337 43.5984C106.376 43.7945 106.434 43.9862 106.511 44.1708ZM96.1764 39.8599C97.9088 39.2552 100.507 38.3367 103.972 37.1044C103.621 35.1212 102.55 34.1304 100.759 34.1319C99.2993 34.1319 98.1706 34.605 97.3729 35.5512C96.5752 36.4974 96.1764 37.8052 96.1764 39.4745V39.8599Z" fill="#766A63"/>
<path d="M111.271 45.027C111.265 45.0967 111.274 45.1668 111.296 45.2331C111.318 45.2995 111.353 45.3607 111.4 45.413C111.446 45.4654 111.503 45.5079 111.566 45.5379C111.629 45.5679 111.698 45.5849 111.768 45.5878C112.068 45.6183 112.371 45.6275 112.673 45.6155V46.077C112.146 46.0955 111.358 46.1401 110.308 46.2109C109.257 46.2824 108.46 46.3263 107.942 46.3447V45.8832C108.195 45.8917 108.448 45.8824 108.7 45.8555C108.813 45.8233 108.91 45.7518 108.975 45.654C109.039 45.5562 109.066 45.4385 109.051 45.3224V34.3212C109.064 34.2491 109.059 34.1751 109.037 34.1052C109.015 34.0353 108.977 33.9716 108.926 33.9193C108.875 33.867 108.812 33.8277 108.743 33.8044C108.673 33.7812 108.599 33.7748 108.527 33.7858C108.176 33.6058 108 33.4465 108 33.3035C109.284 33.2311 110.345 33.1327 111.183 33.0081V36.4697C111.962 34.0973 113.461 32.9111 115.68 32.9111C116.614 32.9111 117.08 33.2235 117.08 33.8481C117.069 34.0085 117.02 34.1639 116.936 34.3012C116.853 34.4386 116.737 34.5538 116.6 34.6374C116.331 34.858 115.998 34.9845 115.65 34.9974C115.359 34.9974 115.212 34.9004 115.212 34.7043C115.214 34.5893 115.248 34.4771 115.309 34.3801C115.371 34.2832 115.459 34.2053 115.563 34.155C115.494 34.1513 115.426 34.142 115.359 34.1273H115.128C113.786 34.1273 112.764 35.002 112.063 36.7513C111.534 38.0791 111.266 39.4967 111.276 40.926L111.271 45.027Z" fill="#766A63"/>
<path d="M125.752 44.2769C124.974 45.7923 123.592 46.5508 121.605 46.5524C120.127 46.5524 118.95 46.1824 118.074 45.4423C117.651 45.0984 117.314 44.6626 117.086 44.1683C116.858 43.6739 116.746 43.134 116.759 42.5899C116.759 41.4499 117.285 40.4498 118.337 39.5898C119.446 38.6953 120.779 38.1221 122.192 37.9328C122.522 37.8955 122.854 37.887 123.185 37.9074L123.77 37.9328C124.407 37.9691 125.037 38.0958 125.638 38.309V36.1674C125.645 35.8556 125.566 35.548 125.408 35.2787C125.251 35.0095 125.022 34.789 124.747 34.6419C124.065 34.2625 123.293 34.0773 122.513 34.1065C121.791 34.1179 121.074 34.2258 120.381 34.4273C119.894 34.5595 119.425 34.7477 118.981 34.9881C119.409 35.0781 119.624 35.3204 119.624 35.7127C119.624 35.9435 119.497 36.0589 119.245 36.0589C119.117 36.0509 118.989 36.0331 118.864 36.0058C118.357 35.8627 118.104 35.6043 118.106 35.2304C118.106 34.695 118.534 34.1773 119.39 33.6773C120.419 33.1185 121.576 32.8415 122.747 32.8742C126.154 32.8742 127.857 34.1411 127.856 36.6751V44.84C127.856 45.3385 128.004 45.5877 128.295 45.5877C128.683 45.5877 128.879 45.2762 128.879 44.6646H129.288C129.288 45.1369 129.049 45.55 128.572 45.9039C128.095 46.2548 127.515 46.4396 126.923 46.4301C126.279 46.4224 125.889 45.7047 125.752 44.2769ZM125.636 41.6276V40.4737C125.594 40.2246 125.5 39.9869 125.362 39.7753C125.224 39.5638 125.043 39.3828 124.832 39.2436C124.48 38.9936 124.053 38.8707 123.622 38.8952L123.271 38.9206C122.187 38.9732 121.154 39.3951 120.344 40.116C119.986 40.4164 119.697 40.7909 119.498 41.2136C119.298 41.6363 119.193 42.0972 119.189 42.5645C119.179 42.9202 119.246 43.2738 119.385 43.6015C119.523 43.9292 119.731 44.2233 119.993 44.4638C120.529 44.9646 121.252 45.2139 122.169 45.2139C122.633 45.2247 123.094 45.1374 123.521 44.9576C123.949 44.7778 124.333 44.5097 124.65 44.1707C124.973 43.8323 125.227 43.4335 125.396 42.9972C125.565 42.5608 125.647 42.0954 125.636 41.6276Z" fill="#766A63"/>
<path d="M133.49 44.0369V49.7902C133.49 50.1825 133.764 50.381 134.316 50.381H134.804V50.8425L132.439 50.9902C131.388 51.0525 130.591 51.0917 130.073 51.1102V50.6487H130.507C131.013 50.6487 131.267 50.4502 131.267 50.0579V34.3211C131.277 34.247 131.268 34.1718 131.243 34.1014C131.219 34.031 131.178 33.9673 131.124 33.9154C131.07 33.8635 131.005 33.8247 130.934 33.8022C130.862 33.7797 130.787 33.7741 130.713 33.7857C130.344 33.6057 130.159 33.4465 130.159 33.3034C130.507 33.2665 131.046 33.2219 131.776 33.1696C132.314 33.1483 132.85 33.0944 133.381 33.008V35.872C134.459 33.8919 136.104 32.9019 138.315 32.9019C140.301 32.9019 141.951 33.5619 143.265 34.8819C143.911 35.5258 144.419 36.2946 144.758 37.1414C145.097 37.9882 145.259 38.8951 145.235 39.8067C145.25 40.6978 145.081 41.5824 144.738 42.4049C144.394 43.2274 143.884 43.97 143.24 44.5861C142.606 45.2251 141.85 45.7289 141.016 46.0669C140.182 46.4049 139.288 46.5701 138.389 46.5524C136.15 46.5524 134.517 45.7139 133.49 44.0369ZM133.49 40.236C133.49 41.7514 133.928 42.9822 134.804 43.9284C135.68 44.8746 136.818 45.3431 138.218 45.3338C138.861 45.3557 139.5 45.2307 140.087 44.9684C140.675 44.706 141.194 44.3133 141.606 43.8199C142.461 42.8107 142.889 41.5029 142.891 39.8967C142.891 38.1659 142.472 36.7743 141.634 35.722C140.796 34.6696 139.658 34.1427 138.218 34.1411C137.567 34.131 136.922 34.2716 136.335 34.5519C135.748 34.8322 135.233 35.2445 134.832 35.7566C133.937 36.8335 133.49 38.2182 133.49 39.9106V40.236Z" fill="#766A63"/>
<path d="M156.41 33.5158V33.0542C157.616 33.1265 158.813 33.1804 160 33.2157V33.6773C159.735 33.6562 159.469 33.7023 159.226 33.8111C159.03 33.9838 158.901 34.2199 158.861 34.4781L151.931 48.4309C151.63 49.0925 151.263 49.7219 150.834 50.3094C150.638 50.5535 150.389 50.75 150.105 50.8843C149.822 51.0186 149.512 51.0872 149.199 51.0849C148.843 51.0964 148.496 50.9774 148.222 50.7502C148.098 50.6531 147.998 50.5291 147.93 50.3875C147.861 50.2459 147.826 50.0905 147.827 49.9333L147.799 49.6402C147.799 49.264 147.945 49.0771 148.236 49.0771C148.626 49.0771 148.82 49.2294 148.82 49.5386C148.82 49.931 148.589 50.1917 148.127 50.3164C148.156 50.3611 148.196 50.3977 148.243 50.4225C148.334 50.4653 148.435 50.4835 148.536 50.4756C149.218 50.4756 149.772 49.9317 150.199 48.844C150.607 48.004 151.24 46.7639 152.098 45.1239L146.446 34.2404C146.31 33.8481 145.97 33.6519 145.425 33.6519L145.395 33.1904C146.64 33.1904 148.042 33.1457 149.598 33.0565V33.5181C149.053 33.5181 148.732 33.5619 148.635 33.6519L148.605 33.7858C148.622 34.0417 148.702 34.2896 148.836 34.5081L153.243 42.8046L157.302 34.4504C157.379 34.2924 157.42 34.1187 157.42 33.9427C157.418 33.8863 157.404 33.8309 157.379 33.7803C157.354 33.7297 157.318 33.6851 157.274 33.6496C156.997 33.5538 156.704 33.5084 156.41 33.5158Z" fill="#766A63"/>
<path d="M166.621 32.8848C167.256 33.2599 167.718 33.8695 167.907 34.582C168.096 35.2945 167.996 36.0526 167.63 36.6926C167.389 37.1179 167.04 37.4727 166.619 37.7219C166.19 37.9755 165.701 38.1072 165.203 38.1027C164.709 38.1079 164.223 37.977 163.798 37.7242C163.167 37.3472 162.708 36.7377 162.521 36.0266C162.334 35.3155 162.434 34.5595 162.798 33.921C163.04 33.497 163.388 33.1431 163.808 32.894C164.233 32.6378 164.722 32.5052 165.219 32.5109C165.712 32.5062 166.196 32.6354 166.621 32.8848ZM166.316 37.1911C166.648 37 166.924 36.7245 167.115 36.3926C167.306 36.0603 167.406 35.684 167.406 35.301C167.406 34.918 167.306 34.5417 167.115 34.2094C166.927 33.8807 166.654 33.6082 166.325 33.4202C165.988 33.2248 165.604 33.1236 165.214 33.1271C164.824 33.1229 164.439 33.2258 164.103 33.4248C163.773 33.6159 163.499 33.8905 163.309 34.221C163.114 34.5516 163.011 34.9279 163.009 35.3114C163.008 35.695 163.108 36.0721 163.301 36.4041C163.493 36.7362 163.77 37.0113 164.103 37.2015C164.436 37.3917 164.814 37.49 165.198 37.4865C165.591 37.4906 165.977 37.3885 166.316 37.1911ZM166.263 35.3449C166.174 35.492 166.042 35.6081 165.884 35.6772L166.469 36.5657H165.787L165.358 35.7926H164.75V36.5657H164.147V33.884H165.302C165.593 33.8625 165.881 33.9443 166.118 34.1148C166.214 34.1987 166.29 34.3034 166.339 34.4209C166.389 34.5385 166.411 34.6659 166.404 34.7933C166.409 34.9838 166.36 35.1718 166.263 35.3356V35.3449ZM164.75 35.3172H165.302C165.445 35.3256 165.585 35.2813 165.697 35.1926C165.745 35.1476 165.782 35.0926 165.806 35.0316C165.83 34.9705 165.84 34.9049 165.836 34.8395C165.84 34.7747 165.83 34.7098 165.806 34.6495C165.782 34.5892 165.745 34.535 165.697 34.491C165.584 34.4047 165.444 34.3621 165.302 34.371H164.759L164.75 35.3172Z" fill="#766A63"/>
</svg>
