<svg width="50" height="49" viewBox="0 0 50 49" fill="none" xmlns="http://www.w3.org/2000/svg">
<path d="M18.0576 27.5724V38.6772C18.0576 44.1686 22.5099 48.6209 28.0013 48.6209C33.4927 48.6209 37.945 44.1686 37.945 38.6772V27.5724" fill="#FFB266" fill-opacity="0.6"/>
<path d="M37.9414 27.6093V16.5045C37.9414 11.0131 33.4891 6.56079 27.9977 6.56079C22.5062 6.56079 18.054 11.0131 18.054 16.5045V27.6093" fill="#FFB266" fill-opacity="0.6"/>
<path d="M26.4926 47.9553C23.7635 47.9553 21.1972 46.894 19.2669 44.9637C17.3366 43.0334 16.2753 40.467 16.2753 37.7379V15.5283C16.2753 12.7992 17.3366 10.2328 19.2669 8.30253C21.1972 6.37221 23.7635 5.31091 26.4926 5.31091C29.2217 5.31091 31.788 6.37221 33.7183 8.30253C35.6487 10.2328 36.71 12.7992 36.71 15.5283V37.7342C36.71 40.4633 35.6487 43.0297 33.7183 44.96C31.788 46.894 29.2217 47.9553 26.4926 47.9553ZM26.4926 5.8656C23.9115 5.8656 21.4819 6.87143 19.6589 8.69821C17.8321 10.525 16.8263 12.9508 16.8263 15.532V37.7379C16.8263 40.3191 17.8321 42.7486 19.6589 44.5717C21.4856 46.3985 23.9115 47.4043 26.4926 47.4043C29.0738 47.4043 31.5033 46.3985 33.3264 44.5717C35.1531 42.7449 36.159 40.3191 36.159 37.7379V15.5283C36.159 12.9471 35.1531 10.5176 33.3264 8.69451C31.5033 6.86774 29.0738 5.8656 26.4926 5.8656Z" fill="#4E6262"/>
<path d="M36.4511 26.6959H19.9029C19.7513 26.6959 19.6256 26.5702 19.6256 26.4186C19.6256 26.267 19.7513 26.1412 19.9029 26.1412H36.4474C36.599 26.1412 36.7247 26.267 36.7247 26.4186C36.7247 26.5702 36.6027 26.6959 36.4511 26.6959Z" fill="#4E6262"/>
<path d="M19.5738 15.8426C19.4222 15.8426 19.2965 15.7168 19.2965 15.5652C19.2965 11.5863 22.5322 8.35059 26.5111 8.35059C26.6628 8.35059 26.7885 8.47632 26.7885 8.62793C26.7885 8.77954 26.6628 8.90527 26.5111 8.90527C22.8391 8.90527 19.8512 11.8932 19.8512 15.5652C19.8512 15.7168 19.7254 15.8426 19.5738 15.8426Z" fill="#4E6262"/>
<path d="M42.2753 40.0602C42.1237 40.0602 41.998 39.9345 41.998 39.7829V37.3607C41.998 37.2091 42.1237 37.0834 42.2753 37.0834C42.4269 37.0834 42.5527 37.2091 42.5527 37.3607V39.7829C42.5527 39.9382 42.4269 40.0602 42.2753 40.0602Z" fill="#4E6262"/>
<path d="M43.1259 38.851H41.4248C41.2732 38.851 41.1475 38.7252 41.1475 38.5736C41.1475 38.422 41.2732 38.2963 41.4248 38.2963H43.1259C43.2775 38.2963 43.4032 38.422 43.4032 38.5736C43.4032 38.7252 43.2775 38.851 43.1259 38.851Z" fill="#4E6262"/>
<path d="M7.91427 11.3387C6.0912 11.3387 4.60834 9.85582 4.60834 8.03274C4.60834 6.20967 6.0912 4.72681 7.91427 4.72681C9.73735 4.72681 11.2202 6.20967 11.2202 8.03274C11.2202 9.85582 9.73735 11.3387 7.91427 11.3387ZM7.91427 4.76379C6.10969 4.76379 4.64532 6.23186 4.64532 8.03274C4.64532 9.83363 6.11339 11.3017 7.91427 11.3017C9.71886 11.3017 11.1832 9.83363 11.1832 8.03274C11.1832 6.23186 9.71516 4.76379 7.91427 4.76379Z" fill="#4E6262"/>
<path d="M7.91428 11.5975C5.94699 11.5975 4.34949 9.99628 4.34949 8.03269C4.34949 6.06909 5.95069 4.4679 7.91428 4.4679C9.88157 4.4679 11.4791 6.0654 11.4791 8.03269C11.4791 9.99998 9.87787 11.5975 7.91428 11.5975ZM7.91428 5.02258C6.25391 5.02258 4.90417 6.37232 4.90417 8.03269C4.90417 9.69305 6.25391 11.0428 7.91428 11.0428C9.57464 11.0428 10.9244 9.69305 10.9244 8.03269C10.9244 6.37232 9.57464 5.02258 7.91428 5.02258Z" fill="#4E6262"/>
<path d="M3.24748 8.31006H0.592377C0.440762 8.31006 0.315033 8.18433 0.315033 8.03271C0.315033 7.8811 0.440762 7.75537 0.592377 7.75537H3.24748C3.3991 7.75537 3.52483 7.8811 3.52483 8.03271C3.52483 8.18433 3.40279 8.31006 3.24748 8.31006Z" fill="#4E6262"/>
<path d="M15.2324 8.31006H12.5773C12.4257 8.31006 12.3 8.18433 12.3 8.03271C12.3 7.8811 12.4257 7.75537 12.5773 7.75537H15.2324C15.384 7.75537 15.5097 7.8811 15.5097 8.03271C15.5097 8.18433 15.384 8.31006 15.2324 8.31006Z" fill="#4E6262"/>
<path d="M7.91425 3.64692C7.76263 3.64692 7.6369 3.52119 7.6369 3.36957V0.714477C7.6369 0.562863 7.76263 0.437134 7.91425 0.437134C8.06586 0.437134 8.19159 0.562863 8.19159 0.714477V3.36957C8.19159 3.52119 8.06586 3.64692 7.91425 3.64692Z" fill="#4E6262"/>
<path d="M7.91425 15.6281C7.76263 15.6281 7.6369 15.5024 7.6369 15.3508V12.6957C7.6369 12.5441 7.76263 12.4183 7.91425 12.4183C8.06586 12.4183 8.19159 12.5441 8.19159 12.6957V15.3508C8.19159 15.5061 8.06586 15.6281 7.91425 15.6281Z" fill="#4E6262"/>
<path d="M4.61571 5.0115C4.54545 5.0115 4.47519 4.98562 4.41972 4.93015L2.54118 3.0553C2.43394 2.94806 2.43394 2.77056 2.54118 2.66332C2.64842 2.55608 2.82592 2.55608 2.93316 2.66332L4.808 4.53817C4.91524 4.64541 4.91524 4.82291 4.808 4.93015C4.75623 4.98562 4.68597 5.0115 4.61571 5.0115Z" fill="#4E6262"/>
<path d="M13.0877 13.4871C13.0174 13.4871 12.9472 13.4612 12.8917 13.4057L11.0168 11.5272C10.9096 11.42 10.9096 11.2425 11.0168 11.1352C11.124 11.028 11.3015 11.028 11.4088 11.1352L13.2837 13.0138C13.3909 13.121 13.3909 13.2985 13.2837 13.4057C13.2319 13.4575 13.1579 13.4871 13.0877 13.4871Z" fill="#4E6262"/>
<path d="M11.2128 5.0115C11.1425 5.0115 11.0723 4.98562 11.0168 4.93015C10.9096 4.82291 10.9096 4.64541 11.0168 4.53817L12.8917 2.66332C12.9989 2.55608 13.1764 2.55608 13.2837 2.66332C13.3909 2.77056 13.3909 2.94806 13.2837 3.0553L11.4088 4.93015C11.3533 4.98562 11.2831 5.0115 11.2128 5.0115Z" fill="#4E6262"/>
<path d="M2.73717 13.4871C2.66691 13.4871 2.59665 13.4612 2.54118 13.4057C2.43394 13.2985 2.43394 13.121 2.54118 13.0138L4.41602 11.1352C4.52326 11.028 4.70076 11.028 4.808 11.1352C4.91524 11.2425 4.91524 11.42 4.808 11.5272L2.93316 13.4057C2.88139 13.4575 2.81113 13.4871 2.73717 13.4871Z" fill="#4E6262"/>
<path d="M44.5125 45.829C43.8432 45.829 43.1665 45.6848 42.5231 45.3779C41.6725 44.9711 40.9773 44.3277 40.5077 43.5141C40.4522 43.418 40.4596 43.2996 40.5262 43.2109C40.5928 43.1221 40.7037 43.0815 40.8109 43.1073C41.7021 43.3181 42.6488 43.2146 43.4808 42.8226C44.324 42.4232 45.0118 41.7391 45.4148 40.896C45.9917 39.6868 45.9399 38.2705 45.2706 37.1056C45.2152 37.0095 45.2225 36.8911 45.2891 36.8024C45.3557 36.7136 45.4666 36.673 45.5739 36.6989C45.8956 36.7765 46.2136 36.8874 46.5131 37.028C48.8169 38.1299 49.7932 40.896 48.6949 43.1998C47.9035 44.8565 46.2432 45.829 44.5125 45.829ZM41.3397 43.7471C41.7206 44.2241 42.205 44.6087 42.7634 44.8749C44.7899 45.8438 47.2268 44.9822 48.1957 42.9557C49.1645 40.9293 48.3029 38.4923 46.2765 37.5235C46.1988 37.4865 46.1211 37.4532 46.0398 37.4199C46.5131 38.6107 46.4761 39.9567 45.9178 41.129C45.4592 42.0867 44.679 42.8633 43.7212 43.3181C42.9779 43.6731 42.1496 43.8173 41.3397 43.7471Z" fill="#4E6262"/>
</svg>
