<svg width="34" height="55" viewBox="0 0 34 55" fill="none" xmlns="http://www.w3.org/2000/svg">
<path d="M13.0481 27.0127H22.5539V50.1324C22.5539 52.7574 20.4244 54.8869 17.7994 54.8869C15.1744 54.8869 13.0448 52.7574 13.0448 50.1324V27.0127H13.0481Z" fill="#91BF4B" fill-opacity="0.8"/>
<path d="M14.9742 15.1936C15.135 13.9369 15.2761 10.3341 12.2081 7.57783C8.42813 4.18173 2.01985 5.52704 2.01985 5.52704C2.01985 5.52704 2.14782 11.8041 5.22235 14.1764C8.11641 16.4044 14.1244 15.7449 14.8298 15.6595" fill="#91BF4B" fill-opacity="0.8"/>
<path d="M19.8469 15.7481C21.0183 15.9253 26.8786 16.6111 30.2091 13.2806C34.5699 8.91655 33.4969 2.03249 33.4969 2.03249C33.4969 2.03249 27.466 0.404987 22.5867 4.82483C19.0036 8.07327 19.4334 13.9664 19.5975 15.397" fill="#91BF4B" fill-opacity="0.8"/>
<path d="M16.3425 30.8057C16.3392 30.8057 16.3392 30.8057 16.3425 30.8057C16.2047 30.8057 16.0964 30.6942 16.0964 30.5596L16.1587 17.8349C16.1587 17.789 16.1719 17.7431 16.1981 17.7037C16.2112 17.684 17.5894 15.561 19.4761 13.3101C22.0289 10.2684 24.2503 8.45384 26.0845 7.91572C26.2157 7.87634 26.3503 7.95181 26.3896 8.08306C26.429 8.21431 26.3535 8.34884 26.2223 8.38822C24.5095 8.89353 22.3078 10.7015 19.8567 13.6251C18.1636 15.6398 16.8872 17.5527 16.6509 17.9137L16.5886 30.5629C16.5853 30.6974 16.477 30.8057 16.3425 30.8057Z" fill="#4E6262"/>
<path d="M29.6348 0.989014C31.2394 0.989014 32.3123 1.27776 32.3123 1.27776C32.3123 1.27776 33.3755 8.08308 29.0639 12.3914C26.8917 14.5635 23.6301 15.0065 21.3333 15.0065C19.7484 15.0065 18.6197 14.7965 18.6197 14.7965C18.6197 14.7965 17.4811 7.70573 21.5301 4.03401C24.3061 1.52058 27.4594 0.989014 29.6348 0.989014ZM29.6348 0.496826C27.3872 0.496826 24.0961 1.04808 21.202 3.67308C20.2209 4.56229 19.4498 5.71073 18.9117 7.08886C18.4851 8.17495 18.2029 9.40542 18.0684 10.7475C17.842 13.0148 18.1242 14.8031 18.134 14.8785C18.1668 15.0853 18.3243 15.246 18.5311 15.2854C18.5803 15.2953 19.7222 15.5053 21.3365 15.5053C22.8 15.5053 24.1617 15.3346 25.3823 14.9934C27.0229 14.5373 28.3814 13.7793 29.4183 12.7457C30.4486 11.7154 31.2656 10.4653 31.853 9.02808C32.3189 7.8862 32.6372 6.6262 32.8012 5.28417C33.0801 3.0037 32.8176 1.28104 32.8078 1.20886C32.7783 1.01526 32.6372 0.861045 32.4501 0.808545C32.3944 0.792139 31.2853 0.496826 29.6348 0.496826Z" fill="#4E6262"/>
<path d="M16.4048 18.081C16.3195 18.081 16.2375 18.0384 16.1915 17.9596C16.185 17.9465 15.3745 16.575 13.9701 14.9245C12.6806 13.4085 10.6069 11.3348 8.06391 10.0813C7.9425 10.0223 7.89329 9.87462 7.95235 9.75321C8.01141 9.6318 8.15907 9.58259 8.28047 9.64165C10.9022 10.9345 13.0284 13.0607 14.3475 14.616C15.7781 16.2993 16.5787 17.6578 16.6115 17.7135C16.6805 17.8317 16.6411 17.9826 16.523 18.0515C16.4901 18.0712 16.4475 18.081 16.4048 18.081Z" fill="#4E6262"/>
<path d="M4.15266 4.47375C6.30188 4.47375 9.19267 4.88719 11.2763 6.76079C15.0103 10.1142 13.9341 14.7375 13.9341 14.7375C13.9341 14.7375 12.7233 14.9016 11.1024 14.9016C8.9597 14.9016 6.10501 14.6128 4.3725 13.2806C1.33406 10.9378 1.20609 4.73625 1.20609 4.73625C1.20609 4.73625 2.44969 4.47375 4.15266 4.47375ZM4.15266 3.98157C2.41688 3.98157 1.16344 4.24079 1.11094 4.25063C0.877966 4.29985 0.713903 4.50657 0.720466 4.74282C0.720466 4.80844 0.75656 6.36375 1.17656 8.23407C1.42265 9.33985 1.75406 10.3275 2.15766 11.1675C2.6761 12.2438 3.3225 13.087 4.07719 13.6678C4.91719 14.3142 6.06563 14.7867 7.49298 15.0722C8.55939 15.2855 9.77673 15.3905 11.1089 15.3905C12.743 15.3905 13.9538 15.2297 14.0063 15.2231C14.2097 15.1969 14.3738 15.0459 14.4197 14.8458C14.4328 14.7966 14.7052 13.5858 14.4985 11.9419C14.3771 10.9772 14.1146 10.0584 13.7175 9.2086C13.2188 8.14875 12.51 7.20047 11.611 6.39C10.6135 5.49422 9.35345 4.83469 7.8736 4.43766C6.74157 4.13579 5.49141 3.98157 4.15266 3.98157Z" fill="#4E6262"/>
<path d="M20.8214 24.9324H12.1031C10.7644 24.9324 9.675 23.843 9.675 22.5043C9.675 21.1655 10.7644 20.0762 12.1031 20.0762H20.8214C22.1601 20.0762 23.2495 21.1655 23.2495 22.5043C23.2495 23.843 22.1601 24.9324 20.8214 24.9324ZM12.1031 20.5651C11.0334 20.5651 10.1672 21.4346 10.1672 22.501C10.1672 23.5707 11.0367 24.437 12.1031 24.437H20.8214C21.8911 24.437 22.7573 23.5674 22.7573 22.501C22.7573 21.4313 21.8878 20.5651 20.8214 20.5651H12.1031Z" fill="#4E6262"/>
<path d="M16.5164 54.2174C13.7602 54.2174 11.5158 51.9763 11.5158 49.2168V24.5845C11.5158 24.4499 11.6273 24.3384 11.7619 24.3384H21.2676C21.4022 24.3384 21.5137 24.4499 21.5137 24.5845V49.2168C21.517 51.9763 19.2726 54.2174 16.5164 54.2174ZM12.008 24.8306V49.2168C12.008 51.7007 14.0292 53.7253 16.5164 53.7253C19.0003 53.7253 21.0248 51.704 21.0248 49.2168V24.8306H12.008Z" fill="#4E6262"/>
<path d="M16.2867 44.6527C15.5255 44.6527 14.9053 44.0326 14.9053 43.2713C14.9053 42.51 15.5255 41.8899 16.2867 41.8899C17.048 41.8899 17.6682 42.51 17.6682 43.2713C17.6682 44.0326 17.048 44.6527 16.2867 44.6527ZM16.2867 42.3788C15.7945 42.3788 15.3975 42.7791 15.3975 43.268C15.3975 43.7602 15.7978 44.1572 16.2867 44.1572C16.7789 44.1572 17.176 43.7569 17.176 43.268C17.176 42.7791 16.7757 42.3788 16.2867 42.3788Z" fill="white"/>
<path d="M18.9708 45.8896C18.367 45.8896 17.8749 45.3974 17.8749 44.7937C17.8749 44.1899 18.367 43.6978 18.9708 43.6978C19.5745 43.6978 20.0667 44.1899 20.0667 44.7937C20.0667 45.3974 19.5745 45.8896 18.9708 45.8896ZM18.9708 44.1899C18.6394 44.1899 18.367 44.4623 18.367 44.7937C18.367 45.1251 18.6394 45.3974 18.9708 45.3974C19.3022 45.3974 19.5745 45.1251 19.5745 44.7937C19.5745 44.459 19.3022 44.1899 18.9708 44.1899Z" fill="white"/>
<path d="M18.9708 33.4899C18.2095 33.4899 17.5894 32.8697 17.5894 32.1085C17.5894 31.3472 18.2095 30.7271 18.9708 30.7271C19.732 30.7271 20.3522 31.3472 20.3522 32.1085C20.3522 32.8697 19.732 33.4899 18.9708 33.4899ZM18.9708 31.216C18.4786 31.216 18.0816 31.6163 18.0816 32.1052C18.0816 32.5941 18.4819 32.9944 18.9708 32.9944C19.463 32.9944 19.86 32.5941 19.86 32.1052C19.86 31.6163 19.4597 31.216 18.9708 31.216Z" fill="white"/>
<path d="M15.7552 37.588C14.7839 37.588 13.9931 36.7973 13.9931 35.826C13.9931 34.8547 14.7839 34.064 15.7552 34.064C16.7264 34.064 17.5172 34.8547 17.5172 35.826C17.5172 36.7973 16.7264 37.588 15.7552 37.588ZM15.7552 34.5562C15.0562 34.5562 14.4853 35.1271 14.4853 35.826C14.4853 36.5249 15.0562 37.0958 15.7552 37.0958C16.4541 37.0958 17.025 36.5249 17.025 35.826C17.025 35.1271 16.4541 34.5562 15.7552 34.5562Z" fill="white"/>
<path d="M17.8027 50.2438C16.8314 50.2438 16.0406 49.453 16.0406 48.4818C16.0406 47.5105 16.8314 46.7197 17.8027 46.7197C18.7739 46.7197 19.5647 47.5105 19.5647 48.4818C19.5614 49.453 18.7739 50.2438 17.8027 50.2438ZM17.8027 47.2119C17.1037 47.2119 16.5328 47.7829 16.5328 48.4818C16.5328 49.1807 17.1037 49.7516 17.8027 49.7516C18.5016 49.7516 19.0725 49.1807 19.0725 48.4818C19.0692 47.7829 18.5016 47.2119 17.8027 47.2119Z" fill="white"/>
<path d="M4.12642 27.0357C3.99189 27.0357 3.88033 26.9241 3.88033 26.7896V24.6404C3.88033 24.5058 3.99189 24.3943 4.12642 24.3943C4.26095 24.3943 4.37251 24.5058 4.37251 24.6404V26.7896C4.37251 26.9274 4.26095 27.0357 4.12642 27.0357Z" fill="#4E6262"/>
<path d="M4.88111 25.9626H3.37173C3.2372 25.9626 3.12564 25.8511 3.12564 25.7165C3.12564 25.582 3.2372 25.4705 3.37173 25.4705H4.88111C5.01564 25.4705 5.1272 25.582 5.1272 25.7165C5.1272 25.8511 5.01564 25.9626 4.88111 25.9626Z" fill="#4E6262"/>
<path d="M1.77049 23.272C1.63596 23.272 1.5244 23.1605 1.5244 23.0259V19.3772C1.5244 19.2427 1.63596 19.1311 1.77049 19.1311C1.90502 19.1311 2.01659 19.2427 2.01659 19.3772V23.0227C2.01659 23.1605 1.90502 23.272 1.77049 23.272Z" fill="#4E6262"/>
<path d="M2.87299 21.4478H0.664703C0.530172 21.4478 0.41861 21.3362 0.41861 21.2017C0.41861 21.0671 0.530172 20.9556 0.664703 20.9556H2.87299C3.00752 20.9556 3.11908 21.0671 3.11908 21.2017C3.11908 21.3362 3.0108 21.4478 2.87299 21.4478Z" fill="#4E6262"/>
<path d="M15.2137 4.32284C15.0792 4.32284 14.9677 4.21128 14.9677 4.07674V0.431274C14.9677 0.296743 15.0792 0.185181 15.2137 0.185181C15.3483 0.185181 15.4598 0.296743 15.4598 0.431274V4.07674C15.4598 4.21456 15.3483 4.32284 15.2137 4.32284Z" fill="#4E6262"/>
<path d="M16.3162 2.49841H14.108C13.9734 2.49841 13.8619 2.38685 13.8619 2.25232C13.8619 2.11779 13.9734 2.00623 14.108 2.00623H16.3162C16.4507 2.00623 16.5623 2.11779 16.5623 2.25232C16.5623 2.38685 16.454 2.49841 16.3162 2.49841Z" fill="#4E6262"/>
</svg>
