<svg width="72" height="50" viewBox="0 0 72 50" fill="none" xmlns="http://www.w3.org/2000/svg">
<path d="M52.36 23.51C51.54 19.715 41.835 18.97 38.335 19C33.94 19.045 28.895 19.295 26.105 18.36C22.08 17.01 18.055 13.86 17.89 12.175C15.27 15.1 5.985 16.225 5.315 22.975C5.315 22.975 17.925 23.86 27.685 23.86C39.11 23.86 52.36 23.51 52.36 23.51Z" fill="#F9C5CD"/>
<path d="M4.18499 22.105C4.17499 22.105 4.15999 22.105 4.14499 22.105C3.93999 22.085 3.78999 21.9 3.80999 21.695C4.01999 19.6 5.02499 17.845 6.88499 16.32C8.47499 15.02 10.475 14.07 12.24 13.23C13.99 12.4 15.645 11.615 16.48 10.68C16.58 10.57 16.735 10.525 16.875 10.575C17.015 10.62 17.115 10.745 17.13 10.895C17.185 11.44 17.875 12.5 19.645 13.855C21.255 15.085 23.24 16.145 25.09 16.765C27.13 17.45 30.55 17.42 33.855 17.39C34.965 17.38 36.11 17.37 37.2 17.385C37.405 17.39 37.575 17.56 37.57 17.765C37.565 17.97 37.395 18.14 37.19 18.135C36.105 18.12 34.965 18.13 33.86 18.14C30.335 18.17 27.005 18.2 24.85 17.475C22.925 16.83 20.86 15.725 19.185 14.45C17.565 13.215 16.865 12.27 16.57 11.63C15.605 12.46 14.17 13.14 12.555 13.91C8.99999 15.6 4.96999 17.515 4.54999 21.765C4.53999 21.96 4.37999 22.105 4.18499 22.105Z" fill="#4E6262"/>
<path d="M26.09 49.23C4.16498 49.23 0.849981 46.755 0.714981 46.65C0.624981 46.58 0.574982 46.47 0.574982 46.36V28.87C0.574982 28.76 0.624982 28.655 0.709982 28.585C0.794982 28.515 0.904981 28.485 1.01498 28.5C1.05998 28.505 5.54998 29.22 26.09 29.22C37.915 29.22 44.385 28.985 47.73 28.79C47.935 28.78 48.115 28.935 48.125 29.14C48.135 29.345 47.98 29.525 47.775 29.535C44.42 29.73 37.935 29.965 26.09 29.965C8.66498 29.965 2.83498 29.465 1.32998 29.295V46.145C1.69498 46.335 2.82498 46.815 5.58998 47.285C11.405 48.275 19.95 48.48 26.09 48.48C32.23 48.48 40.78 48.275 46.59 47.285C49.355 46.815 50.485 46.335 50.85 46.145V32.705C50.85 32.5 51.02 32.33 51.225 32.33C51.43 32.33 51.6 32.5 51.6 32.705V46.355C51.6 46.47 51.55 46.575 51.46 46.645C51.335 46.755 48.015 49.23 26.09 49.23Z" fill="#4E6262"/>
<path d="M2.56999 29.245C2.36499 29.245 2.19499 29.075 2.19499 28.87V22.265C2.19499 22.16 2.23999 22.055 2.31999 21.985C2.39999 21.915 2.50499 21.88 2.60999 21.89C2.66499 21.895 8.18 22.465 26.09 22.465C32.15 22.465 37.435 22.4 41.79 22.275C41.995 22.27 42.17 22.43 42.175 22.64C42.18 22.845 42.02 23.02 41.81 23.025C37.45 23.15 32.16 23.215 26.09 23.215C10.805 23.215 4.51499 22.8 2.94499 22.675V28.87C2.94499 29.08 2.77499 29.245 2.56999 29.245Z" fill="#4E6262"/>
<path d="M37.0923 4.84719L30.929 10.5398L65.0406 47.4718L71.2038 41.7792L37.0923 4.84719Z" fill="white"/>
<path d="M65.04 47.8451C65.035 47.8451 65.03 47.8451 65.025 47.8451C64.925 47.8401 64.83 47.8001 64.765 47.7251L30.65 10.795C30.585 10.72 30.545 10.625 30.55 10.525C30.555 10.425 30.595 10.33 30.67 10.265L36.835 4.57502C36.985 4.43502 37.225 4.44502 37.365 4.59502L71.4749 41.5251C71.6149 41.6751 71.6049 41.9151 71.4549 42.055L65.29 47.7501C65.225 47.8101 65.13 47.8451 65.04 47.8451ZM31.46 10.56L65.06 46.9401L70.67 41.7551L37.07 5.37502L31.46 10.56Z" fill="#4E6262"/>
<path d="M4.65001 12.515C4.44501 12.515 4.27501 12.345 4.27501 12.14V8.86496C4.27501 8.65996 4.44501 8.48996 4.65001 8.48996C4.85501 8.48996 5.02501 8.65996 5.02501 8.86496V12.14C5.02501 12.345 4.85501 12.515 4.65001 12.515Z" fill="#4E6262"/>
<path d="M5.80001 10.875H3.50002C3.29502 10.875 3.12502 10.705 3.12502 10.5C3.12502 10.295 3.29502 10.125 3.50002 10.125H5.80001C6.00501 10.125 6.17501 10.295 6.17501 10.5C6.17501 10.705 6.00501 10.875 5.80001 10.875Z" fill="#4E6262"/>
<path d="M8.23999 6.77503C8.03499 6.77503 7.86499 6.60503 7.86499 6.40003V0.845032C7.86499 0.640032 8.03499 0.470032 8.23999 0.470032C8.44499 0.470032 8.61499 0.640032 8.61499 0.845032V6.40003C8.61499 6.61003 8.44499 6.77503 8.23999 6.77503Z" fill="#4E6262"/>
<path d="M9.92001 4.00003H6.55501C6.35001 4.00003 6.18001 3.83003 6.18001 3.62503C6.18001 3.42003 6.35001 3.25003 6.55501 3.25003H9.92001C10.125 3.25003 10.295 3.42003 10.295 3.62503C10.295 3.83003 10.13 4.00003 9.92001 4.00003Z" fill="#4E6262"/>
<path d="M26.09 8.00001C25.885 8.00001 25.715 7.83001 25.715 7.62501V2.07001C25.715 1.86501 25.885 1.69501 26.09 1.69501C26.295 1.69501 26.465 1.86501 26.465 2.07001V7.62501C26.465 7.83501 26.3 8.00001 26.09 8.00001Z" fill="#4E6262"/>
<path d="M27.775 5.22001H24.41C24.205 5.22001 24.035 5.05 24.035 4.845C24.035 4.64 24.205 4.47 24.41 4.47H27.775C27.98 4.47 28.15 4.64 28.15 4.845C28.15 5.05 27.98 5.22001 27.775 5.22001Z" fill="#4E6262"/>
</svg>
