<svg width="57" height="35" viewBox="0 0 57 35" fill="none" xmlns="http://www.w3.org/2000/svg">
<path d="M56.0346 28.2347C56.0235 28.4824 55.8201 28.6821 55.5686 28.6821H53.4682C53.2353 26.308 51.231 24.4517 48.7978 24.4517C46.3609 24.4517 44.3566 26.308 44.1273 28.6821H30.1197C29.8867 26.308 27.8861 24.4517 25.4492 24.4517C23.0123 24.4517 21.008 26.308 20.7788 28.6821H18.2457C17.3434 28.6821 16.6149 27.9499 16.6149 27.0513V8.48039C16.6149 7.5781 17.3471 6.84961 18.2457 6.84961H39.0871C39.9894 6.84961 40.7179 7.5818 40.7179 8.48039V11.8122H47.951C51.146 11.8122 53.3314 13.2544 53.8565 13.8202C55.5908 15.695 56.4709 17.7807 56.0346 28.2347Z" fill="#D6CAEA"/>
<path fill-rule="evenodd" clip-rule="evenodd" d="M22.7904 16.2502C22.7904 16.2502 23.6742 14.0537 25.5047 13.0035C27.3351 11.9533 29.2469 11.9348 31.2512 12.3637C33.9396 12.9406 35.4224 12.1234 35.4224 12.1234C35.4224 12.1234 33.8915 14.05 31.4768 14.5122C29.2506 14.9375 27.2316 14.6527 25.5305 15.0891C23.8295 15.5217 22.7904 16.2502 22.7904 16.2502Z" fill="#89A65D"/>
<path fill-rule="evenodd" clip-rule="evenodd" d="M21.13 19.4675C21.1818 19.4601 21.4739 18.2768 22.3836 17.7147C23.2933 17.1526 23.6483 17.2487 25.146 17.5557C26.6436 17.8626 29.2914 18.4764 31.1477 16.9677C33.0041 15.4589 33.592 14.002 33.592 14.002C33.592 14.002 32.5566 15.0891 30.0975 15.2149C27.6421 15.3443 24.9019 15.2666 22.9716 16.8494C21.0413 18.4321 20.8638 18.9165 20.8601 18.9942C20.8564 19.0681 20.8712 19.1569 20.9377 19.2715C21.0191 19.4083 21.082 19.4712 21.13 19.4675Z" fill="#89A65D"/>
<path d="M9.57397 34.8986C9.42236 34.8986 9.29663 34.7728 9.29663 34.6212V29.4404C9.29663 29.2888 9.42236 29.1631 9.57397 29.1631C9.72559 29.1631 9.85132 29.2888 9.85132 29.4404V34.6212C9.85132 34.7765 9.72559 34.8986 9.57397 34.8986Z" fill="#4E6262"/>
<path d="M11.1419 32.3062H8.00238C7.85076 32.3062 7.72504 32.1804 7.72504 32.0288C7.72504 31.8772 7.85076 31.7515 8.00238 31.7515H11.1419C11.2935 31.7515 11.4192 31.8772 11.4192 32.0288C11.4192 32.1804 11.2972 32.3062 11.1419 32.3062Z" fill="#4E6262"/>
<path d="M55.1656 11.1873C55.014 11.1873 54.8883 11.0616 54.8883 10.9099V7.85547C54.8883 7.70385 55.014 7.57812 55.1656 7.57812C55.3173 7.57812 55.443 7.70385 55.443 7.85547V10.9099C55.443 11.0653 55.321 11.1873 55.1656 11.1873Z" fill="#4E6262"/>
<path d="M56.2381 9.66016H54.0933C53.9416 9.66016 53.8159 9.53443 53.8159 9.38281C53.8159 9.2312 53.9416 9.10547 54.0933 9.10547H56.2381C56.3897 9.10547 56.5154 9.2312 56.5154 9.38281C56.5154 9.53443 56.3934 9.66016 56.2381 9.66016Z" fill="#4E6262"/>
<path d="M51.819 5.83658C51.6674 5.83658 51.5417 5.71085 51.5417 5.55923V0.37842C51.5417 0.226804 51.6674 0.101074 51.819 0.101074C51.9706 0.101074 52.0964 0.226804 52.0964 0.37842V5.55923C52.0964 5.71454 51.9743 5.83658 51.819 5.83658Z" fill="#4E6262"/>
<path d="M53.387 3.24805H50.2474C50.0958 3.24805 49.9701 3.12232 49.9701 2.9707C49.9701 2.81909 50.0958 2.69336 50.2474 2.69336H53.387C53.5386 2.69336 53.6643 2.81909 53.6643 2.9707C53.6643 3.12232 53.5423 3.24805 53.387 3.24805Z" fill="#4E6262"/>
<path d="M12.8577 16.061H6.80798C6.65637 16.061 6.53064 15.9353 6.53064 15.7837C6.53064 15.6321 6.65637 15.5063 6.80798 15.5063H12.8577C13.0094 15.5063 13.1351 15.6321 13.1351 15.7837C13.1351 15.9353 13.0094 16.061 12.8577 16.061Z" fill="#4E6262"/>
<path d="M12.8577 21.4531H3.52423C3.37262 21.4531 3.24689 21.3274 3.24689 21.1758C3.24689 21.0242 3.37262 20.8984 3.52423 20.8984H12.8577C13.0094 20.8984 13.1351 21.0242 13.1351 21.1758C13.1351 21.3274 13.0094 21.4531 12.8577 21.4531Z" fill="#4E6262"/>
<path d="M12.8578 26.8442H0.761901C0.610287 26.8442 0.484558 26.7185 0.484558 26.5669C0.484558 26.4153 0.610287 26.2896 0.761901 26.2896H12.8578C13.0094 26.2896 13.1351 26.4153 13.1351 26.5669C13.1351 26.7185 13.0094 26.8442 12.8578 26.8442Z" fill="#4E6262"/>
<path d="M39.542 27.2842H28.9438C28.7996 27.2842 28.6812 27.177 28.6664 27.0328C28.5592 25.9456 28.0563 24.9434 27.2464 24.2039C26.4329 23.4606 25.3753 23.0501 24.2696 23.0501C23.1639 23.0501 22.11 23.4606 21.2928 24.2039C20.4829 24.9434 19.98 25.9456 19.8728 27.0328C19.858 27.1733 19.7397 27.2842 19.5954 27.2842H17.0624C16.0085 27.2842 15.1542 26.4263 15.1542 25.3761V6.8051C15.1542 5.75119 16.0122 4.89697 17.0624 4.89697H37.9038C38.9577 4.89697 39.8119 5.75489 39.8119 6.8051V27.0069C39.8193 27.1622 39.6936 27.2842 39.542 27.2842ZM29.1878 26.7295H39.261V6.8051C39.261 6.05812 38.6545 5.45166 37.9075 5.45166H17.0661C16.3191 5.45166 15.7126 6.05812 15.7126 6.8051V25.3761C15.7126 26.1231 16.3191 26.7295 17.0661 26.7295H19.3514C19.5215 25.6017 20.0688 24.57 20.9193 23.7971C21.8364 22.9614 23.0271 22.4991 24.2696 22.4991C25.5121 22.4991 26.7028 22.9614 27.6199 23.7971C28.4704 24.57 29.0214 25.6054 29.1878 26.7295Z" fill="#4E6262"/>
<path d="M54.4889 27.2844H52.3885C52.2443 27.2844 52.1259 27.1772 52.1111 27.033C52.0039 25.9458 51.501 24.9437 50.6912 24.2041C49.8776 23.4608 48.82 23.0503 47.7143 23.0503C46.6087 23.0503 45.5548 23.4608 44.7375 24.2041C43.9277 24.9437 43.4248 25.9458 43.3175 27.033C43.3027 27.1735 43.1844 27.2844 43.0402 27.2844H39.6307C39.4791 27.2844 39.3534 27.1624 39.3534 27.0071L39.2498 10.1372C39.2498 10.0632 39.2794 9.99299 39.3312 9.94122C39.3829 9.88944 39.4532 9.85986 39.5272 9.85986H46.8638C50.2659 9.85986 52.4698 11.413 52.9728 11.9566C53.9046 12.9624 54.5592 14.0052 54.9474 16.0835C55.3542 18.2689 55.4393 21.5009 55.2285 26.5707C55.2137 26.9738 54.8883 27.2844 54.4889 27.2844ZM52.6326 26.7298H54.4889C54.5888 26.7298 54.6738 26.6484 54.6775 26.5486C54.8883 21.5231 54.8032 18.3244 54.4076 16.1833C54.0452 14.2345 53.4387 13.2656 52.5734 12.3338C52.1962 11.927 50.1291 10.4146 46.8712 10.4146H39.8119L39.9117 26.7298H42.7998C42.9662 25.6056 43.5172 24.5702 44.3677 23.7973C45.2848 22.9616 46.4755 22.4993 47.718 22.4993C48.9605 22.4993 50.1513 22.9616 51.0683 23.7973C51.9152 24.5702 52.4661 25.6056 52.6326 26.7298Z" fill="#4E6262"/>
<path d="M24.2696 32.1691C26.8633 32.1691 28.9659 30.0664 28.9659 27.4727C28.9659 24.879 26.8633 22.7764 24.2696 22.7764C21.6759 22.7764 19.5732 24.879 19.5732 27.4727C19.5732 30.0664 21.6759 32.1691 24.2696 32.1691Z" fill="white"/>
<path d="M24.2696 32.443C21.5294 32.443 19.2959 30.2132 19.2959 27.4693C19.2959 24.7254 21.5257 22.4956 24.2696 22.4956C27.0134 22.4956 29.2432 24.7254 29.2432 27.4693C29.2432 30.2132 27.0134 32.443 24.2696 32.443ZM24.2696 23.054C21.8327 23.054 19.8506 25.0361 19.8506 27.473C19.8506 29.9099 21.8327 31.892 24.2696 31.892C26.7065 31.892 28.6885 29.9099 28.6885 27.473C28.6885 25.0361 26.7065 23.054 24.2696 23.054Z" fill="#4E6262"/>
<path d="M47.7144 32.1691C50.3081 32.1691 52.4107 30.0664 52.4107 27.4727C52.4107 24.879 50.3081 22.7764 47.7144 22.7764C45.1206 22.7764 43.018 24.879 43.018 27.4727C43.018 30.0664 45.1206 32.1691 47.7144 32.1691Z" fill="white"/>
<path d="M47.7144 32.443C44.9742 32.443 42.7407 30.2132 42.7407 27.4693C42.7407 24.7254 44.9705 22.4956 47.7144 22.4956C50.4545 22.4956 52.6881 24.7254 52.6881 27.4693C52.6881 30.2132 50.4582 32.443 47.7144 32.443ZM47.7144 23.054C45.2774 23.054 43.2953 25.0361 43.2953 27.473C43.2953 29.9099 45.2774 31.892 47.7144 31.892C50.1513 31.892 52.1334 29.9099 52.1334 27.473C52.1334 25.0361 50.1513 23.054 47.7144 23.054Z" fill="#4E6262"/>
<path d="M24.2695 29.2776C23.2748 29.2776 22.465 28.4678 22.465 27.473C22.465 26.4783 23.2748 25.6685 24.2695 25.6685C25.2643 25.6685 26.0741 26.4783 26.0741 27.473C26.0741 28.4678 25.2643 29.2776 24.2695 29.2776ZM24.2695 26.2231C23.5817 26.2231 23.0197 26.7852 23.0197 27.473C23.0197 28.1609 23.5817 28.7229 24.2695 28.7229C24.9574 28.7229 25.5194 28.1609 25.5194 27.473C25.5194 26.7852 24.9611 26.2231 24.2695 26.2231Z" fill="#4E6262"/>
<path d="M47.7144 29.2776C46.7196 29.2776 45.9098 28.4678 45.9098 27.473C45.9098 26.4783 46.7196 25.6685 47.7144 25.6685C48.7091 25.6685 49.519 26.4783 49.519 27.473C49.519 28.4678 48.7128 29.2776 47.7144 29.2776ZM47.7144 26.2231C47.0266 26.2231 46.4645 26.7852 46.4645 27.473C46.4645 28.1609 47.0266 28.7229 47.7144 28.7229C48.4022 28.7229 48.9643 28.1609 48.9643 27.473C48.9643 26.7852 48.4059 26.2231 47.7144 26.2231Z" fill="#4E6262"/>
</svg>
