<svg width="36" height="38" viewBox="0 0 36 38" fill="none" xmlns="http://www.w3.org/2000/svg">
<path d="M15.5652 11.318C15.1061 11.318 14.7345 11.6895 14.7345 12.1487L14.7405 15.9519C14.7405 16.5833 14.5321 17.1995 14.1454 17.698L2.60886 32.6148C2.30375 33.0106 2.12854 33.4939 2.12552 33.9954C2.1225 34.7627 2.46084 35.826 3.98032 36.7473C4.58146 37.1129 5.27324 37.3032 5.97709 37.3032H31.6482C32.1496 37.3032 32.6481 37.1914 33.0982 36.9709C34.0135 36.5238 35.2792 35.5571 35.0889 33.6631C35.0466 33.2432 34.8805 32.8474 34.6237 32.5152L23.1777 17.6919C22.7911 17.1935 22.5826 16.5803 22.5826 15.9519L22.5766 12.1427C22.5766 11.6865 22.205 11.3149 21.7459 11.3149H15.5652V11.318Z" fill="#87CAED" fill-opacity="0.56"/>
<path d="M6.35469 18.1726C6.23084 18.1726 6.12813 18.0699 6.12813 17.946V15.2363C6.12813 15.1125 6.23084 15.0098 6.35469 15.0098C6.47854 15.0098 6.58125 15.1125 6.58125 15.2363V17.946C6.58125 18.0699 6.48157 18.1726 6.35469 18.1726Z" fill="#4E6262"/>
<path d="M7.30625 16.8164H5.40312C5.27927 16.8164 5.17656 16.7137 5.17656 16.5898C5.17656 16.466 5.27927 16.3633 5.40312 16.3633H7.30625C7.4301 16.3633 7.53281 16.466 7.53281 16.5898C7.53281 16.7137 7.4301 16.8164 7.30625 16.8164Z" fill="#4E6262"/>
<path d="M3.38821 13.4267C3.26436 13.4267 3.16165 13.324 3.16165 13.2002V8.60547C3.16165 8.48161 3.26436 8.37891 3.38821 8.37891C3.51205 8.37891 3.61476 8.48161 3.61476 8.60547V13.2002C3.61476 13.327 3.51205 13.4267 3.38821 13.4267Z" fill="#4E6262"/>
<path d="M4.77781 11.1309H1.99562C1.87177 11.1309 1.76906 11.0282 1.76906 10.9043C1.76906 10.7804 1.87177 10.6777 1.99562 10.6777H4.77781C4.90166 10.6777 5.00437 10.7804 5.00437 10.9043C5.00437 11.0282 4.90468 11.1309 4.77781 11.1309Z" fill="#4E6262"/>
<path d="M32.0378 25.6821C31.914 25.6821 31.8112 25.5794 31.8112 25.4555V20.8608C31.8112 20.737 31.914 20.6343 32.0378 20.6343C32.1617 20.6343 32.2644 20.737 32.2644 20.8608V25.4555C32.2644 25.5794 32.1647 25.6821 32.0378 25.6821Z" fill="#4E6262"/>
<path d="M33.4304 23.3833H30.6482C30.5244 23.3833 30.4217 23.2806 30.4217 23.1567C30.4217 23.0329 30.5244 22.9302 30.6482 22.9302H33.4304C33.5543 22.9302 33.657 23.0329 33.657 23.1567C33.657 23.2806 33.5543 23.3833 33.4304 23.3833Z" fill="#4E6262"/>
<path d="M21.6794 5.64499H12.7558C11.8828 5.64499 11.1699 4.93208 11.1699 4.05905V2.05322C11.1699 1.1802 11.8828 0.467285 12.7558 0.467285H21.6794C22.5524 0.467285 23.2653 1.1802 23.2653 2.05322V4.05905C23.2653 4.93208 22.5554 5.64499 21.6794 5.64499ZM12.7558 0.92041C12.1305 0.92041 11.623 1.42791 11.623 2.05322V4.05905C11.623 4.68437 12.1305 5.19187 12.7558 5.19187H21.6794C22.3047 5.19187 22.8122 4.68437 22.8122 4.05905V2.05322C22.8122 1.42791 22.3047 0.92041 21.6794 0.92041H12.7558Z" fill="#4E6262"/>
<path d="M15.1936 27.8213C14.9218 27.8213 14.6529 27.7186 14.4475 27.5132L10.9222 23.9878C10.8346 23.9002 10.8346 23.7552 10.9222 23.6676C11.0098 23.58 11.1548 23.58 11.2424 23.6676L14.7677 27.193C14.9882 27.4135 15.3477 27.4286 15.5833 27.2232L32.8263 12.3727C32.9199 12.2912 33.0649 12.3002 33.1465 12.3969C33.228 12.4905 33.219 12.6355 33.1223 12.7171L15.8794 27.5675C15.683 27.7367 15.4383 27.8213 15.1936 27.8213Z" fill="#4E6262"/>
<path d="M29.1166 34.4245H5.47867C4.9621 34.4245 4.50294 34.1345 4.2794 33.6693C4.05586 33.2041 4.11627 32.6633 4.44252 32.2585L5.53002 30.9052C5.60856 30.8085 5.75054 30.7904 5.84721 30.8689C5.94387 30.9475 5.962 31.0895 5.88346 31.1861L4.79596 32.5395C4.57846 32.8083 4.53919 33.1557 4.69023 33.4699C4.84127 33.7841 5.13731 33.9683 5.48169 33.9683H29.1166C29.464 33.9683 29.7601 33.781 29.9081 33.4699C30.0591 33.1587 30.0168 32.8113 29.8024 32.5395L28.7149 31.1861C28.6363 31.0895 28.6514 30.9445 28.7511 30.8689C28.8478 30.7904 28.9928 30.8055 29.0683 30.9052L30.1558 32.2585C30.479 32.6603 30.5425 33.201 30.3189 33.6693C30.0954 34.1375 29.6332 34.4245 29.1166 34.4245Z" fill="#4E6262"/>
<path d="M30.0622 36.8593H4.78083C3.73864 36.8593 2.72062 36.5179 1.91708 35.8987C1.88989 35.8775 1.86271 35.8564 1.83854 35.8352C1.18604 35.3126 0.778227 34.5635 0.684581 33.7297C0.590935 32.899 0.82354 32.0743 1.33406 31.4127L12.5685 16.8855C12.922 16.4264 13.1183 15.8554 13.1183 15.2785L13.1093 5.41846C13.1093 5.35804 13.1334 5.30064 13.1757 5.25835C13.218 5.21606 13.2754 5.19189 13.3358 5.19189H21.1749C21.2987 5.19189 21.4015 5.2946 21.4015 5.41846L21.4105 15.2815C21.4105 15.8585 21.6069 16.4264 21.9573 16.8855L23.5281 18.9186C23.6036 19.0182 23.5855 19.1602 23.4858 19.2357C23.3861 19.3113 23.2442 19.2931 23.1686 19.1935L21.5978 17.1604C21.184 16.6257 20.9574 15.9581 20.9544 15.2815L20.9483 5.64502H13.5624L13.5684 15.2785C13.5684 15.9581 13.3419 16.6288 12.925 17.1635L1.69354 31.6876C1.2525 32.2555 1.05614 32.9624 1.13469 33.6783C1.21323 34.3943 1.56364 35.0347 2.1225 35.4818C2.14666 35.4999 2.17083 35.5211 2.195 35.5392C2.92 36.098 3.83833 36.4062 4.78083 36.4062H30.0592C30.9201 36.4062 31.7478 36.1192 32.3943 35.5966C32.9139 35.1767 33.2492 34.6692 33.3972 34.0831C33.5935 33.3038 33.4093 32.4489 32.9018 31.7933L24.809 21.2748C24.7334 21.1751 24.7516 21.0331 24.8513 20.9576C24.9509 20.8821 25.0929 20.9002 25.1684 20.9999L33.2612 31.5185C33.8503 32.2827 34.0678 33.2856 33.8382 34.1979C33.666 34.8806 33.2764 35.4697 32.6813 35.953C31.9532 36.5361 31.0258 36.8593 30.0622 36.8593Z" fill="#4E6262"/>
<path d="M20.2324 30.4397C19.5708 30.4397 19.0301 29.902 19.0301 29.2374C19.0301 28.5729 19.5678 28.0352 20.2324 28.0352C20.894 28.0352 21.4347 28.5729 21.4347 29.2374C21.4347 29.902 20.894 30.4397 20.2324 30.4397ZM20.2324 28.4883C19.8185 28.4883 19.4832 28.8236 19.4832 29.2374C19.4832 29.6513 19.8185 29.9866 20.2324 29.9866C20.6463 29.9866 20.9816 29.6513 20.9816 29.2374C20.9816 28.8236 20.6432 28.4883 20.2324 28.4883Z" fill="white"/>
<path d="M15.6045 22.0603C15.0215 22.0603 14.5472 21.5861 14.5472 21.0031C14.5472 20.4201 15.0215 19.9458 15.6045 19.9458C16.1875 19.9458 16.6618 20.4201 16.6618 21.0031C16.6618 21.5861 16.1875 22.0603 15.6045 22.0603ZM15.6045 20.3989C15.2722 20.3989 15.0003 20.6708 15.0003 21.0031C15.0003 21.3384 15.2722 21.6072 15.6045 21.6072C15.9398 21.6072 16.2087 21.3354 16.2087 21.0031C16.2087 20.6708 15.9368 20.3989 15.6045 20.3989Z" fill="white"/>
<path d="M13.0337 31.8963C12.4507 31.8963 11.9764 31.4221 11.9764 30.839C11.9764 30.256 12.4507 29.7817 13.0337 29.7817C13.6167 29.7817 14.091 30.256 14.091 30.839C14.094 31.4221 13.6167 31.8963 13.0337 31.8963ZM13.0337 30.2318C12.6984 30.2318 12.4296 30.5037 12.4296 30.836C12.4296 31.1683 12.7014 31.4402 13.0337 31.4402C13.366 31.4402 13.6379 31.1683 13.6379 30.836C13.6379 30.5037 13.369 30.2318 13.0337 30.2318Z" fill="white"/>
<path d="M25.2651 31.0347C25.5337 31.0347 25.7515 30.817 25.7515 30.5484C25.7515 30.2798 25.5337 30.062 25.2651 30.062C24.9965 30.062 24.7787 30.2798 24.7787 30.5484C24.7787 30.817 24.9965 31.0347 25.2651 31.0347Z" fill="white"/>
<path d="M23.8363 27.0206C24.1049 27.0206 24.3226 26.8028 24.3226 26.5342C24.3226 26.2656 24.1049 26.0479 23.8363 26.0479C23.5676 26.0479 23.3499 26.2656 23.3499 26.5342C23.3499 26.8028 23.5676 27.0206 23.8363 27.0206Z" fill="white"/>
<path d="M8.85896 29.8541C9.12757 29.8541 9.34531 29.6363 9.34531 29.3677C9.34531 29.0991 9.12757 28.8813 8.85896 28.8813C8.59035 28.8813 8.3726 29.0991 8.3726 29.3677C8.3726 29.6363 8.59035 29.8541 8.85896 29.8541Z" fill="white"/>
<path d="M19.2567 19.2115C19.5253 19.2115 19.7431 18.9938 19.7431 18.7251C19.7431 18.4565 19.5253 18.2388 19.2567 18.2388C18.9881 18.2388 18.7704 18.4565 18.7704 18.7251C18.7704 18.9938 18.9881 19.2115 19.2567 19.2115Z" fill="white"/>
</svg>
