<svg width="16" height="13" viewBox="0 0 16 13" fill="none" xmlns="http://www.w3.org/2000/svg">
<path d="M15.7958 2.11545L15.1637 1.49683L9.30771 7.22725C8.57571 7.94356 7.34463 7.94356 6.61264 7.22725L0.756689 1.52939L0.124512 2.14801L4.4832 6.41327L0.124512 10.6785L0.756689 11.2972L5.11538 7.03189L5.98046 7.87844C6.51282 8.39938 7.21154 8.69242 7.94354 8.69242C8.67553 8.69242 9.37425 8.39938 9.90661 7.87844L10.7717 7.03189L15.1304 11.2972L15.7626 10.6785L11.4039 6.41327L15.7958 2.11545Z" fill="#91BF4B"/>
<path d="M14.5669 12.4042H1.4243C0.659033 12.4042 0.0268555 11.7856 0.0268555 11.0367V1.85503C0.0268555 1.10617 0.659033 0.487549 1.4243 0.487549H14.5669C15.3322 0.487549 15.9644 1.10617 15.9644 1.85503V11.0367C15.9644 11.7856 15.3322 12.4042 14.5669 12.4042ZM1.39103 1.36665C1.12485 1.36665 0.925213 1.562 0.925213 1.82247V11.0042C0.925213 11.2646 1.12485 11.46 1.39103 11.46H14.5336C14.7998 11.46 14.9995 11.2646 14.9995 11.0042V1.82247C14.9995 1.562 14.7998 1.36665 14.5336 1.36665H1.39103Z" fill="#91BF4B"/>
</svg>
