<svg width="38" height="43" viewBox="0 0 38 43" fill="none" xmlns="http://www.w3.org/2000/svg">
<g opacity="0.4">
<path d="M9.83969 29.0749C10.6272 28.9062 14.5169 27.9387 15.8387 25.0221C17.5656 21.1999 15.2312 17.0796 15.2312 17.0796C15.2312 17.0796 11.0041 17.4902 8.96219 21.4699C7.46031 24.3949 9.14781 28.0399 9.595 28.909" fill="#91BF4B"/>
</g>
<g opacity="0.4">
<path d="M30.5003 28.1691C30.534 27.3929 30.5818 23.5369 28.1856 21.5963C25.0497 19.0566 20.6454 20.2266 20.6454 20.2266C20.6454 20.2266 19.9985 24.2625 23.2075 27.1341C25.5644 29.2435 29.3697 28.5601 30.2893 28.3547" fill="#91BF4B"/>
</g>
<g opacity="0.4">
<path d="M18.9803 33.9741C19.3347 33.676 21.0418 32.1404 20.9265 30.3066C20.7746 27.9076 18.4825 26.4507 18.4825 26.4507C18.4825 26.4507 16.4519 27.7951 16.4913 30.3601C16.5194 32.2444 18.3531 33.6366 18.8144 33.9572" fill="#91BF4B"/>
</g>
<g opacity="0.4">
<path d="M26.0313 10.6052C25.6938 10.172 23.9444 8.0711 21.7619 8.12454C18.9044 8.19766 17.065 10.8555 17.065 10.8555C17.065 10.8555 18.5725 13.3277 21.6213 13.4008C23.8628 13.4542 25.5981 11.3364 26.0003 10.8049" fill="#91BF4B"/>
</g>
<g opacity="0.4">
<path d="M33.8134 7.93904C33.5378 7.81529 32.1428 7.24154 31.0909 7.83216C29.7156 8.6056 29.5075 10.3747 29.5075 10.3747C29.5075 10.3747 30.88 11.1903 32.3847 10.4393C33.49 9.88528 33.7909 8.40591 33.85 8.0431" fill="#91BF4B"/>
</g>
<g opacity="0.4">
<path d="M24.4675 0.474609C24.1722 0.547735 22.7237 0.966798 22.2709 2.08336C21.6747 3.54306 22.6112 5.059 22.6112 5.059C22.6112 5.059 24.1947 4.84525 24.9062 3.32087C25.4293 2.20149 24.7431 0.854298 24.5631 0.533672" fill="#91BF4B"/>
</g>
<g opacity="0.4">
<path d="M19.0281 3.40234C18.7328 3.47547 17.2844 3.89453 16.8316 5.01109C16.2353 6.47078 17.1719 7.98672 17.1719 7.98672C17.1719 7.98672 18.7553 7.77297 19.4669 6.24859C19.99 5.12922 19.3038 3.78203 19.1238 3.46141" fill="#91BF4B"/>
</g>
<g opacity="0.4">
<path d="M12.8603 2.23242C12.6522 2.4518 11.6509 3.57961 11.859 4.76648C12.1347 6.31898 13.735 7.10367 13.735 7.10367C13.735 7.10367 14.9584 6.07711 14.7475 4.4093C14.5928 3.18305 13.2934 2.40961 12.97 2.23523" fill="#91BF4B"/>
</g>
<g opacity="0.4">
<path d="M2.93501 22.5668C3.28095 22.6793 5.01626 23.1743 6.18907 22.3334C7.72188 21.2309 7.73876 19.0962 7.73876 19.0962C7.73876 19.0962 5.99501 18.3059 4.30188 19.4028C3.05876 20.2071 2.89845 22.0099 2.87595 22.4515" fill="#91BF4B"/>
</g>
<g opacity="0.4">
<path d="M4.04594 29.2798C4.29906 29.2067 5.53656 28.8073 5.90218 27.8342C6.37749 26.5573 5.53093 25.272 5.53093 25.272C5.53093 25.272 4.16969 25.497 3.59594 26.8329C3.17406 27.8145 3.80125 28.9592 3.96437 29.232" fill="#91BF4B"/>
</g>
<g opacity="0.4">
<path d="M2.10813 15.1751C2.5497 15.5745 4.81376 17.487 7.13407 17.0145C10.1716 16.3958 11.6313 13.212 11.6313 13.212C11.6313 13.212 9.55563 10.8579 6.28751 11.3557C3.88563 11.7214 2.43157 14.3117 2.10251 14.9558" fill="#91BF4B"/>
</g>
<g opacity="0.4">
<path d="M29.7016 15.5185C29.3894 15.1895 27.7806 13.6088 25.9919 13.8338C23.6519 14.1263 22.3609 16.4607 22.3609 16.4607C22.3609 16.4607 23.8009 18.3676 26.3097 18.1763C28.1547 18.0357 29.4062 16.157 29.6931 15.6845" fill="#91BF4B"/>
</g>
<g opacity="0.4">
<path d="M10.5484 8.67294C10.5006 8.22294 10.1884 5.98984 8.63311 5.07859C6.59686 3.8861 4.15281 4.95203 4.15281 4.95203C4.15281 4.95203 4.13312 7.33982 6.23968 8.71794C7.78936 9.73043 9.92686 8.99919 10.4387 8.80231" fill="#91BF4B"/>
</g>
<g opacity="0.4">
<path d="M31.6028 2.65415C31.2147 2.56133 29.2712 2.16758 28.0619 3.18852C26.4784 4.52728 26.6444 6.86447 26.6444 6.86447C26.6444 6.86447 28.6187 7.57885 30.3794 6.23728C31.6731 5.25009 31.6928 3.26446 31.6788 2.78071" fill="#91BF4B"/>
</g>
<g opacity="0.4">
<path d="M36.5669 23.1488C36.4544 22.7101 35.8216 20.5445 34.1509 19.8695C31.9656 18.9863 29.7016 20.3926 29.7016 20.3926C29.7016 20.3926 30.0278 22.7607 32.3144 23.8154C33.9934 24.5916 36.0044 23.5623 36.4825 23.2894" fill="#91BF4B"/>
</g>
<g opacity="0.4">
<path d="M27.1563 33.3526C27.1844 33.032 27.2632 31.4261 26.2957 30.5823C25.03 29.477 23.1794 29.8932 23.1794 29.8932C23.1794 29.8932 22.8475 31.5611 24.1356 32.807C25.0835 33.7211 26.6782 33.4961 27.0635 33.4258" fill="#91BF4B"/>
</g>
<g opacity="0.4">
<path d="M11.9969 34.5226C12.309 34.4439 13.8531 33.9995 14.3396 32.8098C14.9753 31.2545 13.9796 29.6401 13.9796 29.6401C13.9796 29.6401 12.2922 29.8651 11.5328 31.4908C10.9759 32.6833 11.7044 34.1176 11.8956 34.4608" fill="#91BF4B"/>
</g>
<g opacity="0.4">
<path d="M36.6512 17.3578C36.6287 17.0344 36.46 15.4369 35.3772 14.7534C33.9569 13.8562 32.1934 14.5538 32.1934 14.5538C32.1934 14.5538 32.1203 16.2525 33.5884 17.2847C34.6656 18.0441 36.2069 17.5772 36.5753 17.4478" fill="#91BF4B"/>
</g>
<path d="M9.95501 42.1982C9.87345 42.1982 9.79751 42.1504 9.76376 42.0744C9.53313 41.5738 9.7497 40.9804 10.2503 40.7497C10.2503 40.7497 10.2531 40.7497 10.2531 40.7469L10.2588 40.7441C10.5822 40.5979 12.3428 39.8526 15.13 39.4616C15.3578 39.4279 15.611 39.3969 15.8978 39.3688V33.8704C15.8978 33.7719 15.9653 33.6876 16.061 33.6651C16.1566 33.6426 16.255 33.6876 16.2972 33.7776C16.3057 33.7944 17.1635 35.4791 18.6372 35.8447C19.2053 35.9854 19.7875 35.6732 20.3669 34.9194C20.8254 34.3232 21.1038 33.6679 21.1066 33.6594C21.146 33.5666 21.2444 33.5132 21.3429 33.5329C21.4413 33.5526 21.5116 33.6397 21.5116 33.741V39.4166C23.3847 39.6416 25.2522 40.0776 27.0691 40.7104C27.5866 40.8932 27.8791 41.5176 27.6963 42.0463C27.6682 42.1307 27.5866 42.1869 27.4966 42.1869L9.95501 42.1982ZM10.4247 41.1322C10.1772 41.2476 10.0506 41.5176 10.1041 41.7763L27.3251 41.7679C27.3476 41.4922 27.1788 41.1969 26.9257 41.1097C25.0807 40.4657 23.1794 40.0297 21.2754 39.816C21.1685 39.8047 21.0869 39.7147 21.0869 39.6051V34.6072C20.651 35.3329 19.886 36.2976 18.9044 36.2976C18.7835 36.2976 18.6597 36.2835 18.5332 36.2526C17.4869 35.9938 16.7388 35.1894 16.3169 34.6044V39.5601C16.3169 39.6697 16.2353 39.7597 16.1285 39.771C15.7685 39.8076 15.4591 39.8441 15.1863 39.8835C12.4553 40.266 10.7453 40.9916 10.4275 41.1322H10.4247Z" fill="#4E6262"/>
<path d="M26.92 25.801C26.8469 25.801 26.7794 25.7644 26.74 25.6969C25.2775 23.2472 21.6128 21.0535 19.6412 19.875C19.4809 19.7794 19.3319 19.6894 19.1941 19.605C17.8384 18.7866 17.6584 17.4 17.65 17.341C17.6359 17.2257 17.7175 17.1216 17.8356 17.1075C17.9509 17.0935 18.055 17.175 18.069 17.2903C18.0719 17.31 18.2406 18.5391 19.4106 19.245C19.5484 19.3294 19.6975 19.4166 19.8578 19.5122C20.8928 20.131 22.3131 20.9804 23.6716 21.9957C25.3113 23.2191 26.4335 24.361 27.1028 25.4804C27.1619 25.5816 27.131 25.711 27.0297 25.7701C26.9932 25.7897 26.9566 25.801 26.92 25.801Z" fill="#4E6262"/>
<path d="M22.5072 19.5967C23.3397 19.5967 24.1075 19.6951 24.7966 19.8864C25.6291 20.1198 26.3435 20.4911 26.9228 20.9945C27.6541 21.6329 28.2503 22.3839 28.6891 23.2332C29.0435 23.9139 29.2994 24.6592 29.4513 25.4467C29.6313 26.3804 29.62 27.1595 29.5947 27.5532C29.1813 27.6432 28.3375 27.7895 27.2997 27.7895C26.4222 27.7895 25.5869 27.6826 24.8219 27.4745C23.8741 27.2157 23.0275 26.7967 22.3075 26.2314C21.714 25.7645 21.2219 25.1317 20.8422 24.3498C20.5328 23.7114 20.2965 22.9745 20.1447 22.1589C19.959 21.1801 19.9393 20.3195 19.9422 19.8807C20.409 19.7767 21.3794 19.5967 22.5072 19.5967ZM22.5072 19.1748C20.845 19.1748 19.5315 19.5489 19.5315 19.5489C19.5315 19.5489 19.2137 24.3273 22.0487 26.5604C23.725 27.8795 25.7275 28.2086 27.2997 28.2086C28.8494 28.2086 29.9857 27.8907 29.9857 27.8907C29.9857 27.8907 30.6072 23.6439 27.1985 20.6767C25.8316 19.487 24.0231 19.1748 22.5072 19.1748Z" fill="#4E6262"/>
<path d="M10.2756 25.6123C10.2194 25.6123 10.1631 25.5898 10.1209 25.5448C10.0422 25.4605 10.045 25.3255 10.1322 25.2467C11.1109 24.3326 12.0531 22.8842 12.939 20.9436C13.6928 19.287 14.2637 17.5995 14.68 16.3676C14.7447 16.1764 14.8065 15.9964 14.8628 15.8304C15.4169 14.2104 16.84 13.7013 16.899 13.6817C17.0087 13.6423 17.1297 13.7013 17.1662 13.811C17.2056 13.9207 17.1465 14.0417 17.0369 14.0782C17.0144 14.0867 15.7431 14.5507 15.2622 15.9654C15.2059 16.1314 15.144 16.3114 15.0794 16.5026C14.6603 17.7429 14.0865 19.4445 13.3244 21.1208C12.4047 23.1401 11.454 24.5914 10.4219 25.5589C10.3797 25.5955 10.3262 25.6123 10.2756 25.6123Z" fill="#4E6262"/>
<path d="M14.7447 16.6434C14.95 17.0793 15.3409 17.999 15.6081 19.1296C15.8247 20.0465 15.9147 20.9184 15.8809 21.7228C15.8387 22.7099 15.6053 23.5987 15.1834 24.3637C14.6744 25.2918 14.0078 26.1018 13.2062 26.7655C12.5622 27.2999 11.8281 27.7471 11.0237 28.0902C10.0506 28.5065 9.20686 28.6724 8.7878 28.7343C8.59655 28.3124 8.2253 27.4096 7.98061 26.2621C7.78373 25.334 7.7078 24.4312 7.75561 23.5762C7.81467 22.5187 8.06498 21.5315 8.49811 20.6428C8.86092 19.9003 9.42061 19.2253 10.1659 18.6403C10.7734 18.1621 11.5047 17.7403 12.3372 17.3887C13.3581 16.9584 14.2862 16.7362 14.7447 16.6434ZM14.9837 16.1709C14.9837 16.1709 9.83967 16.9331 8.12123 20.4571C6.10748 24.5943 8.54029 29.1871 8.54029 29.1871C8.54029 29.1871 13.1894 28.8693 15.5547 24.5662C17.5403 20.9493 14.9837 16.1709 14.9837 16.1709Z" fill="#4E6262"/>
<path d="M15.3072 11.0836C14.3706 11.0836 13.7631 10.5521 13.7322 10.5239C13.645 10.4452 13.6366 10.313 13.7153 10.2258C13.7941 10.1386 13.9263 10.1302 14.0134 10.2089C14.0444 10.2342 14.7081 10.8052 15.6841 10.6252C15.8022 10.6027 15.9288 10.5802 16.0666 10.5549C17.9031 10.2117 20.9744 9.64079 23.0894 10.3158C23.1991 10.3524 23.2609 10.4705 23.2272 10.5802C23.1906 10.6899 23.0725 10.7518 22.9628 10.718C20.9491 10.0739 17.8244 10.6561 16.1453 10.9683C16.0103 10.9936 15.8809 11.0189 15.7628 11.0386C15.5997 11.0724 15.4506 11.0836 15.3072 11.0836Z" fill="#4E6262"/>
<path d="M20.7972 8.05713C21.5003 8.05713 22.1837 8.18369 22.8278 8.43682C23.3481 8.63932 23.8431 8.92339 24.3044 9.27776C24.8078 9.66589 25.1594 10.0596 25.3506 10.2987C25.1453 10.5687 24.7544 11.0412 24.2116 11.5137C23.7306 11.9328 23.2244 12.2731 22.7069 12.5262C22.0712 12.8356 21.4131 13.0128 20.755 13.0493C20.6931 13.0522 20.6312 13.055 20.5694 13.055C20.0406 13.055 19.4894 12.9284 18.9325 12.6781C18.4712 12.4728 18.0072 12.1831 17.5459 11.8175C17.0425 11.4181 16.6572 11.0159 16.4406 10.7712C16.6516 10.4871 17.0425 10.0006 17.5684 9.52245C18.0353 9.09495 18.5191 8.75745 19 8.51276C19.5878 8.21744 20.1784 8.06557 20.755 8.06276C20.7691 8.05713 20.7831 8.05713 20.7972 8.05713ZM20.7972 7.63525C20.7831 7.63525 20.7691 7.63525 20.7522 7.63525C17.9172 7.65494 15.9091 10.7909 15.9091 10.7909C15.9091 10.7909 17.9791 13.474 20.5694 13.474C20.6397 13.474 20.7072 13.4712 20.7775 13.4684C23.9331 13.2912 25.8737 10.2931 25.8737 10.2931C25.8737 10.2931 24.1412 7.63525 20.7972 7.63525Z" fill="#4E6262"/>
<path d="M34.8934 16.3818C34.8316 16.3818 34.7725 16.3565 34.7303 16.3058C33.9372 15.3496 32.1878 14.6408 31.2512 14.2611C31.1753 14.2302 31.1022 14.2021 31.0347 14.1739C30.3287 13.8842 30.1403 13.2317 30.1319 13.2064C30.1009 13.0939 30.1656 12.9786 30.2781 12.9477C30.3906 12.9167 30.5059 12.9814 30.5369 13.0939C30.5425 13.1164 30.6859 13.5777 31.195 13.7858C31.2625 13.8139 31.3328 13.842 31.4087 13.873C32.4494 14.2949 34.1931 15.0008 35.0538 16.0386C35.1269 16.1286 35.1156 16.2608 35.0256 16.3368C34.9863 16.3649 34.9384 16.3818 34.8934 16.3818Z" fill="#4E6262"/>
<path d="M33.1778 14.0137C33.6784 14.0137 34.1059 14.1234 34.4547 14.3427C35.0706 14.7309 35.515 15.2877 35.7737 15.9965C35.8722 16.2693 35.9256 16.5168 35.9537 16.694C35.65 16.7952 35.1269 16.933 34.5278 16.933C33.9653 16.933 33.4591 16.8093 33.0231 16.5646C32.1259 16.0612 31.7997 14.8546 31.6928 14.2865C32.0162 14.174 32.5787 14.0137 33.1778 14.0137ZM33.1778 13.5918C32.14 13.5918 31.2231 14.0137 31.2231 14.0137C31.2231 14.0137 31.4116 16.1399 32.8122 16.9302C33.3775 17.248 33.9794 17.3521 34.5222 17.3521C35.5628 17.3521 36.4009 16.9696 36.4009 16.9696C36.4009 16.9696 36.3841 15.0571 34.6769 13.9827C34.21 13.693 33.6784 13.5918 33.1778 13.5918Z" fill="#4E6262"/>
<path d="M25.5054 32.3454C25.4294 32.3454 25.3591 32.306 25.3197 32.2357C24.7235 31.1445 23.1457 30.1151 22.2963 29.561C22.226 29.516 22.1613 29.4738 22.1022 29.4345C21.4666 29.0154 21.4047 28.3404 21.4019 28.3094C21.3934 28.1941 21.4778 28.0929 21.596 28.0816C21.7113 28.0732 21.8125 28.1576 21.8238 28.2729C21.8266 28.2954 21.8772 28.7763 22.3356 29.0801C22.3947 29.1195 22.4594 29.1616 22.5297 29.2066C23.4719 29.8198 25.0469 30.8491 25.6938 32.0304C25.7501 32.1317 25.7107 32.261 25.6094 32.3173C25.5729 32.337 25.5391 32.3454 25.5054 32.3454Z" fill="#4E6262"/>
<path d="M23.4522 29.6172C24.5209 29.6172 25.1144 29.9659 25.4237 30.2556C25.9553 30.7562 26.2843 31.3863 26.3997 32.1316C26.4447 32.4184 26.4475 32.6716 26.4418 32.8488C26.2843 32.8684 26.0706 32.8881 25.8259 32.8881C25.1959 32.8881 24.2959 32.7616 23.59 32.1597C22.8081 31.4931 22.7181 30.2472 22.721 29.6678C22.9066 29.6425 23.1625 29.6172 23.4522 29.6172ZM23.4522 29.1953C22.8053 29.1953 22.316 29.3134 22.316 29.3134C22.316 29.3134 22.091 31.4369 23.3172 32.4803C24.1103 33.1581 25.1003 33.31 25.8259 33.31C26.4137 33.31 26.83 33.2116 26.83 33.2116C26.83 33.2116 27.1815 31.33 25.7134 29.9491C25.0665 29.3416 24.1638 29.1953 23.4522 29.1953Z" fill="#4E6262"/>
<path d="M11.7241 32.97C11.6622 32.97 11.6003 32.9419 11.5581 32.8913C11.485 32.8013 11.4991 32.6663 11.5919 32.5959C12.5622 31.8197 13.2991 30.0844 13.6957 29.1507C13.7294 29.0747 13.7575 29.0016 13.7885 28.9369C14.0894 28.2366 14.7447 28.0566 14.7728 28.051C14.8853 28.02 15.0007 28.0875 15.0316 28.2C15.0597 28.3125 14.995 28.4278 14.8825 28.4588C14.86 28.4644 14.396 28.5994 14.1794 29.1057C14.1513 29.1703 14.1203 29.2435 14.0894 29.3194C13.6507 30.3544 12.9138 32.0841 11.8619 32.9278C11.8169 32.9559 11.7691 32.97 11.7241 32.97Z" fill="#4E6262"/>
<path d="M13.6619 29.5892C13.8475 30.1573 14.1569 31.4342 13.5578 32.3511C13.1584 32.9614 12.5959 33.3945 11.8844 33.642C11.6088 33.7376 11.3613 33.7854 11.1841 33.8079C11.1222 33.6111 11.0491 33.327 11.0041 32.9923C10.8972 32.1767 11.0181 31.4679 11.3613 30.8801C11.8788 29.9942 13.0881 29.6876 13.6619 29.5892ZM13.9403 29.1279C13.9403 29.1279 11.8113 29.2798 10.9984 30.6692C10.045 32.3004 10.8972 34.2551 10.8972 34.2551C10.8972 34.2551 10.8972 34.2551 10.9 34.2551C10.9647 34.2551 12.8322 34.2411 13.915 32.5817C14.8375 31.1642 13.9403 29.1279 13.9403 29.1279Z" fill="#4E6262"/>
<path d="M13.3778 8.87818C13.3384 8.87818 13.3018 8.86693 13.2653 8.84725C13.1668 8.78537 13.1359 8.65599 13.1978 8.55756C13.209 8.53787 13.4565 8.12162 13.2681 7.60412C13.2428 7.53662 13.2175 7.46349 13.1893 7.38755C12.8012 6.33286 12.1487 4.56942 12.3372 3.23348C12.354 3.11817 12.4609 3.03661 12.5762 3.05348C12.6915 3.07036 12.7731 3.17723 12.7562 3.29254C12.5847 4.52161 13.2372 6.29068 13.5887 7.2413C13.6168 7.32005 13.645 7.39318 13.6703 7.46068C13.9318 8.17787 13.5775 8.75725 13.5634 8.77975C13.5156 8.84162 13.4481 8.87818 13.3778 8.87818Z" fill="#4E6262"/>
<path d="M12.219 2.12529C12.7253 2.40936 13.8137 3.14623 14.0978 4.37811C14.3284 5.37936 13.6562 6.43123 13.3075 6.89529C12.7815 6.60842 11.6819 5.89123 11.4906 4.81404C11.3612 4.09686 11.4737 3.39373 11.8253 2.72717C11.9575 2.46842 12.1037 2.26592 12.219 2.12529ZM12.1206 1.60498C12.1206 1.60498 10.7172 2.90436 11.0716 4.88998C11.3697 6.55779 13.42 7.42404 13.42 7.42404C13.42 7.42404 14.8656 5.85467 14.5056 4.28529C14.0837 2.44311 12.1206 1.60498 12.1206 1.60498Z" fill="#4E6262"/>
<path d="M15.5462 8.84144C15.4562 8.84144 15.3719 8.78238 15.3437 8.68957C15.31 8.57707 15.3747 8.46175 15.4844 8.428C15.5069 8.42238 15.9681 8.27332 16.1706 7.76144C16.1959 7.69394 16.2241 7.62363 16.255 7.54487C16.6656 6.49862 17.3519 4.74642 18.3784 3.87454C18.4684 3.79861 18.6006 3.80986 18.6765 3.89986C18.7525 3.98986 18.7412 4.12204 18.6512 4.19798C17.7034 5.00236 17.0172 6.75737 16.6487 7.70238C16.6178 7.78113 16.5897 7.85144 16.5644 7.91894C16.2831 8.62769 15.6334 8.82457 15.6053 8.83301C15.5856 8.83863 15.5659 8.84144 15.5462 8.84144Z" fill="#4E6262"/>
<path d="M19.0281 2.97186C19.0956 3.16592 19.1772 3.44998 19.2306 3.78186C19.36 4.59186 19.2587 5.30623 18.9325 5.90248C18.4375 6.80529 17.2365 7.14561 16.6712 7.25811C16.4687 6.69561 16.1228 5.42717 16.6965 4.49342C17.079 3.87186 17.6275 3.42186 18.3334 3.15467C18.6062 3.05623 18.8509 3.00279 19.0281 2.97186ZM19.3037 2.51904C19.3037 2.51904 17.3912 2.55842 16.3365 4.27686C15.4506 5.72248 16.4069 7.73061 16.4069 7.73061C16.4069 7.73061 18.5331 7.51967 19.3037 6.10779C20.2121 4.45123 19.3037 2.51904 19.3037 2.51904Z" fill="#4E6262"/>
<path d="M27.6231 11.0155C27.4347 11.0155 27.3081 10.9846 27.2969 10.979C27.1844 10.948 27.1169 10.8327 27.1478 10.7202C27.1787 10.6077 27.2912 10.5402 27.4037 10.5711C27.4262 10.5768 27.8959 10.6893 28.3347 10.3574C28.3909 10.3152 28.4528 10.2674 28.5203 10.2168C29.4119 9.53333 30.9054 8.38864 32.2357 8.17489C32.351 8.15521 32.4579 8.23396 32.4776 8.34927C32.4973 8.46458 32.4185 8.57146 32.3032 8.59114C31.0769 8.78802 29.5807 9.93552 28.7763 10.5515C28.7116 10.6021 28.6469 10.6499 28.5906 10.6921C28.2419 10.9593 27.8763 11.0155 27.6231 11.0155Z" fill="#4E6262"/>
<path d="M31.9347 7.47754C32.5028 7.47754 32.9781 7.6266 33.2566 7.73629C33.2144 7.93598 33.1384 8.22285 33.0119 8.53504C32.7025 9.29723 32.2469 9.8541 31.6591 10.1972C31.3441 10.38 30.9587 10.4729 30.5144 10.4729C29.9181 10.4729 29.3472 10.3041 29.0181 10.186C29.0575 9.98348 29.1278 9.70223 29.2431 9.39566C29.3725 9.05535 29.53 8.75441 29.7128 8.5041C29.9322 8.20598 30.1853 7.98098 30.4722 7.83473C30.9306 7.59848 31.4228 7.47754 31.9347 7.47754ZM31.9347 7.05566C31.4312 7.05566 30.8631 7.15691 30.2781 7.45785C28.7734 8.2341 28.5484 10.4504 28.5484 10.4504C28.5484 10.4504 29.4794 10.8947 30.5144 10.8947C30.97 10.8947 31.4453 10.8104 31.87 10.5629C33.5041 9.61504 33.7262 7.4916 33.7262 7.4916C33.7262 7.4916 32.9753 7.05566 31.9347 7.05566Z" fill="#4E6262"/>
<path d="M21.1797 6.72108C21.0981 6.72108 21.0194 6.67327 20.9856 6.59171C20.9406 6.48483 20.9912 6.36108 21.0981 6.31608C21.1206 6.30764 21.5622 6.10796 21.7056 5.57639C21.7253 5.50608 21.745 5.43295 21.7647 5.35139C22.0544 4.26576 22.5381 2.44888 23.4606 1.46451C23.5394 1.38013 23.6743 1.37451 23.7587 1.45607C23.8431 1.53482 23.8487 1.66982 23.7672 1.75419C22.9178 2.65982 22.4312 4.48233 22.1697 5.46108C22.1472 5.54264 22.1275 5.61577 22.1106 5.68608C21.9109 6.42296 21.2894 6.69014 21.2612 6.70139C21.2331 6.71546 21.205 6.72108 21.1797 6.72108Z" fill="#4E6262"/>
<path d="M24.0006 0.494122C24.251 1.01725 24.715 2.24913 24.2369 3.41913C23.8459 4.37257 22.6928 4.84507 22.1416 5.02226C22.0516 4.83663 21.9334 4.57226 21.8378 4.25726C21.6747 3.72288 21.5425 2.94382 21.8575 2.27163C22.1669 1.61069 22.6619 1.10162 23.3341 0.758498C23.59 0.62631 23.8291 0.544747 24.0006 0.494122ZM24.2228 0.0131836C24.2228 0.0131836 22.3272 0.266309 21.4722 2.09163C20.755 3.62726 21.9278 5.51726 21.9278 5.51726C21.9278 5.51726 24.0147 5.06726 24.625 3.57944C25.3422 1.83006 24.2228 0.0131836 24.2228 0.0131836Z" fill="#4E6262"/>
<path d="M18.3925 31.6452C18.3757 31.6452 18.3588 31.6424 18.3419 31.6396C18.2294 31.6115 18.1591 31.4962 18.1872 31.3837C18.6063 29.713 17.9678 27.1931 17.6247 25.8403C17.5966 25.7306 17.5713 25.6265 17.546 25.5309C17.3013 24.5522 17.8469 23.8434 17.8694 23.8153C17.9425 23.7225 18.0747 23.7084 18.1647 23.7787C18.2575 23.849 18.2716 23.9812 18.2013 24.074C18.1816 24.0994 17.7625 24.659 17.9538 25.4297C17.9763 25.5253 18.0044 25.6293 18.0325 25.739C18.4094 27.2268 19.0394 29.713 18.595 31.4877C18.5725 31.5805 18.4853 31.6452 18.3925 31.6452Z" fill="#4E6262"/>
<path d="M17.8553 26.1639C18.1 26.327 18.4881 26.6055 18.8762 26.9795C19.2447 27.3339 19.5428 27.7051 19.7622 28.082C20.0266 28.5348 20.1784 28.9989 20.2122 29.4601C20.2516 30.0283 20.1897 30.588 20.0209 31.1251C19.8859 31.5555 19.6834 31.9745 19.4219 32.3655C19.1547 32.7648 18.8734 33.0601 18.6878 33.2345C18.4516 33.0742 18.0775 32.7958 17.6922 32.4076C17.3294 32.042 17.0284 31.6511 16.8006 31.2461C16.5194 30.7511 16.345 30.2336 16.2831 29.7076C16.0947 28.1551 17.335 26.6983 17.8553 26.1639ZM17.7991 25.6323C17.7991 25.6323 15.5997 27.5645 15.8641 29.7555C16.1734 32.3261 18.7272 33.7548 18.7272 33.7548C18.7272 33.7548 20.8281 32.1855 20.6341 29.4292C20.4653 27.1117 17.7991 25.6323 17.7991 25.6323Z" fill="#4E6262"/>
<path d="M21.0784 16.5952C20.4316 16.5952 19.9844 16.2886 19.9591 16.2717C19.8634 16.2042 19.8409 16.0749 19.9056 15.9793C19.9731 15.8836 20.1025 15.8611 20.1981 15.9258C20.2234 15.9427 20.8056 16.3336 21.565 16.0974C21.6578 16.0693 21.7619 16.0355 21.8687 16.0017C23.3312 15.5433 25.7809 14.7783 27.5781 15.1243C27.6935 15.1468 27.7666 15.2564 27.7441 15.3718C27.7216 15.4871 27.6119 15.5602 27.4966 15.5377C25.8063 15.2114 23.3256 15.9877 21.9925 16.4039C21.8828 16.4377 21.7816 16.4686 21.6859 16.4996C21.475 16.5671 21.2669 16.5952 21.0784 16.5952Z" fill="#4E6262"/>
<path d="M26.0453 13.5889C26.9341 13.5889 27.7834 13.8476 28.5737 14.3567C28.9056 14.5704 29.1587 14.787 29.3162 14.9389C29.17 15.1836 28.9112 15.5717 28.5456 15.9767C28.1997 16.3592 27.8256 16.6798 27.4347 16.9301C26.9566 17.2367 26.4475 17.4392 25.9272 17.532C25.7753 17.5601 25.615 17.5714 25.4547 17.5714C24.0878 17.5714 22.8109 16.5926 22.3047 16.1539C22.4537 15.9007 22.7097 15.4986 23.0641 15.0907C23.3987 14.7026 23.7503 14.3848 24.1159 14.1457C24.5547 13.8561 25.0103 13.6789 25.4659 13.6226C25.66 13.6029 25.8541 13.5889 26.0453 13.5889ZM26.0453 13.167C25.84 13.167 25.6319 13.1811 25.4125 13.2064C23.1091 13.4989 21.7787 16.2439 21.7787 16.2439C21.7787 16.2439 23.4972 17.9961 25.4575 17.9961C25.6375 17.9961 25.8203 17.982 26.0031 17.9482C28.5541 17.4982 29.8394 14.8686 29.8394 14.8686C29.8394 14.8686 28.4106 13.167 26.0453 13.167Z" fill="#4E6262"/>
<path d="M4.69281 14.4015C4.39749 14.4015 4.11624 14.3846 3.85187 14.3508C3.73656 14.3368 3.65499 14.2299 3.66906 14.1146C3.68312 13.9993 3.78999 13.9177 3.90531 13.9318C6.26781 14.2383 9.60624 12.9643 11.4006 12.2808C11.5469 12.2246 11.6819 12.174 11.8112 12.1262C13.0684 11.6537 14.0894 12.2612 14.1316 12.2865C14.23 12.3483 14.2637 12.4777 14.2019 12.5762C14.14 12.6746 14.0106 12.7055 13.9122 12.6465C13.8953 12.638 13.015 12.1233 11.9603 12.5199C11.8337 12.5677 11.6987 12.6183 11.5525 12.6746C10.6075 13.0346 9.31093 13.5296 7.93843 13.898C6.68124 14.2327 5.61249 14.4015 4.69281 14.4015Z" fill="#4E6262"/>
<path d="M6.78812 10.7314C8.01437 10.7314 9.19843 11.2658 9.97187 11.7158C10.5034 12.0224 10.9225 12.3346 11.1672 12.5286C10.9956 12.8802 10.6553 13.5186 10.1519 14.1796C9.71875 14.7505 9.25187 15.2258 8.76249 15.5943C8.16624 16.0443 7.53624 16.3339 6.88937 16.4549C6.49281 16.5308 6.09062 16.5674 5.69406 16.5674C5.05843 16.5674 4.42281 16.4689 3.80124 16.2749C3.30343 16.1202 2.81124 15.9008 2.34437 15.6252C1.85499 15.3383 1.49218 15.0458 1.28124 14.863C1.44999 14.5255 1.79312 13.9068 2.31624 13.2486C2.76624 12.6833 3.26124 12.2024 3.78718 11.8171C4.43406 11.3418 5.13156 11.0127 5.85999 10.8355C6.16093 10.768 6.47031 10.7314 6.78812 10.7314ZM6.78812 10.3096C6.45062 10.3096 6.10749 10.3461 5.76437 10.4277C2.31624 11.2602 0.774994 14.9643 0.774994 14.9643C0.774994 14.9643 2.69312 16.9921 5.69687 16.9921C6.10187 16.9921 6.52656 16.9555 6.96812 16.8711C10.0984 16.2777 11.6875 12.4105 11.6875 12.4105C11.6875 12.4105 9.35874 10.3096 6.78812 10.3096Z" fill="#4E6262"/>
<path d="M12.0897 10.2174C11.9997 10.2174 11.9153 10.1584 11.8872 10.0656C11.8759 10.0318 11.6425 9.29496 10.8269 8.97433C10.7256 8.93496 10.6188 8.89277 10.5034 8.84777C8.94531 8.24028 6.33812 7.22497 5.04719 5.70905C4.97125 5.61905 4.9825 5.48686 5.06969 5.41093C5.15969 5.33499 5.29187 5.34624 5.36781 5.43343C6.59125 6.86779 9.235 7.89716 10.6553 8.45121C10.7706 8.49621 10.8803 8.5384 10.9816 8.57777C11.9969 8.97715 12.2781 9.90245 12.2894 9.94183C12.3231 10.0543 12.2584 10.1696 12.1459 10.2034C12.1291 10.2146 12.1094 10.2174 12.0897 10.2174Z" fill="#4E6262"/>
<path d="M5.82062 4.21533C6.66719 4.21533 7.435 4.39814 8.10156 4.76377C8.52344 4.99439 8.90312 5.34033 9.22656 5.79314C9.49375 6.16721 9.72437 6.61439 9.91281 7.12064C10.1153 7.66346 10.2222 8.16127 10.2756 8.46502C9.80593 8.64783 8.81594 8.97689 7.75 8.97689C6.99062 8.97689 6.3325 8.80814 5.7925 8.47908C5.25531 8.15283 4.79687 7.73658 4.42281 7.24439C4.12187 6.84783 3.87719 6.40064 3.69437 5.91408C3.50031 5.40221 3.41875 4.95221 3.38219 4.67658C3.82094 4.51064 4.75469 4.21533 5.82062 4.21533ZM5.82062 3.79346C4.22312 3.79346 2.935 4.40096 2.935 4.40096C2.935 4.40096 2.99969 7.26408 5.57312 8.83627C6.25656 9.25252 7.02156 9.39596 7.75 9.39596C9.33344 9.39596 10.7397 8.72377 10.7397 8.72377C10.7397 8.72377 10.4162 5.54564 8.30406 4.39252C7.48 3.94252 6.61375 3.79346 5.82062 3.79346Z" fill="#4E6262"/>
<path d="M3.50592 21.5965C3.41873 21.5965 3.33717 21.5402 3.30623 21.4531C3.26967 21.3434 3.32873 21.2224 3.43842 21.1859C4.81656 20.719 6.32125 19.1102 7.12845 18.2468C7.19314 18.1764 7.25782 18.1089 7.31407 18.0471C7.91033 17.4143 8.68377 17.4761 8.71752 17.4789C8.83283 17.4902 8.92002 17.5914 8.90877 17.7096C8.89752 17.8249 8.79627 17.9093 8.68096 17.9008C8.65283 17.898 8.07627 17.8586 7.62345 18.3368C7.5672 18.3986 7.50532 18.4633 7.43782 18.5336C6.54626 19.4871 5.05281 21.0846 3.57342 21.5852C3.55092 21.5909 3.52842 21.5965 3.50592 21.5965Z" fill="#4E6262"/>
<path d="M5.84313 18.5195C6.29594 18.5195 6.70094 18.5786 6.96251 18.6292C6.94563 19.307 6.79095 20.9186 5.71657 21.7229C5.04438 22.2264 4.26531 22.4795 3.39906 22.4795C2.98844 22.4795 2.64531 22.4204 2.42031 22.367C2.42875 22.1251 2.45968 21.7539 2.5525 21.3348C2.64531 20.9129 2.78593 20.5248 2.96594 20.1817C3.18812 19.7626 3.47219 19.4055 3.80969 19.1242C4.30188 18.7248 4.98532 18.5195 5.84313 18.5195ZM5.84313 18.0977C5.09782 18.0977 4.2175 18.2467 3.54531 18.8036C1.84937 20.207 2.00125 22.6876 2.00125 22.6876C2.00125 22.6876 2.57781 22.9042 3.40187 22.9042C4.14156 22.9042 5.08094 22.7298 5.96969 22.0632C7.55032 20.882 7.38157 18.2945 7.38157 18.2945C7.38157 18.2945 6.69813 18.0977 5.84313 18.0977Z" fill="#4E6262"/>
<path d="M3.77876 27.9214C3.72251 27.9214 3.66626 27.8989 3.62407 27.8539C3.54532 27.7695 3.55095 27.6345 3.63532 27.5558C4.40314 26.8442 4.92064 25.3339 5.19908 24.5211C5.22158 24.4536 5.24408 24.3917 5.26377 24.3327C5.48033 23.7055 6.04002 23.5086 6.06252 23.503C6.17221 23.4664 6.29314 23.5255 6.32971 23.6352C6.36627 23.7449 6.31002 23.8658 6.20033 23.9024C6.18064 23.908 5.80939 24.0486 5.66314 24.4733C5.64345 24.5324 5.62095 24.5942 5.59845 24.6589C5.28908 25.5645 4.76876 27.0805 3.9222 27.8651C3.88282 27.9045 3.8322 27.9214 3.77876 27.9214Z" fill="#4E6262"/>
<path d="M5.19061 24.9823C5.38186 25.466 5.67717 26.4617 5.25249 27.2238C4.95999 27.7526 4.51843 28.1435 3.94468 28.391C3.745 28.4754 3.56218 28.5288 3.42156 28.5626C3.24156 28.0873 2.96594 27.0748 3.41312 26.172C3.66625 25.6601 4.20062 25.3507 4.60562 25.182C4.8278 25.0863 5.03311 25.0217 5.19061 24.9823ZM5.43811 24.4985C5.43811 24.4985 3.64093 24.7573 3.03625 25.9835C2.3275 27.4235 3.16562 29.0295 3.16562 29.0295C3.16562 29.0295 4.78843 28.9254 5.62092 27.4292C6.32123 26.1692 5.43811 24.4985 5.43811 24.4985Z" fill="#4E6262"/>
<path d="M24.3634 7.96143C24.3297 7.96143 24.3072 7.96143 24.3044 7.95862C24.1891 7.95018 24.1019 7.84893 24.1075 7.73362C24.1159 7.6183 24.2172 7.53112 24.3325 7.53674C24.3606 7.53955 24.9934 7.57049 25.4744 7.03612C25.5362 6.96862 25.6009 6.89549 25.6684 6.81956C26.605 5.7705 28.1772 4.0155 29.755 3.44175C29.8647 3.40238 29.9856 3.45863 30.025 3.56832C30.0644 3.678 30.0081 3.79894 29.8984 3.83832C28.4191 4.3755 26.8328 6.14737 25.9806 7.10081C25.9103 7.17956 25.8456 7.25268 25.7837 7.32018C25.2522 7.91362 24.5687 7.96143 24.3634 7.96143Z" fill="#4E6262"/>
<path d="M30.0165 2.41797C30.4327 2.41797 30.7815 2.47422 31.0065 2.52203C31.0037 2.78359 30.9812 3.19703 30.8884 3.66953C30.7955 4.13078 30.6549 4.55547 30.4665 4.93234C30.2359 5.39359 29.9349 5.79016 29.5721 6.10234C29.2768 6.35828 28.9056 6.54953 28.4668 6.66766C28.104 6.76609 27.6934 6.81672 27.249 6.81672C26.7934 6.81672 26.3912 6.76328 26.1325 6.71828C26.1297 6.00109 26.2478 4.20953 27.415 3.29828C27.8256 2.97766 28.2812 2.74141 28.7734 2.59516C29.1671 2.47703 29.5862 2.41797 30.0165 2.41797ZM30.0165 1.99609C29.2009 1.99609 28.1434 2.19016 27.1534 2.96641C25.4772 4.27984 25.7219 7.06422 25.7219 7.06422C25.7219 7.06422 26.3912 7.23859 27.249 7.23859C28.0815 7.23859 29.094 7.07266 29.8477 6.42016C31.6421 4.86766 31.4199 2.19297 31.4199 2.19297C31.4199 2.19297 30.8434 1.99609 30.0165 1.99609Z" fill="#4E6262"/>
<path d="M34.705 22.0492C34.66 22.0492 34.615 22.0351 34.5756 22.0042C33.0878 20.8454 30.2894 20.3729 28.7847 20.1198C28.6609 20.1001 28.5484 20.0804 28.4416 20.0607C27.3672 19.8751 26.9031 19.0257 26.8834 18.992C26.8272 18.8879 26.8665 18.7613 26.9706 18.7051C27.0719 18.6516 27.2012 18.6882 27.2547 18.7923C27.2715 18.8232 27.6484 19.4954 28.5119 19.6473C28.6187 19.667 28.7312 19.6839 28.855 19.7064C30.5031 19.9848 33.2622 20.4517 34.8344 21.6751C34.9272 21.7455 34.9441 21.8805 34.8709 21.9705C34.8316 22.0211 34.7697 22.0492 34.705 22.0492Z" fill="#4E6262"/>
<path d="M32.424 18.9273C32.8234 18.9273 33.2003 18.9891 33.5462 19.1157C34.1368 19.3266 34.6712 19.6416 35.1381 20.0466C35.5122 20.3729 35.844 20.7638 36.1197 21.2026C36.4122 21.6667 36.5837 22.0885 36.6765 22.3529C36.4909 22.471 36.2012 22.6398 35.8412 22.8057C35.2478 23.0814 34.3281 23.4076 33.3184 23.4076C32.874 23.4076 32.4437 23.3457 32.0359 23.222C31.5747 23.0814 31.1359 22.8198 30.7253 22.4429C30.3878 22.1307 30.0728 21.7398 29.7859 21.2841C29.4793 20.792 29.2712 20.3279 29.1587 20.041C29.7015 19.6866 31.0347 18.9273 32.424 18.9273ZM32.424 18.5054C30.4525 18.5054 28.6497 19.8751 28.6497 19.8751C28.6497 19.8751 29.6087 22.9239 31.9122 23.6242C32.3903 23.7704 32.8628 23.8295 33.3184 23.8295C35.439 23.8295 37.1687 22.5273 37.1687 22.5273C37.1687 22.5273 36.5275 19.7373 33.6897 18.7191C33.2706 18.5672 32.8431 18.5054 32.424 18.5054Z" fill="#4E6262"/>
</svg>
