<svg width="63" height="66" viewBox="0 0 63 66" fill="none" xmlns="http://www.w3.org/2000/svg">
<path d="M8.94499 48.84V61.885C8.94499 64.03 10.685 65.765 12.825 65.765H35.77C37.915 65.765 39.65 64.025 39.65 61.885V48.84C39.65 36.81 28.87 27.285 28.87 27.285H19.72C19.72 27.285 8.94499 36.81 8.94499 48.84Z" fill="#87CAED" fill-opacity="0.5"/>
<path d="M18.52 25.91C18.315 25.91 18.145 25.74 18.145 25.535V18.12C18.145 16.67 16.965 15.49 15.515 15.49H11.13C10.925 15.49 10.755 15.32 10.755 15.115C10.755 14.91 10.925 14.74 11.13 14.74H15.515C17.38 14.74 18.895 16.255 18.895 18.12V25.535C18.895 25.74 18.73 25.91 18.52 25.91Z" fill="#4E6262"/>
<path d="M11.125 15.485C10.92 15.485 10.75 15.315 10.75 15.11C10.75 12.195 11.885 9.45998 13.945 7.39999C16.005 5.33999 18.745 4.20499 21.655 4.20499H40.255C40.46 4.20499 40.63 4.37499 40.63 4.57999V12.1C40.63 12.305 40.46 12.475 40.255 12.475C40.05 12.475 39.88 12.305 39.88 12.1V4.95999H21.655C18.94 4.95999 16.39 6.01499 14.475 7.93499C12.56 9.84999 11.5 12.4 11.5 15.11C11.5 15.32 11.335 15.485 11.125 15.485Z" fill="#4E6262"/>
<path d="M27.675 25.91C27.47 25.91 27.3 25.74 27.3 25.535V19.08C27.3 15.025 30.6 11.725 34.65 11.725H40.255C40.46 11.725 40.63 11.895 40.63 12.1C40.63 12.305 40.46 12.475 40.255 12.475H34.65C31.01 12.475 28.05 15.435 28.05 19.08V25.535C28.05 25.74 27.88 25.91 27.675 25.91Z" fill="#4E6262"/>
<path d="M21.62 15.485H15.515C15.31 15.485 15.14 15.315 15.14 15.11C15.14 14.905 15.31 14.735 15.515 14.735H21.62C21.825 14.735 21.995 14.905 21.995 15.11C21.995 15.315 21.825 15.485 21.62 15.485Z" fill="#4E6262"/>
<path d="M34.57 64.39H11.625C9.27999 64.39 7.37 62.48 7.37 60.135V47.09C7.37 44.3 7.94499 41.41 9.07999 38.51C9.98499 36.195 11.245 33.865 12.825 31.585C15.515 27.705 18.245 25.275 18.275 25.25C18.345 25.19 18.43 25.155 18.525 25.155H27.675C27.765 25.155 27.855 25.19 27.925 25.25C27.95 25.275 30.685 27.705 33.375 31.585C34.955 33.865 36.215 36.195 37.12 38.51C38.255 41.41 38.83 44.3 38.83 47.09V60.135C38.825 62.48 36.915 64.39 34.57 64.39ZM18.665 25.91C18.145 26.385 15.775 28.645 13.43 32.03C11.885 34.26 10.655 36.535 9.77499 38.795C8.67499 41.605 8.12 44.4 8.12 47.09V60.135C8.12 62.07 9.68999 63.64 11.625 63.64H34.57C36.505 63.64 38.075 62.07 38.075 60.135V47.09C38.075 44.39 37.515 41.595 36.415 38.78C35.53 36.52 34.3 34.245 32.75 32.01C30.405 28.63 28.04 26.38 27.525 25.905H18.665V25.91Z" fill="#4E6262"/>
<path d="M47.48 4.95999C47.34 4.95999 47.2 4.87999 47.14 4.73999C47.055 4.54999 47.135 4.32999 47.325 4.24499L54.58 0.924991C54.77 0.839991 54.99 0.919991 55.075 1.10999C55.16 1.29999 55.08 1.51999 54.89 1.60499L47.635 4.92499C47.585 4.94499 47.53 4.95999 47.48 4.95999Z" fill="#4E6262"/>
<path d="M54.7099 15.785C54.6599 15.785 54.6049 15.775 54.5549 15.75L47.325 12.44C47.135 12.355 47.055 12.13 47.14 11.945C47.225 11.755 47.45 11.675 47.635 11.76L54.8649 15.07C55.0549 15.155 55.1349 15.38 55.0499 15.565C54.9849 15.705 54.8499 15.785 54.7099 15.785Z" fill="#4E6262"/>
<path d="M62.27 8.59H55.755C55.55 8.59 55.38 8.42 55.38 8.215C55.38 8.01 55.55 7.84 55.755 7.84H62.27C62.475 7.84 62.645 8.01 62.645 8.215C62.645 8.42 62.475 8.59 62.27 8.59Z" fill="#4E6262"/>
<path d="M30.845 22.65C30.835 22.65 30.83 22.65 30.82 22.65C30.615 22.635 30.455 22.46 30.47 22.255C30.77 17.33 32.7 15.18 32.89 14.98L35.46 11.87C35.59 11.71 35.83 11.69 35.99 11.82C36.15 11.95 36.17 12.19 36.04 12.35L33.46 15.475C33.455 15.485 33.445 15.49 33.44 15.5C33.42 15.52 31.51 17.545 31.22 22.31C31.21 22.495 31.045 22.65 30.845 22.65Z" fill="#4E6262"/>
<path d="M17.91 48.68C16.72 48.68 15.755 47.715 15.755 46.525C15.755 45.335 16.72 44.37 17.91 44.37C19.1 44.37 20.065 45.335 20.065 46.525C20.065 47.715 19.095 48.68 17.91 48.68ZM17.91 45.12C17.135 45.12 16.505 45.75 16.505 46.525C16.505 47.3 17.135 47.93 17.91 47.93C18.685 47.93 19.315 47.3 19.315 46.525C19.315 45.75 18.685 45.12 17.91 45.12Z" fill="white"/>
<path d="M29.455 57.9899C28.265 57.9899 27.3 57.0249 27.3 55.8349C27.3 54.6449 28.265 53.6799 29.455 53.6799C30.645 53.6799 31.61 54.6449 31.61 55.8349C31.61 57.0249 30.64 57.9899 29.455 57.9899ZM29.455 54.4299C28.68 54.4299 28.05 55.0599 28.05 55.8349C28.05 56.6099 28.68 57.2399 29.455 57.2399C30.23 57.2399 30.86 56.6099 30.86 55.8349C30.86 55.0599 30.23 54.4299 29.455 54.4299Z" fill="white"/>
<path d="M21.435 43.54C20.735 43.54 20.17 42.97 20.17 42.275C20.17 41.575 20.74 41.01 21.435 41.01C22.135 41.01 22.7 41.58 22.7 42.275C22.7 42.97 22.13 43.54 21.435 43.54ZM21.435 41.76C21.15 41.76 20.92 41.99 20.92 42.275C20.92 42.56 21.15 42.79 21.435 42.79C21.72 42.79 21.95 42.56 21.95 42.275C21.95 41.99 21.72 41.76 21.435 41.76Z" fill="white"/>
<path d="M6.11004 28.78C5.90504 28.78 5.73504 28.61 5.73504 28.405V25.13C5.73504 24.925 5.90504 24.755 6.11004 24.755C6.31504 24.755 6.48504 24.925 6.48504 25.13V28.405C6.48504 28.61 6.32004 28.78 6.11004 28.78Z" fill="#4E6262"/>
<path d="M7.26004 27.14H4.96004C4.75504 27.14 4.58504 26.97 4.58504 26.765C4.58504 26.56 4.75504 26.39 4.96004 26.39H7.26004C7.46504 26.39 7.63504 26.56 7.63504 26.765C7.63504 26.97 7.47004 27.14 7.26004 27.14Z" fill="#4E6262"/>
<path d="M2.51993 23.04C2.31493 23.04 2.14493 22.87 2.14493 22.665V17.11C2.14493 16.905 2.31493 16.735 2.51993 16.735C2.72493 16.735 2.89493 16.905 2.89493 17.11V22.665C2.89493 22.87 2.72993 23.04 2.51993 23.04Z" fill="#4E6262"/>
<path d="M4.20497 20.26H0.839973C0.634973 20.26 0.464973 20.09 0.464973 19.885C0.464973 19.68 0.634973 19.51 0.839973 19.51H4.20497C4.40997 19.51 4.57997 19.68 4.57997 19.885C4.57997 20.09 4.40997 20.26 4.20497 20.26Z" fill="#4E6262"/>
</svg>
