<svg width="16" height="16" viewBox="0 0 16 16" fill="none" xmlns="http://www.w3.org/2000/svg">
<path d="M12.1693 15.6029C12.0867 15.6029 12.0052 15.5861 11.93 15.5537C11.8548 15.5212 11.7878 15.4738 11.7334 15.4147L8.67571 12.086H2.69765C2.03748 12.0852 1.40458 11.8351 0.937802 11.3905C0.471023 10.9458 0.208479 10.343 0.207764 9.7143V3.19518C0.208479 2.56644 0.471023 1.96364 0.937802 1.51902C1.40458 1.0744 2.03748 0.824265 2.69765 0.823486H13.2363C13.8964 0.824265 14.5293 1.0744 14.9961 1.51902C15.4629 1.96364 15.7254 2.56644 15.7261 3.19518V9.7143C15.7254 10.343 15.4629 10.9458 14.9961 11.3905C14.5293 11.8351 13.8964 12.0852 13.2363 12.086H12.7483V15.0514C12.7483 15.1977 12.6873 15.338 12.5787 15.4414C12.4701 15.5448 12.3228 15.6029 12.1693 15.6029ZM2.69765 1.92643C2.34453 1.92691 2.00602 2.06075 1.75636 2.2986C1.50669 2.53644 1.36626 2.85887 1.36585 3.19518V9.7143C1.36626 10.0506 1.50669 10.373 1.75636 10.6109C2.00602 10.8487 2.34453 10.9826 2.69765 10.983H8.9382C9.02074 10.983 9.10233 10.9998 9.17749 11.0323C9.25266 11.0647 9.31967 11.1121 9.37403 11.1713L11.5902 13.5841V11.5345C11.5902 11.3883 11.6512 11.248 11.7598 11.1446C11.8684 11.0411 12.0157 10.983 12.1693 10.983H13.2343C13.5875 10.9826 13.926 10.8487 14.1756 10.6109C14.4253 10.373 14.5657 10.0506 14.5661 9.7143V3.19518C14.5657 2.85912 14.4255 2.53691 14.1762 2.29911C13.9268 2.06131 13.5887 1.9273 13.2359 1.92643H2.69765Z" fill="#91BF4B"/>
<path d="M5.82435 8.76468C5.67059 8.76442 5.52314 8.70643 5.414 8.60328C5.40087 8.59041 5.38813 8.57681 5.37539 8.56284C5.36343 8.54894 5.35222 8.53446 5.34181 8.51946C5.33126 8.50451 5.32161 8.48907 5.31286 8.47314C5.30398 8.45733 5.29587 8.44078 5.28854 8.42424C5.2812 8.40769 5.27503 8.39041 5.26924 8.3735C5.26345 8.35659 5.2592 8.33674 5.25534 8.32093C5.25148 8.30512 5.24878 8.28416 5.24685 8.26762C5.24498 8.24954 5.24408 8.23138 5.24414 8.21321C5.24407 8.19516 5.24497 8.17712 5.24685 8.15916C5.24878 8.14115 5.25186 8.1224 5.25534 8.10549C5.25881 8.08858 5.26383 8.06872 5.26924 8.05328C5.27464 8.03784 5.2812 8.01872 5.28854 8.00218C5.29587 7.98563 5.30398 7.96946 5.31286 7.95365C5.32168 7.93763 5.33134 7.92205 5.34181 7.90696C5.35223 7.89225 5.36343 7.87755 5.37539 7.86358C5.38736 7.84961 5.40049 7.836 5.414 7.82314C5.47479 7.76578 5.54806 7.72184 5.62864 7.69439C5.70921 7.66695 5.79512 7.65668 5.88032 7.66431C5.89924 7.66615 5.91892 7.66909 5.93668 7.6724C5.95444 7.67571 5.97528 7.68049 5.9915 7.68563C6.00771 7.69078 6.02778 7.69703 6.04515 7.70402C6.06253 7.711 6.07951 7.71872 6.09611 7.72718C6.11271 7.73563 6.12931 7.74483 6.14514 7.75475C6.16096 7.76468 6.17602 7.77534 6.19069 7.78674C6.20536 7.79813 6.21964 7.81063 6.23276 7.8235C6.24589 7.83637 6.25901 7.84997 6.27137 7.86394C6.28372 7.87791 6.29453 7.89262 6.30495 7.90733C6.31542 7.92242 6.32509 7.938 6.3339 7.95402C6.34291 7.96995 6.35102 7.98613 6.35822 8.00255C6.36556 8.01909 6.37174 8.03637 6.37753 8.05365C6.38332 8.07093 6.38756 8.08821 6.39142 8.10586C6.39528 8.1235 6.39798 8.14262 6.39991 8.15953C6.40185 8.17644 6.40262 8.1963 6.40262 8.21358C6.40262 8.23086 6.40262 8.25034 6.39991 8.26799C6.39721 8.28564 6.3949 8.30475 6.39142 8.3213C6.38795 8.33784 6.38293 8.35806 6.37753 8.37387C6.37212 8.38968 6.36556 8.40806 6.35822 8.42461C6.35089 8.44115 6.34278 8.45769 6.3339 8.4735C6.32503 8.48931 6.31537 8.50475 6.30495 8.51983C6.29453 8.5349 6.28295 8.54924 6.27137 8.56321C6.25979 8.57718 6.24628 8.59078 6.23276 8.60365C6.21925 8.61652 6.20536 8.62865 6.19069 8.64041C6.17602 8.65218 6.16058 8.66247 6.14514 8.6724C6.12969 8.68233 6.11271 8.69152 6.09611 8.69997C6.07951 8.70843 6.06253 8.71615 6.04515 8.72314C6.02778 8.73012 6.00964 8.736 5.9915 8.74152C5.97335 8.74703 5.95521 8.75108 5.93668 8.75475C5.91815 8.75843 5.89808 8.761 5.88032 8.76284C5.86256 8.76468 5.84326 8.76468 5.82435 8.76468Z" fill="#91BF4B"/>
<path d="M10.1092 8.76472C10.0903 8.76472 10.0706 8.76472 10.0525 8.76214C10.0343 8.75957 10.0139 8.75737 9.99611 8.75406C9.97835 8.75075 9.95751 8.74597 9.94091 8.74082C9.92431 8.73567 9.90501 8.72942 9.88763 8.72244C9.87026 8.71545 9.85328 8.70773 9.83668 8.69928C9.81986 8.69088 9.8035 8.68168 9.78765 8.6717C9.77221 8.66178 9.75677 8.65112 9.7421 8.63972C9.72743 8.62832 9.71315 8.61582 9.69964 8.60295C9.68613 8.59009 9.67339 8.57648 9.66103 8.56251C9.64868 8.54854 9.63787 8.53384 9.62745 8.51913C9.61698 8.50404 9.60732 8.48846 9.5985 8.47244C9.58949 8.45651 9.58138 8.44033 9.57418 8.42391C9.56684 8.40737 9.56067 8.39009 9.55488 8.37317C9.54909 8.35626 9.54484 8.33641 9.54098 8.3206C9.53712 8.30479 9.53442 8.28384 9.53249 8.26729C9.53056 8.25075 9.52979 8.23053 9.52979 8.21288C9.52979 8.19523 9.52979 8.17611 9.53249 8.15847C9.53519 8.14082 9.53751 8.1217 9.54098 8.10516C9.54445 8.08861 9.54947 8.06839 9.55488 8.05259C9.56028 8.03678 9.56684 8.01839 9.57418 8.00185C9.58151 7.98531 9.58962 7.96876 9.5985 7.95295C9.60738 7.93714 9.61703 7.9217 9.62745 7.90663C9.63786 7.89163 9.64907 7.87715 9.66103 7.86325C9.673 7.84928 9.68613 7.83567 9.69964 7.82281C9.71315 7.80994 9.72743 7.79781 9.7421 7.78604C9.75677 7.77428 9.77221 7.76398 9.78765 7.75406C9.8035 7.74408 9.81986 7.73488 9.83668 7.72648C9.85341 7.71815 9.87039 7.71043 9.88763 7.70332C9.90501 7.69634 9.92315 7.69045 9.94091 7.68494C9.95866 7.67942 9.97951 7.67538 9.99611 7.6717C10.0127 7.66803 10.0347 7.66545 10.0525 7.66361C10.0903 7.66031 10.1285 7.66031 10.1663 7.66361C10.1849 7.66545 10.205 7.66839 10.2223 7.6717C10.2397 7.67501 10.2609 7.67979 10.2775 7.68494C10.2941 7.69009 10.3134 7.69634 10.3308 7.70332C10.3482 7.71031 10.3652 7.71803 10.3818 7.72648C10.3986 7.73488 10.4149 7.74408 10.4308 7.75406C10.4462 7.76398 10.4617 7.77464 10.4763 7.78604C10.491 7.79744 10.5053 7.80994 10.5188 7.82281C10.5323 7.83567 10.545 7.84928 10.5574 7.86325C10.5694 7.87715 10.5806 7.89163 10.591 7.90663C10.6013 7.92183 10.6109 7.93727 10.6199 7.95295C10.6288 7.96876 10.6369 7.98531 10.6443 8.00185C10.6516 8.01839 10.6578 8.03567 10.6636 8.05259C10.6693 8.0695 10.6736 8.08935 10.6774 8.10516C10.6813 8.12097 10.684 8.14192 10.6859 8.15847C10.6896 8.19515 10.6896 8.23208 10.6859 8.26876C10.684 8.28641 10.6809 8.30553 10.6774 8.32207C10.674 8.33862 10.669 8.35884 10.6636 8.37464C10.6581 8.39045 10.6516 8.40884 10.6443 8.42538C10.6369 8.44192 10.6288 8.4581 10.6199 8.47391C10.6111 8.48993 10.6014 8.50551 10.591 8.5206C10.5806 8.53531 10.5694 8.55001 10.5574 8.56398C10.5454 8.57795 10.5323 8.59156 10.5188 8.60442C10.5053 8.61729 10.491 8.62942 10.4763 8.64119C10.4617 8.65295 10.4462 8.66325 10.4308 8.67317C10.4149 8.68315 10.3986 8.69235 10.3818 8.70075C10.365 8.70908 10.348 8.7168 10.3308 8.72391C10.3134 8.7309 10.2953 8.73678 10.2775 8.74229C10.2598 8.74781 10.2409 8.75185 10.2223 8.75553C10.2038 8.7592 10.1837 8.76178 10.1663 8.76362C10.149 8.76545 10.1281 8.76472 10.1092 8.76472Z" fill="#91BF4B"/>
<path d="M7.9665 8.76456C7.94755 8.76461 7.92861 8.76375 7.90975 8.76198C7.89084 8.76015 7.87115 8.75721 7.85339 8.7539C7.83563 8.75059 7.81672 8.74581 7.79858 8.74066C7.78043 8.73551 7.76267 8.72926 7.7453 8.72228C7.72793 8.71529 7.71056 8.70757 7.69396 8.69912C7.66054 8.68214 7.62887 8.6622 7.59938 8.63956C7.58471 8.62816 7.57043 8.61566 7.55731 8.60279C7.54373 8.58994 7.53085 8.57645 7.5187 8.56235C7.50674 8.54838 7.49516 8.53368 7.48473 8.51897C7.47426 8.50388 7.4646 8.4883 7.45578 8.47228C7.44703 8.45635 7.43892 8.44017 7.43146 8.42375C7.42451 8.40721 7.41795 8.38993 7.41255 8.37265C7.40692 8.3555 7.40228 8.33807 7.39865 8.32044C7.39108 8.28499 7.38733 8.2489 7.38745 8.21272C7.38739 8.19455 7.38829 8.17639 7.39016 8.15831C7.39204 8.14041 7.39488 8.12262 7.39865 8.105C7.40232 8.08726 7.40696 8.06971 7.41255 8.05243C7.41795 8.03551 7.42451 8.01823 7.43146 8.00169C7.43841 7.98515 7.4469 7.96897 7.45578 7.95316C7.4646 7.93714 7.47426 7.92156 7.48473 7.90647C7.49516 7.89176 7.50674 7.87706 7.5187 7.86309C7.53085 7.84899 7.54373 7.8355 7.55731 7.82265C7.57043 7.81015 7.58471 7.79765 7.59938 7.78588C7.62887 7.76324 7.66054 7.74329 7.69396 7.72632C7.71056 7.71787 7.72793 7.71015 7.7453 7.70316C7.76267 7.69618 7.78043 7.69029 7.79858 7.68478C7.81672 7.67926 7.83525 7.67522 7.85339 7.67154C7.87153 7.66787 7.89199 7.66529 7.90975 7.66346C7.94827 7.66003 7.98704 7.66003 8.02556 7.66346C8.04448 7.66529 8.06416 7.66823 8.08153 7.67154C8.09891 7.67485 8.12014 7.67963 8.13674 7.68478C8.15334 7.68993 8.17264 7.69618 8.19001 7.70316C8.20738 7.71015 8.22475 7.71787 8.24135 7.72632C8.25795 7.73478 8.27416 7.74397 8.28999 7.7539C8.30586 7.76381 8.3212 7.77449 8.33593 7.78588C8.3506 7.79728 8.36488 7.80978 8.37801 7.82265C8.39158 7.8355 8.40447 7.84899 8.41661 7.86309C8.42858 7.87706 8.43977 7.89176 8.45058 7.90647C8.46105 7.92156 8.47071 7.93714 8.47953 7.95316C8.48844 7.9689 8.49643 7.98511 8.50346 8.00169C8.51081 8.01828 8.51725 8.03521 8.52277 8.05243C8.52817 8.06971 8.5328 8.08919 8.53666 8.105C8.54044 8.12262 8.54327 8.14041 8.54516 8.15831C8.54702 8.17639 8.54792 8.19455 8.54786 8.21272C8.54798 8.2489 8.54423 8.28499 8.53666 8.32044C8.5328 8.33809 8.52817 8.35721 8.52277 8.37265C8.51731 8.39 8.51087 8.40706 8.50346 8.42375C8.49643 8.44033 8.48844 8.45653 8.47953 8.47228C8.47065 8.48809 8.461 8.5039 8.45058 8.51897C8.44016 8.53404 8.42858 8.54838 8.41661 8.56235C8.40447 8.57645 8.39158 8.58994 8.37801 8.60279C8.36488 8.61529 8.3506 8.62779 8.33593 8.63956C8.3212 8.65096 8.30586 8.66163 8.28999 8.67154C8.27429 8.68135 8.25808 8.69054 8.24135 8.69912C8.22475 8.70757 8.20738 8.71529 8.19001 8.72228C8.17264 8.72926 8.15488 8.73515 8.13674 8.74066C8.11859 8.74618 8.10006 8.75022 8.08153 8.7539C8.063 8.75757 8.04293 8.76015 8.02556 8.76198C8.00593 8.76382 7.98622 8.76468 7.9665 8.76456Z" fill="#91BF4B"/>
</svg>
