<svg width="66" height="60" viewBox="0 0 66 60" fill="none" xmlns="http://www.w3.org/2000/svg">
<path d="M35 0.904727L52.2197 32.5651C53.326 35.0474 53.8656 37.6646 53.8656 40.2602C53.8656 45.7591 51.4589 51.1339 47.0177 54.8034C43.5316 57.685 39.2685 59.1258 35.0054 59.1258C30.7423 59.1258 26.4792 57.685 22.9932 54.8034C16.4582 49.4016 14.332 40.3034 17.7911 32.5651L35 0.904727ZM35 0.0952759C34.7032 0.0952759 34.428 0.257165 34.2877 0.51619L17.0734 32.1765C17.0626 32.1927 17.0518 32.2143 17.0464 32.2305C16.1614 34.2163 15.611 36.3101 15.4113 38.4687C15.217 40.5732 15.3681 42.6832 15.8484 44.7446C16.3287 46.806 17.1327 48.7595 18.239 50.5618C19.3722 52.4074 20.7968 54.0425 22.4697 55.4294C22.4805 55.4401 22.4913 55.4455 22.5021 55.4563C24.2775 56.9187 26.2741 58.0466 28.4327 58.8129C30.5426 59.5629 32.7551 59.9407 35 59.9407C37.2449 59.9407 39.4574 59.5629 41.5674 58.8129C43.7367 58.0466 45.7441 56.9079 47.5303 55.4294C48.6689 54.485 49.705 53.4165 50.6008 52.2509C51.4804 51.1069 52.2305 49.8657 52.8403 48.5598C53.4393 47.2647 53.9034 45.9048 54.211 44.5126C54.5186 43.1203 54.6751 41.6903 54.6751 40.2602C54.6751 37.4865 54.0977 34.783 52.959 32.2359C52.9483 32.2143 52.9429 32.1981 52.9321 32.1819L35.7123 0.51619C35.5666 0.257165 35.2968 0.0952759 35 0.0952759Z" fill="#4E6262"/>
<path d="M38.6533 54.5875C38.486 54.5875 38.3295 54.485 38.2702 54.3177C38.1946 54.1073 38.3079 53.8752 38.5184 53.7997C40.5528 53.0766 42.4361 52.0135 44.109 50.6266C46.2999 48.8189 48.0645 46.493 49.2193 43.9028C49.311 43.6977 49.5485 43.606 49.7535 43.6977C49.9586 43.7895 50.0503 44.0269 49.9586 44.232C48.7552 46.9355 46.9151 49.3639 44.627 51.2526C42.8786 52.6988 40.9144 53.8105 38.7882 54.566C38.745 54.5821 38.7019 54.5875 38.6533 54.5875Z" fill="#4E6262"/>
<path d="M14.8986 22.1717C14.6774 22.1717 14.4939 21.9883 14.4939 21.767V18.2324C14.4939 18.0111 14.6774 17.8277 14.8986 17.8277C15.1199 17.8277 15.3033 18.0111 15.3033 18.2324V21.767C15.3033 21.9936 15.1199 22.1717 14.8986 22.1717Z" fill="#4E6262"/>
<path d="M16.1398 20.4071H13.6575C13.4362 20.4071 13.2527 20.2237 13.2527 20.0024C13.2527 19.7812 13.4362 19.5977 13.6575 19.5977H16.1398C16.361 19.5977 16.5445 19.7812 16.5445 20.0024C16.5445 20.2237 16.361 20.4071 16.1398 20.4071Z" fill="#4E6262"/>
<path d="M18.3037 16.9103C18.0825 16.9103 17.899 16.7268 17.899 16.5055V10.5102C17.899 10.2889 18.0825 10.1055 18.3037 10.1055C18.525 10.1055 18.7084 10.2889 18.7084 10.5102V16.5055C18.7084 16.7268 18.525 16.9103 18.3037 16.9103Z" fill="#4E6262"/>
<path d="M20.1169 13.9099H16.4852C16.2639 13.9099 16.0804 13.7264 16.0804 13.5052C16.0804 13.2839 16.2639 13.1004 16.4852 13.1004H20.1169C20.3382 13.1004 20.5216 13.2839 20.5216 13.5052C20.5216 13.7264 20.3436 13.9099 20.1169 13.9099Z" fill="#4E6262"/>
<path d="M58.5604 34.961C58.3392 34.961 58.1557 34.7776 58.1557 34.5563V28.561C58.1557 28.3397 58.3392 28.1562 58.5604 28.1562C58.7817 28.1562 58.9652 28.3397 58.9652 28.561V34.5563C58.9652 34.783 58.7817 34.961 58.5604 34.961Z" fill="#4E6262"/>
<path d="M60.3736 31.9661H56.7419C56.5206 31.9661 56.3372 31.7826 56.3372 31.5613C56.3372 31.3401 56.5206 31.1566 56.7419 31.1566H60.3736C60.5949 31.1566 60.7783 31.3401 60.7783 31.5613C60.7783 31.7826 60.6003 31.9661 60.3736 31.9661Z" fill="#4E6262"/>
<path d="M28.4326 45.3922C31.5032 44.0269 32.9386 40.5409 31.6381 37.6161C30.3376 34.6966 26.7868 33.4285 23.7162 34.7938C23.236 35.0096 22.7287 35.382 22.1891 35.9108C22.6046 34.9772 22.8151 34.1732 22.8151 33.5148C22.8151 30.1583 20.214 27.4224 17.014 27.4224C13.814 27.4224 11.2129 30.1529 11.2129 33.5148C11.2129 34.2541 11.4773 35.1661 12.0008 36.2508C11.3424 35.5331 10.7219 35.0474 10.1444 34.7884C8.66045 34.13 7.01996 34.0545 5.53057 34.5887C4.03039 35.1229 2.85399 36.1968 2.22262 37.6161C0.922097 40.5355 2.36292 44.0269 5.42804 45.3922C6.02704 45.662 6.84188 45.7915 7.86179 45.7915C8.13161 45.7915 8.41762 45.7807 8.71981 45.7645C7.87798 46.1962 7.25201 46.6495 6.85807 47.1298C4.71033 49.7146 4.96396 53.4759 7.42469 55.5211C8.4392 56.3629 9.69655 56.8108 11.0187 56.8108C11.2507 56.8108 11.4881 56.7946 11.7256 56.7677C13.3013 56.5788 14.7367 55.7909 15.7728 54.5444C16.2585 53.9562 16.6524 53.0442 16.9492 51.8084C17.246 53.0442 17.64 53.9616 18.1256 54.5444C19.3614 56.0338 21.1314 56.8054 22.8744 56.8054C24.1587 56.8054 25.4323 56.3845 26.4792 55.5157C28.9399 53.4705 29.1935 49.7093 27.0458 47.1244C26.6519 46.6495 26.0259 46.1908 25.1894 45.7645C25.4701 45.7807 25.7345 45.7915 25.9881 45.7915C27.0188 45.7915 27.8283 45.6566 28.4326 45.3922Z" fill="#D6CAEA"/>
<path d="M21.2394 44.7015V44.7069C21.2394 44.7069 21.2394 44.7123 21.234 44.7123C21.1476 44.9497 21.0343 45.1818 20.9102 45.403C20.1115 46.7845 18.6761 47.6371 17.0788 47.6803C17.0032 47.6803 16.9223 47.6803 16.8467 47.6803C16.0966 47.6587 15.3465 47.4482 14.6936 47.0705C13.7762 46.5416 13.0693 45.7052 12.7023 44.7123C12.7023 44.7069 12.6969 44.7069 12.6969 44.7015C12.6969 44.6961 12.6969 44.6907 12.6915 44.6907C12.2274 43.4225 12.3516 42.0195 13.0261 40.8539C13.2905 40.3952 13.6305 39.9905 14.0352 39.6505C14.1 39.5965 14.1432 39.5264 14.1647 39.4508C14.2403 39.4508 14.3212 39.4292 14.3914 39.3807C15.8322 38.3931 17.7371 38.3176 19.2481 39.1918C19.3722 39.262 19.4963 39.3429 19.6205 39.4292C19.6636 39.4616 19.7176 39.4832 19.7662 39.494C19.7931 39.5426 19.8255 39.5857 19.8687 39.6235C21.3581 40.8431 21.9085 42.8883 21.2394 44.7015Z" fill="white"/>
<path d="M18.5466 37.7995C18.4602 37.7995 18.3793 37.7725 18.3091 37.724C18.1904 37.6376 18.0663 37.5567 17.9368 37.4865C16.4258 36.6123 14.5209 36.6879 13.0801 37.6754C12.8966 37.7995 12.6484 37.7564 12.5189 37.5729C10.7921 35.096 9.91785 33.1587 9.91785 31.8204C9.91785 28.4639 12.5189 25.7279 15.7189 25.7279C18.9189 25.7279 21.52 28.4585 21.52 31.8204C21.52 33.1749 20.6296 35.1283 18.8812 37.6268C18.8218 37.7132 18.7247 37.7725 18.6167 37.7941C18.5898 37.7941 18.5682 37.7995 18.5466 37.7995ZM18.3469 36.785C18.3793 36.8012 18.4117 36.8228 18.4387 36.839C19.9226 34.6642 20.7105 32.932 20.7105 31.8204C20.7105 28.9064 18.471 26.5374 15.7189 26.5374C12.9668 26.5374 10.7273 28.9064 10.7273 31.8204C10.7273 32.9266 11.499 34.6373 12.9668 36.7958C14.6127 35.8353 16.6848 35.8245 18.3469 36.785Z" fill="#4E6262"/>
<path d="M24.693 44.0917C23.4896 44.0917 22.0002 43.9082 20.2302 43.5358C20.1169 43.5142 20.0144 43.4387 19.9604 43.3362C19.901 43.2336 19.8956 43.1095 19.9334 43.0016C20.6026 41.1884 20.0521 39.1432 18.5574 37.9182C18.4009 37.7887 18.3631 37.5621 18.471 37.3894C19.928 35.0528 21.2555 33.6119 22.4103 33.0939C25.4809 31.7286 29.0317 32.9968 30.3322 35.9162C31.6327 38.8356 30.1919 42.327 27.1267 43.6923C26.5278 43.9567 25.7129 44.0917 24.693 44.0917ZM20.84 42.8343C24.3908 43.5358 26.0421 43.293 26.7976 42.953C29.458 41.7712 30.7153 38.7601 29.5929 36.2454C28.4758 33.7307 25.3999 32.6514 22.7395 33.8332C21.7898 34.2541 20.6188 35.5277 19.3398 37.5243C20.786 38.8842 21.3581 40.9294 20.84 42.8343Z" fill="#4E6262"/>
<path d="M6.57207 44.0916C5.55217 44.0916 4.73732 43.9567 4.13833 43.6923C1.06782 42.327 -0.367608 38.841 0.932908 35.9162C1.56428 34.4969 2.74068 33.4231 4.24086 32.8888C5.73564 32.36 7.37073 32.4301 8.85472 33.0885C10.0149 33.6065 11.3478 35.0636 12.8156 37.4164C12.9236 37.589 12.8858 37.8103 12.7347 37.9398C12.33 38.2798 11.99 38.6845 11.7256 39.1432C11.051 40.3142 10.9269 41.7118 11.391 42.98C11.4288 43.0879 11.4234 43.212 11.364 43.3146C11.3047 43.4171 11.2075 43.4926 11.0942 43.5142C9.29722 43.9028 7.79164 44.0916 6.57207 44.0916ZM6.28067 33.3529C5.68168 33.3529 5.08269 33.4555 4.51067 33.6551C3.22095 34.1138 2.21184 35.0312 1.6722 36.2454C0.555163 38.7601 1.80711 41.7658 4.4675 42.953C5.55217 43.4387 7.62975 43.3901 10.4898 42.8235C10.1175 41.4528 10.3063 39.9904 11.024 38.7493C11.2777 38.3122 11.5853 37.9128 11.9468 37.5675C10.6571 35.5492 9.48069 34.2649 8.52554 33.8386C7.80244 33.5148 7.03616 33.3529 6.28067 33.3529Z" fill="#4E6262"/>
<path d="M9.72893 55.1056C8.40143 55.1056 7.14947 54.6577 6.13496 53.8159C4.94237 52.823 4.22465 51.4037 4.12212 49.8118C4.01959 48.2307 4.53225 46.6711 5.56834 45.4246C6.39398 44.4316 8.19097 43.5358 10.9107 42.7588C11.1158 42.6994 11.3262 42.8073 11.4018 43.007C11.7687 43.9999 12.4757 44.8364 13.393 45.3652C14.0514 45.743 14.7961 45.9534 15.5462 45.975C15.7566 45.9804 15.9239 46.1423 15.9401 46.3473C15.9725 46.8006 16.0157 47.2378 16.0642 47.6533C16.0696 47.6857 16.0696 47.718 16.0642 47.745C15.7782 50.2111 15.244 51.9218 14.4885 52.8338C13.4524 54.0803 12.0116 54.8736 10.4412 55.0571C10.1984 55.0948 9.96097 55.1056 9.72893 55.1056ZM10.7812 43.6384C8.4446 44.3345 6.86347 45.1278 6.18892 45.9426C5.28234 47.0327 4.83444 48.3872 4.92618 49.7579C5.01792 51.1231 5.6277 52.3427 6.64761 53.1899C7.66752 54.0372 8.97883 54.4203 10.3387 54.2584C11.704 54.0965 12.9559 53.4058 13.8625 52.3211C14.5047 51.5494 14.985 49.9521 15.2548 47.7018C15.2224 47.3996 15.19 47.0867 15.163 46.7629C14.4022 46.6927 13.6575 46.4553 12.9883 46.0667C12.0116 45.5109 11.2399 44.6529 10.7812 43.6384Z" fill="#4E6262"/>
<path d="M21.5847 55.1056C19.8363 55.1056 18.0717 54.3286 16.8359 52.8446C16.0805 51.9326 15.5462 50.2219 15.2602 47.7558C15.2548 47.7234 15.2548 47.691 15.2602 47.6641C15.3088 47.2485 15.3519 46.8114 15.3843 46.3582C15.4005 46.1531 15.5678 45.9912 15.7783 45.9858C17.381 45.948 18.811 45.0954 19.6097 43.7085C19.7338 43.4873 19.8471 43.2552 19.9334 43.0178C20.009 42.8181 20.2195 42.7102 20.4245 42.7696C23.1389 43.5466 24.9305 44.4424 25.7507 45.43C26.7868 46.6765 27.3049 48.2361 27.1969 49.8172C27.0944 51.4037 26.3767 52.8284 25.1841 53.8213C24.1426 54.6847 22.8691 55.1056 21.5847 55.1056ZM16.0643 47.7018C16.3341 49.9521 16.8144 51.5494 17.4565 52.3211C19.3183 54.5606 22.5561 54.9492 24.6714 53.1899C25.6913 52.3427 26.3065 51.1231 26.3929 49.7579C26.4846 48.3872 26.0367 47.0273 25.1301 45.9426C24.4556 45.1332 22.8745 44.3399 20.5486 43.6438C20.4785 43.8003 20.3975 43.9568 20.3112 44.1079C19.4316 45.6296 17.899 46.6064 16.1614 46.7683C16.1344 47.0867 16.102 47.3996 16.0643 47.7018Z" fill="#4E6262"/>
<path d="M15.6595 48.1065C15.4544 48.1065 15.2818 47.9554 15.2602 47.7504C15.2116 47.324 15.1684 46.8762 15.1307 46.4121C15.1199 46.2987 15.163 46.1854 15.2386 46.1045C15.3195 46.0235 15.4275 45.975 15.5408 45.9804C15.6163 45.9804 15.6919 45.9804 15.7728 45.9804C15.8862 45.9804 15.9995 46.0235 16.075 46.1045C16.156 46.1854 16.1937 46.2987 16.1829 46.4121C16.1506 46.8762 16.1074 47.324 16.0534 47.7504C16.0372 47.9554 15.8646 48.1065 15.6595 48.1065Z" fill="#4E6262"/>
<path d="M15.7135 36.8713C15.4869 36.8713 15.3088 36.6879 15.3088 36.4666L15.325 31.5344C15.325 31.3131 15.5084 31.1296 15.7297 31.1296C15.9509 31.1296 16.1344 31.3131 16.1344 31.5344L16.1182 36.4666C16.1182 36.6933 15.9402 36.8713 15.7135 36.8713Z" fill="#4E6262"/>
<path d="M10.533 40.0498C10.4953 40.0498 10.4575 40.0444 10.4197 40.0337L6.39944 38.8626C6.18359 38.7979 6.05948 38.5766 6.12423 38.3608C6.18899 38.1449 6.41024 38.0208 6.62609 38.0855L10.6463 39.2566C10.8622 39.3213 10.9863 39.5426 10.9216 39.7584C10.873 39.9311 10.7111 40.0498 10.533 40.0498Z" fill="#4E6262"/>
<path d="M10.0419 49.7147C9.96638 49.7147 9.89083 49.6931 9.82068 49.6499C9.63181 49.5258 9.58324 49.2776 9.70196 49.0887L12.2652 45.1817C12.3893 44.9929 12.6376 44.9443 12.8264 45.063C13.0153 45.1871 13.0639 45.4354 12.9451 45.6242L10.3819 49.5312C10.301 49.6553 10.1714 49.7147 10.0419 49.7147Z" fill="#4E6262"/>
<path d="M21.5145 49.6229C21.3904 49.6229 21.2717 49.5689 21.1908 49.4664L18.5358 46.0074C18.4009 45.8293 18.4332 45.5756 18.6113 45.4407C18.7894 45.3058 19.043 45.3382 19.1779 45.5163L21.8329 48.9753C21.9678 49.1534 21.9355 49.4071 21.7574 49.542C21.6872 49.5959 21.6009 49.6229 21.5145 49.6229Z" fill="#4E6262"/>
<path d="M20.7645 40.1955C20.5972 40.1955 20.4407 40.093 20.3813 39.9257C20.3058 39.7152 20.4137 39.4832 20.6242 39.4076L24.6283 37.9668C24.8387 37.8913 25.0708 37.9992 25.1463 38.2096C25.2219 38.4201 25.1139 38.6521 24.9035 38.7277L20.8994 40.1685C20.8616 40.1847 20.813 40.1955 20.7645 40.1955Z" fill="#4E6262"/>
<path d="M63.6115 15.5396C65.2627 14.8057 66.0398 12.9224 65.3383 11.3521C64.6368 9.77633 62.7211 9.09639 61.0698 9.83029C60.8108 9.94362 60.5355 10.1487 60.2495 10.4347C60.4762 9.92743 60.5895 9.50112 60.5895 9.14496C60.5895 7.33718 59.1865 5.86398 57.465 5.86398C55.7436 5.86398 54.3405 7.33718 54.3405 9.14496C54.3405 9.54429 54.4808 10.0354 54.7668 10.6182C54.4107 10.235 54.0761 9.9706 53.7685 9.83029C52.9699 9.47414 52.0848 9.43636 51.2808 9.72237C50.4713 10.0084 49.84 10.5858 49.5 11.3521C48.7985 12.9278 49.5755 14.8057 51.2268 15.5396C51.5506 15.6853 51.9877 15.7555 52.5381 15.7555C52.6838 15.7555 52.8403 15.7501 52.9968 15.7393C52.5435 15.9713 52.2036 16.2196 51.9931 16.4732C50.8383 17.8654 50.9732 19.8945 52.2953 20.9953C52.8403 21.4486 53.5203 21.6915 54.2326 21.6915C54.3567 21.6915 54.4862 21.6861 54.6157 21.6699C55.463 21.5673 56.24 21.141 56.7959 20.4719C57.0603 20.1589 57.2707 19.6624 57.4272 18.9987C57.5891 19.6624 57.7996 20.1589 58.0586 20.4719C58.7278 21.2759 59.6775 21.6915 60.6219 21.6915C61.3126 21.6915 62.0034 21.4648 62.5646 20.9953C63.8921 19.8945 64.027 17.8654 62.8668 16.4732C62.6509 16.2142 62.3163 15.9713 61.863 15.7393C62.0141 15.7501 62.1598 15.7555 62.2948 15.7555C62.8506 15.7555 63.2877 15.6799 63.6115 15.5396Z" fill="#D6CAEA"/>
<path d="M59.7369 15.1618C59.7369 15.1672 59.7369 15.1672 59.7369 15.1618C59.7369 15.1672 59.7369 15.1672 59.7315 15.1672C59.683 15.2968 59.6236 15.4209 59.5588 15.5396C59.1271 16.2843 58.3554 16.743 57.492 16.7646C57.4488 16.7646 57.4057 16.7646 57.3679 16.7646C56.9632 16.7538 56.5584 16.6404 56.2077 16.4354C55.7112 16.1494 55.3335 15.6961 55.1338 15.1618V15.1565V15.1511C54.8856 14.4657 54.9503 13.7102 55.3119 13.0843C55.4576 12.836 55.6357 12.6148 55.8569 12.4367C55.8893 12.4097 55.9163 12.372 55.9271 12.3288C55.9702 12.3288 56.0134 12.318 56.0512 12.291C56.8283 11.7568 57.8536 11.719 58.6684 12.1885C58.7386 12.2263 58.8033 12.2694 58.8681 12.318C58.8897 12.3342 58.9167 12.345 58.949 12.3504C58.9598 12.3773 58.9814 12.3989 59.003 12.4205C59.7963 13.0843 60.0985 14.1851 59.7369 15.1618Z" fill="white"/>
<path d="M57.8535 11.3628C57.7671 11.3628 57.6862 11.3359 57.616 11.2873C57.5567 11.2441 57.4919 11.2064 57.4326 11.1686C56.6825 10.7315 55.7327 10.7693 55.015 11.2657C54.8315 11.3898 54.5833 11.3467 54.4538 11.1632C53.4986 9.79791 53.0184 8.71864 53.0184 7.95236C53.0184 6.03666 54.5024 4.48251 56.3317 4.48251C58.1611 4.48251 59.6451 6.03666 59.6451 7.95236C59.6451 8.71864 59.154 9.8087 58.1881 11.1902C58.1287 11.2765 58.0316 11.3413 57.9236 11.3575C57.8967 11.3575 57.8751 11.3628 57.8535 11.3628ZM56.2993 10.0569C56.7904 10.0569 57.2869 10.1757 57.7348 10.4131C58.4417 9.35001 58.8302 8.4866 58.8302 7.95236C58.8302 6.48456 57.7078 5.29196 56.3263 5.29196C54.9449 5.29196 53.8224 6.48456 53.8224 7.95236C53.8224 8.4812 54.2056 9.33383 54.9017 10.3861C55.3388 10.1649 55.8191 10.0569 56.2993 10.0569Z" fill="#4E6262"/>
<path d="M61.1615 14.7518C60.4977 14.7518 59.6829 14.6492 58.7223 14.4496C58.609 14.428 58.5064 14.3524 58.4525 14.2499C58.3931 14.1474 58.3877 14.0233 58.4255 13.9153C58.7601 13.0141 58.4849 11.9942 57.7402 11.3844C57.5837 11.2549 57.5459 11.0283 57.6538 10.8556C58.4579 9.56588 59.2026 8.76183 59.8609 8.47042C61.6094 7.69335 63.633 8.41646 64.3777 10.0839C65.1224 11.7514 64.3022 13.7426 62.5537 14.5197C62.2084 14.6762 61.7443 14.7518 61.1615 14.7518ZM59.3159 13.7426C60.6866 13.9963 61.7119 14.0125 62.2245 13.7804C63.5629 13.1868 64.1996 11.6758 63.6384 10.4131C63.0772 9.15036 61.5284 8.61073 60.1901 9.20972C59.8663 9.35542 59.3159 9.78713 58.5226 11.0013C59.2188 11.7298 59.5156 12.7551 59.3159 13.7426Z" fill="#4E6262"/>
<path d="M51.3995 14.7517C50.8221 14.7517 50.358 14.6762 50.0072 14.5197C49.1654 14.1473 48.507 13.4782 48.1617 12.6472C47.8109 11.8053 47.8217 10.8988 48.1833 10.0839C48.928 8.41644 50.9516 7.68794 52.7 8.47041C53.3637 8.76721 54.1084 9.57126 54.9179 10.8772C55.0258 11.0499 54.988 11.2711 54.8369 11.4006C54.6372 11.5679 54.47 11.773 54.3351 11.9996C54.0005 12.5824 53.9411 13.2785 54.1678 13.9099C54.2055 14.0178 54.2001 14.142 54.1408 14.2445C54.0814 14.347 53.9843 14.4226 53.871 14.4441C52.8996 14.6492 52.074 14.7517 51.3995 14.7517ZM51.243 8.96687C50.2554 8.96687 49.3327 9.50111 48.9279 10.4131C48.6581 11.0175 48.6527 11.7028 48.9172 12.3342C49.1816 12.9763 49.6888 13.489 50.3418 13.7804C50.8598 14.0124 51.8959 13.9963 53.2828 13.7318C53.1371 13.0033 53.2558 12.2424 53.6335 11.5895C53.7523 11.3844 53.8926 11.1902 54.0544 11.0229C53.2504 9.79251 52.7 9.35541 52.3708 9.20971C52.0038 9.04242 51.6207 8.96687 51.243 8.96687Z" fill="#4E6262"/>
<path d="M53.0993 20.6932C52.3438 20.6932 51.6207 20.4395 51.0433 19.9539C50.358 19.3872 49.9532 18.5724 49.8885 17.6658C49.8291 16.7646 50.1205 15.8796 50.7141 15.1673C51.1836 14.6061 52.1819 14.0988 53.6875 13.6725C53.8926 13.6131 54.1031 13.7211 54.1786 13.9207C54.3621 14.4118 54.7129 14.8327 55.1715 15.0971C55.5007 15.286 55.8677 15.3885 56.2454 15.3993C56.4559 15.4047 56.6232 15.5666 56.6394 15.7717C56.6555 16.0145 56.6771 16.2466 56.7041 16.4678C56.7095 16.5002 56.7095 16.5326 56.7041 16.5595C56.5422 17.9464 56.2508 18.8746 55.8137 19.398C55.2255 20.105 54.4053 20.5582 53.5095 20.6608C53.3638 20.6824 53.2288 20.6932 53.0993 20.6932ZM53.5688 14.5467C52.1442 14.9892 51.5668 15.4047 51.3347 15.6853C50.876 16.2358 50.6494 16.9211 50.6979 17.6118C50.7411 18.2972 51.0487 18.907 51.5614 19.3333C52.074 19.7596 52.727 19.9485 53.4123 19.8675C54.1031 19.7866 54.7344 19.4358 55.1877 18.8908C55.4144 18.621 55.7166 17.9896 55.8947 16.5218C55.8839 16.4138 55.8731 16.3005 55.8623 16.1818C55.4791 16.1278 55.1068 15.9983 54.7722 15.8041C54.2542 15.5019 53.8386 15.0648 53.5688 14.5467Z" fill="#4E6262"/>
<path d="M59.494 20.6931C59.3591 20.6931 59.2242 20.6878 59.0893 20.6716C58.1935 20.5636 57.3733 20.1157 56.7851 19.4088C56.348 18.88 56.0566 17.9518 55.8947 16.5703C55.8893 16.5379 55.8893 16.5056 55.8947 16.4786C55.9217 16.2573 55.9432 16.0253 55.9594 15.7825C55.9756 15.5774 56.1429 15.4155 56.3534 15.4101C57.152 15.3885 57.8643 14.9676 58.2637 14.2769C58.3284 14.1689 58.3824 14.0502 58.4256 13.9315C58.5011 13.7318 58.7116 13.6239 58.9166 13.6833C60.4168 14.115 61.4151 14.6168 61.8792 15.1781C62.4674 15.885 62.7588 16.7754 62.7048 17.6766C62.6455 18.5832 62.2354 19.398 61.55 19.9646C60.9672 20.4341 60.2495 20.6931 59.494 20.6931ZM56.7041 16.511C56.8822 17.9788 57.1844 18.6102 57.411 18.88C57.8697 19.4304 58.5011 19.7758 59.1864 19.8567C59.8664 19.9377 60.5247 19.7488 61.0374 19.3225C61.55 18.8962 61.8522 18.2864 61.9008 17.601C61.944 16.9103 61.7173 16.225 61.264 15.6745C61.032 15.3939 60.4546 14.9838 59.0353 14.5413C59.0138 14.5791 58.9922 14.6222 58.9706 14.66C58.4903 15.4911 57.6755 16.0361 56.7473 16.1656C56.7257 16.2897 56.7149 16.403 56.7041 16.511Z" fill="#4E6262"/>
<path d="M56.294 16.9211C56.0889 16.9211 55.9162 16.77 55.8947 16.5649C55.8677 16.3329 55.8461 16.09 55.8245 15.8364C55.8137 15.7231 55.8569 15.6098 55.9324 15.5288C56.0134 15.4479 56.1213 15.3993 56.2346 15.4047C56.2724 15.4047 56.3102 15.4047 56.3479 15.4047C56.4612 15.4047 56.5746 15.4479 56.6501 15.5288C56.731 15.6098 56.7688 15.7231 56.758 15.8364C56.7364 16.09 56.7149 16.3329 56.6879 16.5649C56.6717 16.7646 56.499 16.9211 56.294 16.9211Z" fill="#4E6262"/>
<path d="M56.3264 10.861C56.0997 10.861 55.9216 10.6775 55.9216 10.4562L55.927 7.80124C55.927 7.57999 56.1105 7.39651 56.3318 7.39651C56.553 7.39651 56.7365 7.57999 56.7365 7.80124L56.7311 10.4562C56.7311 10.6829 56.5476 10.861 56.3264 10.861Z" fill="#4E6262"/>
<path d="M53.531 12.5716C53.4932 12.5716 53.4555 12.5662 53.4177 12.5554L51.2538 11.9241C51.0379 11.8593 50.9138 11.6381 50.9785 11.4222C51.0433 11.2064 51.2645 11.0822 51.4804 11.147L53.6443 11.7784C53.8602 11.8431 53.9843 12.0644 53.9195 12.2802C53.871 12.4583 53.7091 12.5716 53.531 12.5716Z" fill="#4E6262"/>
<path d="M53.2666 17.7845C53.1911 17.7845 53.1155 17.7629 53.0454 17.7197C52.8565 17.5956 52.8079 17.3474 52.9266 17.1585L54.3081 15.0539C54.4322 14.8651 54.6805 14.8165 54.8693 14.9352C55.0582 15.0593 55.1068 15.3076 54.9881 15.4964L53.6066 17.601C53.531 17.7197 53.4015 17.7845 53.2666 17.7845Z" fill="#4E6262"/>
<path d="M59.4509 17.7359C59.3267 17.7359 59.208 17.6819 59.1271 17.5794L57.697 15.7123C57.5621 15.5342 57.5945 15.2806 57.7726 15.1457C57.9507 15.0108 58.2043 15.0431 58.3392 15.2212L59.7693 17.0883C59.9042 17.2664 59.8718 17.52 59.6937 17.6549C59.6235 17.7089 59.5372 17.7359 59.4509 17.7359Z" fill="#4E6262"/>
<path d="M59.0515 12.6526C58.8842 12.6526 58.7277 12.55 58.6684 12.3828C58.5928 12.1723 58.7008 11.9403 58.9112 11.8647L61.0698 11.0876C61.2802 11.0121 61.5123 11.12 61.5878 11.3305C61.6634 11.5409 61.5554 11.773 61.345 11.8485L59.1864 12.6256C59.1433 12.6472 59.0947 12.6526 59.0515 12.6526Z" fill="#4E6262"/>
</svg>
