<svg width="72" height="67" viewBox="0 0 72 67" fill="none" xmlns="http://www.w3.org/2000/svg">
<path d="M48.5005 55.283L41.5461 42.4982L34.5917 55.283C33.1951 58.411 34.0523 62.0841 36.6922 64.2641C39.508 66.5917 43.5785 66.5917 46.3943 64.2641C48.1883 62.7824 49.1591 60.6137 49.1591 58.394C49.1648 57.3437 48.949 56.2878 48.5005 55.283Z" fill="#6ACBB9" fill-opacity="0.5"/>
<path d="M14.4153 23.4856C14.1826 23.4856 13.9895 23.2926 13.9895 23.0598V19.3413C13.9895 19.1086 14.1826 18.9156 14.4153 18.9156C14.6481 18.9156 14.8411 19.1086 14.8411 19.3413V23.0598C14.8411 23.2926 14.6481 23.4856 14.4153 23.4856Z" fill="#4E6262"/>
<path d="M15.721 21.6235H13.1096C12.8768 21.6235 12.6838 21.4305 12.6838 21.1978C12.6838 20.965 12.8768 20.772 13.1096 20.772H15.721C15.9538 20.772 16.1468 20.965 16.1468 21.1978C16.1468 21.4305 15.9538 21.6235 15.721 21.6235Z" fill="#4E6262"/>
<path d="M10.3392 16.9683C10.1064 16.9683 9.91342 16.7753 9.91342 16.5425V10.2296C9.91342 9.99685 10.1064 9.80383 10.3392 9.80383C10.5719 9.80383 10.765 9.99685 10.765 10.2296V16.5369C10.765 16.7753 10.5719 16.9683 10.3392 16.9683Z" fill="#4E6262"/>
<path d="M12.2467 13.8119H8.426C8.19323 13.8119 8.00021 13.6188 8.00021 13.3861C8.00021 13.1533 8.19323 12.9603 8.426 12.9603H12.2467C12.4794 12.9603 12.6725 13.1533 12.6725 13.3861C12.6725 13.6188 12.4851 13.8119 12.2467 13.8119Z" fill="#4E6262"/>
<path d="M52.7867 47.7325C52.554 47.7325 52.3609 47.5394 52.3609 47.3067V40.9994C52.3609 40.7667 52.554 40.5736 52.7867 40.5736C53.0195 40.5736 53.2125 40.7667 53.2125 40.9994V47.3067C53.2125 47.5451 53.0195 47.7325 52.7867 47.7325Z" fill="#4E6262"/>
<path d="M54.6942 44.5817H50.8735C50.6408 44.5817 50.4478 44.3886 50.4478 44.1559C50.4478 43.9231 50.6408 43.7301 50.8735 43.7301H54.6942C54.927 43.7301 55.12 43.9231 55.12 44.1559C55.12 44.3886 54.9327 44.5817 54.6942 44.5817Z" fill="#4E6262"/>
<path d="M71.0215 4.88749C69.2275 2.04327 65.0719 1.45853 61.7735 3.51931L51.5434 9.92306C49.5848 11.1493 47.1437 10.7689 46.0821 9.07717L45.2759 7.79415L38.5826 11.9838L50.4875 30.9964L57.1808 26.8067L56.3746 25.5237C55.313 23.8319 56.0454 21.4646 57.9983 20.244L68.2965 13.8005C71.6006 11.734 72.8211 7.73738 71.0215 4.88749Z" fill="#6ACBB9" fill-opacity="0.5"/>
<path d="M54.5239 24.8765C54.382 24.8765 54.2457 24.8084 54.1606 24.6778L43.868 8.23131C43.868 8.23131 43.868 8.2313 43.868 8.22563C43.7431 8.02693 43.8056 7.76578 44.0043 7.64089C44.203 7.51599 44.4641 7.57844 44.589 7.77714C45.52 9.27021 47.7057 9.58813 49.4599 8.48677L59.69 2.08302C63.2041 -0.11401 67.6152 0.555886 69.5227 3.58177C70.3686 4.91589 70.6241 6.55656 70.2494 8.19157C69.8009 10.1502 68.4952 11.9328 66.6615 13.0795L56.3689 19.523C55.5117 20.0623 54.8815 20.8515 54.609 21.7541C54.3422 22.6284 54.4331 23.5027 54.8759 24.2123L54.8815 24.218C55.0064 24.4167 54.944 24.6778 54.7453 24.8027C54.6772 24.8538 54.5977 24.8765 54.5239 24.8765ZM45.8266 9.75844L53.6383 22.2367C53.6666 21.9926 53.7234 21.7541 53.7972 21.51C54.1322 20.4143 54.8872 19.4549 55.9204 18.8077L66.213 12.3642C67.8537 11.3367 69.0232 9.74709 69.4205 8.00422C69.7441 6.59063 69.5227 5.18271 68.8017 4.03594C67.1384 1.40745 63.2552 0.851093 60.1385 2.80401L59.9114 2.44068L60.1385 2.80401L49.9084 9.20776C48.6027 10.0309 47.0812 10.1842 45.8266 9.75844Z" fill="#4E6262"/>
<path d="M48.6311 30.3492C48.4892 30.3492 48.3529 30.2811 48.2678 30.1505L36.3686 11.1323C36.3062 11.0358 36.2891 10.9223 36.3118 10.8087C36.3346 10.6952 36.4027 10.6043 36.4992 10.5419L43.1925 6.3522C43.3912 6.22731 43.6523 6.28976 43.7772 6.48845L55.6763 25.501C55.8012 25.6997 55.7388 25.9608 55.5401 26.0857L48.8468 30.2754C48.7844 30.3265 48.7106 30.3492 48.6311 30.3492ZM37.3167 11.0415L48.7673 29.333L54.7396 25.5918L43.289 7.30028L37.3167 11.0415Z" fill="#4E6262"/>
<path d="M1.99384 47.829C1.85191 47.829 1.70999 47.7552 1.63051 47.6303L0.120404 45.2175C0.00686196 45.0415 0.0466029 44.8088 0.199884 44.6725L8.59061 37.4058C10.2086 36.0036 11.9458 34.7206 13.7568 33.5852L13.9838 33.9485L13.7568 33.5852L40.4618 16.8718C40.6605 16.7469 40.9216 16.8094 41.0465 17.0081L45.0318 23.3721C45.0943 23.4686 45.1113 23.5821 45.0886 23.6957C45.0659 23.8092 44.9977 23.9001 44.9012 23.9625L18.5255 40.4715C16.4931 41.7431 14.3358 42.8445 12.1161 43.7528L2.15848 47.8006C2.10171 47.8176 2.04493 47.829 1.99384 47.829ZM1.03441 45.0699L2.16415 46.8695L11.7925 42.9523C13.9668 42.0667 16.0787 40.9881 18.0713 39.7391L44.0894 23.4572L40.5583 17.8142L14.2109 34.3061C12.434 35.4189 10.7309 36.6792 9.14697 38.0473L1.03441 45.0699Z" fill="#4E6262"/>
<path d="M39.5421 65.6777C37.7311 65.6777 35.9144 65.0703 34.4327 63.8497C34.427 63.844 34.4214 63.844 34.4157 63.8383C33.0475 62.7086 32.1108 61.1985 31.7077 59.4727C31.3046 57.7468 31.4749 55.9756 32.1959 54.3576C32.2016 54.3463 32.2073 54.3349 32.213 54.3292L39.1674 41.5444C39.2412 41.4082 39.3831 41.323 39.5421 41.323C39.701 41.323 39.843 41.4082 39.9168 41.5444L46.8712 54.3292C46.8769 54.3406 46.8825 54.3463 46.8882 54.3576C47.3537 55.3965 47.5865 56.5035 47.5865 57.639C47.5865 60.046 46.5249 62.3055 44.6685 63.8383C43.1811 65.0589 41.3587 65.6777 39.5421 65.6777ZM34.9493 63.1684C34.955 63.1741 34.9607 63.1741 34.9664 63.1798C37.6176 65.3712 41.4723 65.3712 44.1235 63.1798C45.7812 61.8116 46.7349 59.7906 46.7349 57.6333C46.7349 56.6228 46.5249 55.6406 46.1161 54.7153L39.5478 42.6344L32.9794 54.7153C31.668 57.6503 32.4798 61.119 34.9493 63.1684Z" fill="#4E6262"/>
<path d="M39.8089 63.6509C39.4172 63.6509 39.0028 63.6112 38.5543 63.5204C38.3215 63.4749 38.1739 63.2479 38.2193 63.0208C38.2647 62.7937 38.4918 62.6404 38.7189 62.6858C39.1049 62.7653 39.4626 62.7994 39.7919 62.7994C41.3871 62.7994 42.4033 62.0216 42.9086 61.4993C44.4925 59.8587 44.5606 57.7071 44.3733 56.7931C44.3278 56.5603 44.4754 56.3389 44.7082 56.2935C44.941 56.2481 45.1624 56.3957 45.2078 56.6284C45.5087 58.1045 45.1056 60.4491 43.5217 62.0954C42.9199 62.7199 41.6994 63.6509 39.8089 63.6509Z" fill="#4E6262"/>
</svg>
