<svg width="42" height="55" viewBox="0 0 42 55" fill="none" xmlns="http://www.w3.org/2000/svg">
<path d="M18.5767 27.0766C18.77 25.5599 18.94 21.2233 15.2434 17.8999C10.6867 13.8099 2.97002 15.4333 2.97002 15.4333C2.97002 15.4333 3.12335 22.9999 6.83002 25.8533C10.3167 28.5399 17.5567 27.7433 18.4034 27.6399" fill="#BDE08B"/>
<path d="M24.4467 27.7467C25.86 27.96 32.9167 28.7867 36.9334 24.7733C42.19 19.5167 40.8934 11.22 40.8934 11.22C40.8934 11.22 33.6267 9.25667 27.7467 14.5833C23.4267 18.4967 23.9467 25.5967 24.1467 27.32" fill="#BDE08B"/>
<path d="M16.1067 51.3C16.05 51.3 15.99 51.28 15.9433 51.24C15.84 51.15 15.8267 50.9933 15.9167 50.8866L17.25 49.34C17.2967 49.2866 17.3333 49.2233 17.3567 49.1566L17.95 47.5366C18.0367 47.2966 18.21 47.0933 18.43 46.9666L20.0167 46.0566C20.1967 45.9533 20.31 45.7566 20.3133 45.55L20.3867 30.7666C20.3867 30.5533 20.45 30.3466 20.57 30.17C21.7033 28.4666 27.6067 19.8966 32.4567 18.47C32.59 18.43 32.7267 18.5066 32.7667 18.64C32.8067 18.7733 32.73 18.91 32.5967 18.95C31.5267 19.2666 30.3033 19.99 28.9633 21.1033C27.8533 22.0266 26.6567 23.22 25.4067 24.65C23.2 27.18 21.4633 29.7266 20.9867 30.4466C20.9233 30.5433 20.89 30.6533 20.8867 30.77L20.8133 45.5533C20.81 45.94 20.6033 46.3 20.2667 46.4933L18.68 47.4033C18.56 47.4733 18.4667 47.58 18.42 47.71L17.8267 49.33C17.78 49.4533 17.7133 49.5666 17.63 49.6666L16.2967 51.2133C16.2467 51.27 16.1767 51.3 16.1067 51.3Z" fill="#4E6262"/>
<path d="M36.7733 9.97668C37.9233 9.97668 38.85 10.1 39.4167 10.2C39.79 10.2667 40.0733 10.5767 40.1067 10.9534C40.2867 12.9767 40.4667 19.4934 36.0767 23.8834C33.4267 26.5334 29.4533 27.0734 26.65 27.0734C25.52 27.0734 24.5767 26.9867 23.9933 26.9134C23.6033 26.8634 23.3 26.5534 23.2633 26.1634C23.0567 24.0667 22.7733 17.43 26.8933 13.6967C30.2767 10.6267 34.12 9.97668 36.7733 9.97668ZM36.7733 9.47668C34.05 9.47668 30.0633 10.1434 26.5567 13.3234C25.5533 14.2334 24.7267 15.3734 24.1033 16.71C23.5867 17.82 23.2 19.08 22.96 20.4534C22.5333 22.8867 22.6533 25.1034 22.7633 26.21C22.7933 26.51 22.9267 26.7967 23.1367 27.0134C23.3467 27.23 23.63 27.37 23.93 27.4067C24.5333 27.4834 25.4967 27.5734 26.65 27.5734C28.4267 27.5734 30.0767 27.3634 31.5567 26.9534C33.5433 26.4 35.1833 25.4867 36.4333 24.2367C37.49 23.18 38.3667 21.9267 39.04 20.51C39.6 19.33 40.0233 18.0234 40.3 16.63C40.79 14.1567 40.7033 11.9834 40.61 10.91C40.5567 10.3067 40.1033 9.81335 39.51 9.70669C38.9133 9.60002 37.9567 9.47668 36.7733 9.47668Z" fill="#4E6262"/>
<path d="M20.64 30.77C20.5534 30.77 20.47 30.7266 20.4234 30.6466C20.4134 30.63 19.4267 28.9566 17.71 26.94C16.1334 25.0866 13.6034 22.5533 10.4934 21.02C10.37 20.96 10.32 20.81 10.38 20.6867C10.44 20.5633 10.59 20.5133 10.7134 20.5733C13.9034 22.1433 16.49 24.7333 18.1 26.6266C19.84 28.6733 20.8467 30.38 20.8567 30.3966C20.9267 30.5166 20.8867 30.67 20.7667 30.74C20.7267 30.76 20.6834 30.77 20.64 30.77Z" fill="#4E6262"/>
<path d="M5.70001 14.2267C8.32001 14.2267 11.8467 14.73 14.3867 17.0134C17.9933 20.2534 17.92 24.46 17.7333 26.07C17.6867 26.4634 17.3733 26.7734 16.9767 26.81C16.36 26.8667 15.36 26.94 14.1767 26.94C11.5667 26.94 8.08001 26.59 5.97001 24.9634C2.98668 22.6634 2.30335 17.3067 2.15335 15.31C2.12002 14.8667 2.43668 14.4767 2.87668 14.4167C3.51668 14.3267 4.51668 14.2267 5.70001 14.2267ZM5.70001 13.7267C4.48335 13.7267 3.45668 13.8334 2.81001 13.9234C2.11001 14.02 1.60335 14.6467 1.65668 15.35C1.82335 17.56 2.55335 22.96 5.66668 25.36C6.67668 26.14 8.06668 26.71 9.79001 27.0534C11.0833 27.31 12.56 27.44 14.1767 27.44C15.37 27.44 16.3833 27.37 17.0233 27.3067C17.3267 27.2767 17.6167 27.1434 17.8367 26.93C18.0567 26.7167 18.1967 26.43 18.23 26.1267C18.34 25.1834 18.38 23.71 17.9667 22.03C17.4467 19.92 16.3533 18.1067 14.72 16.64C13.5133 15.5567 11.9933 14.7634 10.2033 14.28C8.83668 13.9134 7.32001 13.7267 5.70001 13.7267Z" fill="#4E6262"/>
<path d="M40.6866 54.2067H0.656662C0.519995 54.2067 0.406662 54.0933 0.406662 53.9567V53.8233C0.406662 51.8167 1.19 49.93 2.60666 48.51C4.02666 47.09 5.91333 46.31 7.91999 46.31C10.0267 46.31 12.0033 47.1767 13.42 48.7033C13.7233 47.0933 14.55 45.62 15.78 44.5133C17.16 43.2733 18.9433 42.5867 20.8033 42.5867C22.6333 42.5867 24.3933 43.2533 25.7667 44.46C26.9967 45.5433 27.8367 46.9967 28.1633 48.5867C29.5633 47.2167 31.4533 46.44 33.42 46.44C35.43 46.4433 37.3166 47.2233 38.7366 48.6433C40.1566 50.0633 40.9366 51.9467 40.9366 53.9533C40.9366 54.0933 40.8233 54.2067 40.6866 54.2067ZM0.906662 53.7067H40.4333C40.37 51.9267 39.65 50.2633 38.3833 49C37.06 47.6767 35.2966 46.9467 33.42 46.9433C31.4267 46.9433 29.5167 47.8 28.1867 49.29C28.1233 49.3633 28.02 49.39 27.9267 49.3633C27.8333 49.3333 27.7667 49.2533 27.7533 49.1567C27.5267 47.49 26.7033 45.9567 25.4367 44.8367C24.1567 43.71 22.5133 43.09 20.8033 43.09C19.07 43.09 17.4033 43.7267 16.1167 44.8867C14.8367 46.0367 14.0267 47.6067 13.8367 49.3067C13.8267 49.4067 13.7533 49.49 13.6567 49.52C13.56 49.5467 13.4567 49.5133 13.3933 49.4367C12.0567 47.7667 10.0633 46.81 7.92333 46.81C6.04999 46.81 4.28999 47.54 2.96333 48.8633C1.66333 50.16 0.936662 51.8767 0.906662 53.7067Z" fill="#4E6262"/>
<path d="M20.43 50.8334C20.39 50.8334 20.3533 50.8234 20.3167 50.8067C20.1933 50.7434 20.1467 50.5934 20.21 50.4701L20.7067 49.5067C20.7533 49.4167 20.7467 49.3101 20.6867 49.2234L20.2267 48.5701C20.0267 48.2867 19.9333 47.9367 19.9667 47.5901L20.0833 46.3134C20.1067 46.0534 20.26 45.8234 20.49 45.7001C20.7233 45.5767 20.9967 45.5801 21.2267 45.7067L22.1633 46.2267C22.3 46.3001 22.4267 46.4034 22.5367 46.5301L23.26 47.3634C23.3 47.4101 23.36 47.4434 23.4233 47.4534L24.5567 47.6401C24.8633 47.6901 25.11 47.9167 25.1833 48.2201L25.44 49.2801C25.4733 49.4134 25.39 49.5501 25.2567 49.5834C25.1233 49.6167 24.9867 49.5334 24.9533 49.4001L24.6967 48.3401C24.67 48.2334 24.5833 48.1534 24.4767 48.1334L23.3433 47.9467C23.1633 47.9167 23 47.8267 22.8833 47.6901L22.16 46.8567C22.09 46.7734 22.01 46.7101 21.9233 46.6634L20.9833 46.1434C20.9 46.0967 20.8067 46.0967 20.7233 46.1401C20.64 46.1834 20.59 46.2634 20.58 46.3567L20.4633 47.6334C20.4433 47.8634 20.5033 48.0934 20.6367 48.2801L21.1 48.9367C21.2667 49.1767 21.2867 49.4834 21.1533 49.7367L20.6567 50.7001C20.6067 50.7834 20.52 50.8334 20.43 50.8334Z" fill="#4E6262"/>
<path d="M34.33 38.5766C34.1933 38.5766 34.08 38.4633 34.08 38.3266V36.1433C34.08 36.0066 34.1933 35.8933 34.33 35.8933C34.4667 35.8933 34.58 36.0066 34.58 36.1433V38.3266C34.58 38.4633 34.4667 38.5766 34.33 38.5766Z" fill="#4E6262"/>
<path d="M35.0967 37.4833H33.5633C33.4267 37.4833 33.3133 37.3699 33.3133 37.2333C33.3133 37.0966 33.4267 36.9833 33.5633 36.9833H35.0967C35.2333 36.9833 35.3467 37.0966 35.3467 37.2333C35.3467 37.3699 35.2333 37.4833 35.0967 37.4833Z" fill="#4E6262"/>
<path d="M31.9367 34.7499C31.8 34.7499 31.6867 34.6366 31.6867 34.4999V30.7966C31.6867 30.66 31.8 30.5466 31.9367 30.5466C32.0733 30.5466 32.1867 30.66 32.1867 30.7966V34.4999C32.1867 34.6366 32.0733 34.7499 31.9367 34.7499Z" fill="#4E6262"/>
<path d="M33.06 32.8999H30.8133C30.6767 32.8999 30.5633 32.7866 30.5633 32.6499C30.5633 32.5132 30.6767 32.3999 30.8133 32.3999H33.06C33.1967 32.3999 33.31 32.5132 33.31 32.6499C33.31 32.7866 33.1967 32.8999 33.06 32.8999Z" fill="#4E6262"/>
<path d="M9.89667 38.6634C9.76 38.6634 9.64667 38.5501 9.64667 38.4134V34.7101C9.64667 34.5734 9.76 34.4601 9.89667 34.4601C10.0333 34.4601 10.1467 34.5734 10.1467 34.7101V38.4134C10.1467 38.5501 10.0333 38.6634 9.89667 38.6634Z" fill="#4E6262"/>
<path d="M11.02 36.8135H8.77667C8.64001 36.8135 8.52667 36.7001 8.52667 36.5635C8.52667 36.4268 8.64001 36.3135 8.77667 36.3135H11.02C11.1567 36.3135 11.27 36.4268 11.27 36.5635C11.27 36.7001 11.1567 36.8135 11.02 36.8135Z" fill="#4E6262"/>
<path d="M19.76 10.5967C18.1167 10.5967 16.78 9.26005 16.78 7.61672C16.78 5.97339 18.1167 4.63672 19.76 4.63672C21.4033 4.63672 22.74 5.97339 22.74 7.61672C22.74 9.26005 21.4033 10.5967 19.76 10.5967ZM19.76 4.67005C18.1367 4.67005 16.8133 5.99339 16.8133 7.61672C16.8133 9.24005 18.1367 10.5634 19.76 10.5634C21.3833 10.5634 22.7067 9.24005 22.7067 7.61672C22.7067 5.99339 21.3833 4.67005 19.76 4.67005Z" fill="#4E6262"/>
<path d="M19.76 10.83C17.9867 10.83 16.5467 9.38998 16.5467 7.61665C16.5467 5.84332 17.9867 4.40332 19.76 4.40332C21.5333 4.40332 22.9733 5.84332 22.9733 7.61665C22.9733 9.38998 21.5333 10.83 19.76 10.83ZM19.76 4.90332C18.2633 4.90332 17.0467 6.11999 17.0467 7.61665C17.0467 9.11332 18.2633 10.33 19.76 10.33C21.2567 10.33 22.4733 9.11332 22.4733 7.61665C22.4733 6.11999 21.2567 4.90332 19.76 4.90332Z" fill="#4E6262"/>
<path d="M15.5533 7.8667H13.1633C13.0267 7.8667 12.9133 7.75337 12.9133 7.6167C12.9133 7.48003 13.0267 7.3667 13.1633 7.3667H15.5533C15.69 7.3667 15.8033 7.48003 15.8033 7.6167C15.8033 7.75337 15.69 7.8667 15.5533 7.8667Z" fill="#4E6262"/>
<path d="M26.3567 7.8667H23.9633C23.8267 7.8667 23.7133 7.75337 23.7133 7.6167C23.7133 7.48003 23.8267 7.3667 23.9633 7.3667H26.3567C26.4933 7.3667 26.6067 7.48003 26.6067 7.6167C26.6067 7.75337 26.4933 7.8667 26.3567 7.8667Z" fill="#4E6262"/>
<path d="M19.76 3.66335C19.6233 3.66335 19.51 3.55002 19.51 3.41335V1.02002C19.51 0.883353 19.6233 0.77002 19.76 0.77002C19.8967 0.77002 20.01 0.883353 20.01 1.02002V3.41335C20.01 3.55002 19.8967 3.66335 19.76 3.66335Z" fill="#4E6262"/>
<path d="M19.76 14.4634C19.6233 14.4634 19.51 14.35 19.51 14.2134V11.8234C19.51 11.6867 19.6233 11.5734 19.76 11.5734C19.8967 11.5734 20.01 11.6867 20.01 11.8234V14.2134C20.01 14.35 19.8967 14.4634 19.76 14.4634Z" fill="#4E6262"/>
<path d="M16.7867 4.89672C16.7233 4.89672 16.66 4.87339 16.61 4.82339L14.9167 3.13006C14.82 3.03339 14.82 2.87339 14.9167 2.77672C15.0133 2.68006 15.1733 2.68006 15.27 2.77672L16.9633 4.47006C17.06 4.56672 17.06 4.72672 16.9633 4.82339C16.9133 4.87339 16.85 4.89672 16.7867 4.89672Z" fill="#4E6262"/>
<path d="M24.4233 12.5334C24.36 12.5334 24.2967 12.5101 24.2467 12.4601L22.5566 10.7668C22.46 10.6701 22.46 10.5101 22.5566 10.4134C22.6533 10.3168 22.8133 10.3168 22.91 10.4134L24.6 12.1068C24.6967 12.2034 24.6967 12.3634 24.6 12.4601C24.55 12.5101 24.4866 12.5334 24.4233 12.5334Z" fill="#4E6262"/>
<path d="M22.7333 4.89672C22.67 4.89672 22.6066 4.87339 22.5566 4.82339C22.46 4.72672 22.46 4.56672 22.5566 4.47006L24.2467 2.77672C24.3433 2.68006 24.5033 2.68006 24.6 2.77672C24.6967 2.87339 24.6967 3.03339 24.6 3.13006L22.91 4.82339C22.86 4.87339 22.7966 4.89672 22.7333 4.89672Z" fill="#4E6262"/>
<path d="M15.0933 12.5334C15.03 12.5334 14.9667 12.5101 14.9167 12.4601C14.82 12.3634 14.82 12.2034 14.9167 12.1068L16.61 10.4134C16.7067 10.3168 16.8667 10.3168 16.9633 10.4134C17.06 10.5101 17.06 10.6701 16.9633 10.7668L15.27 12.4601C15.22 12.5101 15.1567 12.5334 15.0933 12.5334Z" fill="#4E6262"/>
</svg>
