<svg width="58" height="52" viewBox="0 0 58 52" fill="none" xmlns="http://www.w3.org/2000/svg">
<path d="M7.95 31.4581L1.89062 35.6406L11.9794 51.605L17.7456 46.8231L7.95 31.4581Z" fill="#F9C5CD"/>
<path d="M44.6956 15.9313C44.6956 17.8825 43.8425 19.7944 42.2631 21.0981C39.7869 23.1456 36.2081 23.1456 33.7318 21.0981C31.4131 19.1819 30.6562 15.9488 31.8856 13.2013L38.0018 1.95752L44.1181 13.2013C44.5031 14.0806 44.6956 15.0125 44.6956 15.9313Z" fill="#F9E599"/>
<path d="M36.6981 22.1875C35.1144 22.1875 33.5306 21.6538 32.2356 20.5907C32.2312 20.5863 32.2269 20.5819 32.2225 20.5819C31.0281 19.5932 30.21 18.2763 29.8556 16.7669C29.5012 15.2575 29.65 13.7132 30.2844 12.3C30.2887 12.2913 30.2931 12.2825 30.2975 12.2782L36.4137 1.03439C36.4706 0.929394 36.58 0.86377 36.7025 0.86377C36.825 0.86377 36.9344 0.929394 36.9912 1.03439L43.1075 12.2782C43.1118 12.2869 43.1162 12.2913 43.1206 12.3C43.5275 13.21 43.7331 14.1725 43.7331 15.1657C43.7331 17.27 42.8012 19.2432 41.1825 20.5819C39.8787 21.6538 38.2862 22.1875 36.6981 22.1875ZM32.6294 20.0657C32.6337 20.07 32.6381 20.07 32.6425 20.0744C34.9919 22.0169 38.4044 22.0169 40.7581 20.0744C42.2281 18.8582 43.0725 17.0688 43.0725 15.1613C43.0725 14.2688 42.8887 13.3982 42.5212 12.5757L36.7025 1.8744L30.8837 12.5757C30.315 13.8532 30.1837 15.2532 30.5031 16.6138C30.8137 17.9788 31.5531 19.1732 32.6294 20.0657Z" fill="#4E6262"/>
<path d="M36.9343 20.4069C36.5931 20.4069 36.23 20.3719 35.8406 20.2931C35.6612 20.2581 35.5475 20.0831 35.5825 19.9081C35.6175 19.7288 35.7925 19.615 35.9675 19.65C37.9406 20.0481 39.1524 19.1556 39.6949 18.5913C41.0993 17.1344 41.1605 15.2182 40.9987 14.4132C40.9637 14.2338 41.0774 14.0632 41.2568 14.0282C41.4362 13.9932 41.6068 14.1069 41.6418 14.2863C41.9043 15.5725 41.5543 17.6157 40.1674 19.0506C39.6424 19.5975 38.5793 20.4069 36.9343 20.4069Z" fill="#4E6262"/>
<path d="M10.4962 51.4214C10.4787 51.4214 10.4612 51.4214 10.4437 51.417C10.3519 51.4039 10.2687 51.347 10.2162 51.2683L0.127488 35.3082C0.0356127 35.1594 0.0749867 34.9626 0.219362 34.8619L6.27436 30.6794C6.34874 30.6269 6.43624 30.6094 6.52374 30.6269C6.61124 30.6444 6.68561 30.6969 6.73374 30.7713L16.5337 46.1364C16.6212 46.2764 16.595 46.4601 16.4681 46.5651L10.7062 51.347C10.645 51.3951 10.5706 51.4214 10.4962 51.4214ZM0.853737 35.2251L10.575 50.6033L15.8337 46.2457L6.37499 31.4144L0.853737 35.2251Z" fill="#4E6262"/>
<path d="M24.3738 14.7544C24.1944 14.7544 24.0456 14.6057 24.0456 14.4263V11.5607C24.0456 11.3813 24.1944 11.2325 24.3738 11.2325C24.5531 11.2325 24.7019 11.3813 24.7019 11.5607V14.4263C24.7019 14.6057 24.5575 14.7544 24.3738 14.7544Z" fill="#4E6262"/>
<path d="M25.3844 13.3193H23.3719C23.1925 13.3193 23.0438 13.1706 23.0438 12.9912C23.0438 12.8118 23.1925 12.6631 23.3719 12.6631H25.3844C25.5638 12.6631 25.7125 12.8118 25.7125 12.9912C25.7125 13.1706 25.5638 13.3193 25.3844 13.3193Z" fill="#4E6262"/>
<path d="M21.2369 9.73184C21.0575 9.73184 20.9088 9.58309 20.9088 9.40372V4.54309C20.9088 4.36372 21.0575 4.21497 21.2369 4.21497C21.4163 4.21497 21.565 4.36372 21.565 4.54309V9.40372C21.565 9.58747 21.4163 9.73184 21.2369 9.73184Z" fill="#4E6262"/>
<path d="M22.7069 7.29932H19.7625C19.5831 7.29932 19.4344 7.15057 19.4344 6.97119C19.4344 6.79182 19.5831 6.64307 19.7625 6.64307H22.7069C22.8862 6.64307 23.035 6.79182 23.035 6.97119C23.035 7.15057 22.8906 7.29932 22.7069 7.29932Z" fill="#4E6262"/>
<path d="M46.8656 7.37808C46.6863 7.37808 46.5375 7.22933 46.5375 7.04996V2.18933C46.5375 2.00996 46.6863 1.86121 46.8656 1.86121C47.045 1.86121 47.1938 2.00996 47.1938 2.18933V7.04996C47.1938 7.23371 47.0494 7.37808 46.8656 7.37808Z" fill="#4E6262"/>
<path d="M48.34 4.94995H45.3956C45.2163 4.94995 45.0675 4.8012 45.0675 4.62183C45.0675 4.44245 45.2163 4.2937 45.3956 4.2937H48.34C48.5194 4.2937 48.6681 4.44245 48.6681 4.62183C48.6681 4.8012 48.5194 4.94995 48.34 4.94995Z" fill="#4E6262"/>
<path d="M34.0687 45.6069C33.22 45.6069 32.2443 45.5938 31.2118 45.5501C26.9987 45.3794 23.945 44.8544 22.125 43.9882C20.4537 43.1919 18.8656 43.1526 17.4087 43.8701C16.3106 44.4126 15.6937 45.2088 15.685 45.2176C15.5756 45.3619 15.37 45.3882 15.2256 45.2788C15.0812 45.1694 15.055 44.9638 15.1644 44.8194C15.1906 44.7844 15.8644 43.9094 17.0894 43.2926C18.2269 42.7238 20.0731 42.2819 22.405 43.3932C26.3819 45.2876 35.9368 44.9332 36.8775 44.8938L50.8293 37.312C51.2362 36.6951 54.2768 32.0576 55.8781 29.2314C57.6674 26.0726 57.628 25.8976 56.6962 25.2764C55.6199 24.5589 53.6468 25.1232 52.2074 26.5626C50.7112 28.0589 47.1674 32.7095 47.1324 32.7576C47.0974 32.8013 47.0537 32.8407 46.9968 32.8626L43.1162 34.4945C42.9893 34.547 42.8493 34.5163 42.7531 34.4201C42.6568 34.3238 42.6349 34.1795 42.6918 34.057C43.0243 33.3263 43.0768 32.6701 42.8362 32.1013C42.6568 31.677 42.1231 30.8851 40.5306 30.3164C39.3625 29.9007 37.3412 30.6707 35.8712 31.2395C35.6918 31.3095 35.5168 31.3751 35.3462 31.4407C33.7493 32.0401 32.3975 32.2282 30.5906 31.327C28.9106 30.487 23.9975 28.4482 21.0269 27.3589C19.6969 26.8732 18.1481 26.7682 16.5381 27.0526C15.2169 27.2889 13.8694 27.8007 12.8413 28.4482C10.9469 29.6426 7.71376 32.5695 7.67876 32.6001C7.54313 32.7226 7.33751 32.7095 7.21501 32.5782C7.09251 32.4426 7.10564 32.237 7.23689 32.1145C7.37251 31.992 10.5488 29.122 12.4913 27.8926C14.67 26.5189 18.2225 25.6264 21.2544 26.7376C24.2381 27.8314 29.1906 29.8876 30.8837 30.732C32.485 31.5326 33.6487 31.3707 35.1143 30.8195C35.2806 30.7582 35.4556 30.6882 35.635 30.6226C37.2931 29.9882 39.3537 29.1964 40.7537 29.6951C42.4862 30.3163 43.1731 31.2045 43.4443 31.8432C43.6718 32.3813 43.7068 32.972 43.5493 33.5976L46.6643 32.2851C47.1324 31.6726 50.2999 27.5382 51.7437 26.0945C53.4237 24.4145 55.7074 23.8282 57.0593 24.7251C58.5993 25.7532 58.1005 26.6326 56.4468 29.5507C54.7274 32.587 51.3631 37.6882 51.3281 37.7363C51.2974 37.7801 51.2581 37.8195 51.2099 37.8457L37.1181 45.5019C37.0743 45.5238 37.0262 45.5369 36.9781 45.5413C36.965 45.5501 35.7837 45.6069 34.0687 45.6069Z" fill="#4E6262"/>
<path d="M32.0125 38.992C30.4419 38.992 28.3069 38.6027 25.2925 37.2508C25.1263 37.1764 25.0519 36.9839 25.1263 36.8176C25.2006 36.6514 25.3931 36.577 25.5594 36.6514C30.9144 39.0533 33.3382 38.3095 34.7819 37.8633C34.9044 37.8239 35.0225 37.7889 35.1363 37.7583C36.5144 37.3645 42.7663 33.9389 42.8275 33.9083C42.985 33.8208 43.1863 33.8776 43.2738 34.0395C43.3613 34.197 43.3044 34.3983 43.1425 34.4858C42.8844 34.6301 36.7638 37.9814 35.3157 38.3927C35.2107 38.4233 35.0969 38.4583 34.9744 38.4933C34.2744 38.7077 33.3513 38.992 32.0125 38.992Z" fill="#4E6262"/>
<path d="M42.075 30.9244C42.0094 30.9244 41.9438 30.9069 41.8869 30.8675C41.7382 30.7625 41.7032 30.5613 41.8038 30.4125C41.9088 30.2594 44.3982 26.6894 45.9294 25.1538C47.6094 23.4738 49.8932 22.8876 51.245 23.7844C51.5907 24.0163 51.805 24.2219 51.9363 24.4451C52.085 24.7076 52.1288 25.0007 52.0588 25.3419C51.9407 25.9238 51.5032 26.6938 50.7769 27.9625C50.6632 28.1638 50.5407 28.3782 50.4094 28.6057C50.3219 28.7632 50.1207 28.82 49.9632 28.7282C49.8057 28.6407 49.7488 28.4394 49.8407 28.2819C49.9719 28.0544 50.0944 27.8357 50.2082 27.6344C51.6869 25.0401 51.7219 24.8826 50.8819 24.3269C49.8057 23.6094 47.8325 24.1738 46.3932 25.6132C44.9013 27.105 42.3682 30.745 42.3419 30.78C42.2807 30.8763 42.1757 30.9244 42.075 30.9244Z" fill="#4E6262"/>
<path d="M35.2107 31.4406C35.1494 31.4406 35.0925 31.4231 35.04 31.3924C34.8869 31.2962 34.8388 31.0949 34.935 30.9418C35.0225 30.7975 37.1269 27.4244 38.6669 25.88C40.3469 24.2 42.6306 23.6138 43.9825 24.5106C45.5225 25.5387 45.0237 26.4181 43.37 29.3362C43.2825 29.4937 43.0812 29.5506 42.9237 29.4587C42.7662 29.3712 42.7093 29.17 42.8012 29.0125C44.5906 25.8537 44.5512 25.6787 43.6193 25.0575C42.5431 24.34 40.57 24.9044 39.1306 26.3437C37.6431 27.8312 35.5125 31.2524 35.4907 31.2874C35.4294 31.3837 35.32 31.4406 35.2107 31.4406Z" fill="#4E6262"/>
</svg>
