<svg width="57" height="49" viewBox="0 0 57 49" fill="none" xmlns="http://www.w3.org/2000/svg">
<path d="M51.8422 28.6631C51.2662 26.9897 50.4349 25.4876 49.3813 24.1933C48.7141 23.373 47.974 22.6657 47.1755 22.0751C47.0224 21.9621 46.8693 21.8563 46.7125 21.7506C46.3844 21.5319 46.0453 21.3313 45.699 21.1527C44.2589 20.4053 42.7276 20.0261 41.1453 20.0261C41.1344 20.0261 41.1198 20.0261 41.1089 20.0261C40.8281 20.0261 40.5474 20.0407 40.2703 20.0662C38.9979 20.1792 37.7656 20.5438 36.5917 21.1527C36.4932 21.2037 36.3984 21.2548 36.3 21.3095C36.1104 21.4152 35.9245 21.5246 35.7422 21.6412C34.7651 22.2647 33.8682 23.0522 33.0698 23.9964C33.0151 24.0621 32.9604 24.1277 32.9057 24.1933C32.8948 24.2079 32.8839 24.2225 32.8729 24.2334C32.7599 24.1167 32.6469 24.0001 32.5302 23.8871C32.1766 23.548 31.801 23.2345 31.4 22.9537C31.2505 22.848 31.0974 22.7459 30.9443 22.6475C30.7656 22.5345 30.5797 22.4287 30.3938 22.3303C29.7557 21.9876 29.0776 21.7141 28.374 21.5209C27.4917 21.2766 26.5656 21.1527 25.6214 21.1527V21.6996V21.1527C24.05 21.1527 22.4422 21.4917 20.8927 22.1371C20.6995 22.2173 20.5062 22.3048 20.313 22.3959C20.2437 22.4287 20.1781 22.4615 20.1089 22.4944C19.9156 22.5891 19.7224 22.6912 19.5292 22.797C19.3687 22.8845 19.2047 22.9792 19.0479 23.074C17.2578 24.1459 15.6573 25.6225 14.3667 27.3834C14.2536 27.5365 14.1443 27.6897 14.0385 27.8464C13.9073 28.0397 13.776 28.2402 13.6521 28.4407C12.6859 29.9829 11.9896 31.6308 11.574 33.3407C11.5594 33.4063 11.5411 33.4683 11.5266 33.5339C11.501 33.6506 11.4755 33.7673 11.45 33.8839C11.1182 35.4881 11.049 37.0813 11.2422 38.6272C11.4536 40.2933 11.9604 41.8173 12.7552 43.1589C13.5792 44.5553 14.6802 45.6891 16.0182 46.5277C16.813 47.0272 17.6807 47.4063 18.5885 47.6579C19.4708 47.9022 20.3969 48.0225 21.3448 48.0225C23.5505 48.0225 25.8219 47.3589 27.9182 46.1048C29.4094 45.2115 30.7693 44.0376 31.9286 42.6522C32.2313 43.1334 32.5594 43.5928 32.9167 44.0266C33.9776 45.3282 35.2172 46.349 36.599 47.0673C38.0391 47.8147 39.5703 48.1938 41.1526 48.1938C42.7349 48.1938 44.2625 47.8147 45.7063 47.0673C47.088 46.3527 48.3276 45.3282 49.3885 44.0266C50.4458 42.7324 51.2734 41.2303 51.8495 39.5569C52.4438 37.8324 52.7464 35.9985 52.7464 34.11C52.7464 32.2214 52.4401 30.3876 51.8422 28.6631Z" fill="#F9E599" fill-opacity="0.8"/>
<path d="M31.7245 22.8624C31.6698 22.9281 31.6151 22.9937 31.5604 23.0593C31.5495 23.0739 31.5385 23.0885 31.5276 23.0994C31.5641 23.1359 31.5969 23.1723 31.6333 23.2088C31.6588 23.0994 31.6917 22.9827 31.7245 22.8624Z" fill="#4E6262"/>
<path d="M50.8432 32.9759C50.8432 39.8702 46.6359 45.5613 41.1927 46.4035C40.3943 46.739 39.851 46.7827 39.8146 46.7827C39.8073 46.7827 39.8036 46.7827 39.7963 46.7827C39.7818 46.7827 39.7708 46.7827 39.7562 46.7791H39.7526C39.7198 46.7718 39.2932 46.6989 38.6479 46.4364C35.4979 46.039 32.738 44.0155 30.9406 41.066C30.8203 41.2192 30.7 41.3686 30.576 41.5181C30.8787 41.9994 31.2068 42.4587 31.5641 42.8926C32.625 44.1942 33.8646 45.215 35.2464 45.9332C36.6865 46.6806 38.2177 47.0598 39.8 47.0598C41.3823 47.0598 42.9099 46.6806 44.3536 45.9332C45.7354 45.2186 46.975 44.1942 48.0359 42.8926C49.0932 41.5983 49.9208 40.0962 50.4969 38.4228C51.0911 36.6983 51.3937 34.8645 51.3937 32.9759C51.3937 31.0874 51.0911 29.2572 50.4969 27.5291C49.9208 25.8556 49.0896 24.3535 48.0359 23.0593C47.3687 22.239 46.6286 21.5317 45.8302 20.941C45.688 21.065 45.5422 21.1853 45.3963 21.302C48.6557 23.6572 50.8432 28.003 50.8432 32.9759Z" fill="#4E6262"/>
<path d="M40.6495 46.0244C40.963 45.6416 41.3495 45.0874 41.7359 44.3254C42.2354 43.3338 42.6255 42.1926 42.9026 40.9312C43.2453 39.3635 43.4057 37.6025 43.3838 35.6994C43.3802 35.5499 43.2562 35.426 43.1068 35.4296C42.9573 35.4333 42.8333 35.5536 42.837 35.7067C42.8661 38.0145 42.6146 41.3322 41.2693 44.0374C40.7734 45.0364 40.2375 45.7108 39.8875 46.0645C39.5922 45.4265 38.925 43.8624 38.3344 41.6129C37.6089 38.8603 36.8505 34.4963 37.3646 29.3484C37.3792 29.1989 37.2698 29.064 37.1203 29.0494C36.9708 29.0348 36.8359 29.1442 36.8214 29.2937C36.5917 31.6015 36.5917 33.9494 36.8214 36.2718C37.0073 38.1275 37.3391 39.9723 37.8057 41.7515C38.3599 43.8478 38.9651 45.3426 39.3005 46.0937C39.563 46.1812 39.7417 46.2213 39.8146 46.2359C39.9021 46.2213 40.212 46.1775 40.6495 46.0244Z" fill="#4E6262"/>
<path d="M39.7964 46.7828C39.7818 46.7828 39.7708 46.7828 39.7563 46.7792C39.7672 46.7828 39.7818 46.7828 39.7964 46.7828Z" fill="#4E6262"/>
<path d="M39.2969 46.0901C38.7135 45.8969 37.7365 45.4812 36.6938 44.6354C35.7276 43.8515 34.8964 42.8599 34.2219 41.6823C33.6203 40.6323 33.1427 39.4328 32.7964 38.1057C32.6797 38.3427 32.5557 38.5797 32.4245 38.813C32.7672 39.9724 33.2156 41.0333 33.7589 41.9776C34.4698 43.2135 35.3521 44.2599 36.3766 45.0838C37.2297 45.7692 38.0354 46.1885 38.6479 46.4364C38.925 46.4729 39.2057 46.4948 39.4901 46.5021C39.4427 46.4109 39.3771 46.2724 39.2969 46.0901Z" fill="#4E6262"/>
<path d="M46.0526 41.3906C46.9932 39.5203 47.6787 37.2197 48.0943 34.551C48.1162 34.4015 48.0141 34.263 47.8646 34.2374C47.7151 34.2156 47.5766 34.3177 47.5511 34.4671C47.1464 37.063 46.4828 39.2979 45.575 41.1098C44.8568 42.55 43.9818 43.7276 42.9828 44.6098C42.0969 45.3901 41.2693 45.7911 40.7333 45.988C40.7042 45.9989 40.6714 46.0098 40.6422 46.0208C40.4745 46.225 40.325 46.3854 40.212 46.4947C40.5401 46.4802 40.8682 46.4473 41.1891 46.3963C41.787 46.1447 42.5271 45.7328 43.3109 45.051C44.3755 44.1322 45.2979 42.8963 46.0526 41.3906Z" fill="#4E6262"/>
<path d="M39.5521 46.6369C39.5484 46.626 39.5229 46.5822 39.4865 46.5057C39.2021 46.4948 38.9214 46.4729 38.6443 46.4401C39.2896 46.7026 39.7161 46.7755 39.749 46.7828H39.7526C39.7453 46.7828 39.738 46.7791 39.7307 46.7791C39.6578 46.7572 39.5885 46.7062 39.5521 46.6369Z" fill="#4E6262"/>
<path d="M39.9604 46.728C39.913 46.7645 39.8547 46.7827 39.7964 46.7827C39.8036 46.7827 39.8073 46.7827 39.8146 46.7827C39.8547 46.7791 40.3943 46.739 41.1927 46.4036C40.8719 46.4546 40.5474 46.4874 40.2156 46.502C40.0661 46.6478 39.9714 46.7208 39.9604 46.728Z" fill="#4E6262"/>
<path d="M39.7964 46.5093C39.9386 46.5093 40.0771 46.5057 40.2193 46.4984C40.336 46.3854 40.4818 46.2286 40.6495 46.0244C40.212 46.1775 39.9057 46.2213 39.8073 46.2322C39.738 46.2176 39.5557 46.1775 39.2932 46.09C39.3735 46.2723 39.4391 46.4109 39.4865 46.502C39.5886 46.5057 39.6906 46.5093 39.7964 46.5093Z" fill="#4E6262"/>
<path d="M40.2156 46.4984C40.0771 46.5057 39.9349 46.5094 39.7927 46.5094C39.6906 46.5094 39.5885 46.5057 39.4828 46.5057C39.5193 46.5823 39.5412 46.626 39.5484 46.637C39.5849 46.7099 39.6505 46.7609 39.7307 46.7791C39.738 46.7791 39.7453 46.7828 39.7526 46.7828C39.7672 46.7864 39.7781 46.7864 39.7927 46.7864C39.8511 46.7864 39.9094 46.7682 39.9568 46.7317C39.9714 46.7208 40.0662 46.6479 40.2156 46.4984Z" fill="#4E6262"/>
<path d="M39.7964 18.8959C39.7854 18.8959 39.7708 18.8959 39.7599 18.8959C39.6906 18.9615 39.6214 19.0271 39.5521 19.0927C39.4208 19.2167 39.2859 19.3407 39.1547 19.4646C39.3662 19.45 39.5813 19.4427 39.7964 19.4427C41.6448 19.4427 43.3875 20.0006 44.9188 20.9849C45.0646 20.8646 45.2141 20.7443 45.3636 20.6204C45.0354 20.4016 44.6964 20.2011 44.35 20.0224C42.9063 19.275 41.375 18.8959 39.7964 18.8959Z" fill="#4E6262"/>
<path d="M31.7245 22.8624C31.6917 22.9827 31.6625 23.0994 31.6333 23.2124C31.7245 23.3109 31.812 23.413 31.8958 23.515C32.6177 22.6109 33.4416 21.8307 34.3495 21.1999C34.3713 20.9739 34.3896 20.7442 34.4005 20.5109C33.4198 21.1343 32.5229 21.9218 31.7245 22.8624Z" fill="#4E6262"/>
<path d="M38.2287 19.5776C38.4547 19.3661 38.688 19.1547 38.9214 18.9359C37.649 19.0489 36.4167 19.4135 35.2427 20.0224C35.1443 20.0734 35.0495 20.1245 34.9511 20.1791C34.9474 20.3942 34.9401 20.6094 34.9255 20.8245C35.95 20.2083 37.0583 19.7817 38.2287 19.5776Z" fill="#4E6262"/>
<path d="M54.4344 0.885385C54.3688 0.695801 54.201 0.55726 54.0005 0.524447C53.9677 0.520801 53.676 0.477051 53.1547 0.477051C51.0839 0.477051 45.6115 1.16247 39.5302 7.51351C37.7912 9.32913 36.2344 11.4255 34.9037 13.7369C34.6011 14.2656 34.3094 14.8052 34.0287 15.3557C34.1234 15.589 34.2073 15.8224 34.2875 16.0593C35.6 13.3869 37.4229 10.5104 39.924 7.89632C45.8922 1.66559 51.226 1.03122 53.1547 1.03122C53.3406 1.03122 53.4974 1.03851 53.6177 1.0458C53.6396 1.00934 53.6615 0.972884 53.6797 0.936426C53.7563 0.805176 53.924 0.761427 54.0516 0.837989C54.1828 0.914552 54.2266 1.08226 54.15 1.20986C54.1063 1.28643 54.0625 1.36299 54.0151 1.43955C54.4089 3.04372 55.4552 9.74111 48.2693 17.7875C47.3031 18.8703 46.326 19.8109 45.3526 20.6276C45.5094 20.7297 45.6625 20.839 45.8156 20.9521C46.8109 20.1062 47.7662 19.1692 48.6776 18.1521C50.599 16.001 52.0974 13.7661 53.1328 11.5057C53.9677 9.68643 54.5037 7.84528 54.7297 6.0333C55.1271 2.90882 54.4635 0.965593 54.4344 0.885385Z" fill="#4E6262"/>
<path d="M44.9187 20.9812C45.0792 21.0832 45.2359 21.189 45.3891 21.302C45.5349 21.1817 45.6807 21.0614 45.8229 20.9411C45.6698 20.828 45.5167 20.7223 45.3599 20.6166C45.2141 20.7442 45.0682 20.8645 44.9187 20.9812Z" fill="#4E6262"/>
<path d="M39.1802 18.6879C39.0927 18.7718 39.0052 18.852 38.9177 18.9322C39.1948 18.9067 39.4755 18.8957 39.7563 18.8921C42.3958 16.3874 44.8458 13.7988 47.037 11.203C49.7859 7.94364 52.1339 4.65875 54.0187 1.42854C53.9604 1.18791 53.9167 1.06396 53.9167 1.06396C53.9167 1.06396 53.8146 1.04937 53.6177 1.03479C51.7365 4.27229 49.3812 7.57176 46.6214 10.8457C44.3901 13.4999 41.8854 16.1358 39.1802 18.6879Z" fill="#4E6262"/>
<path d="M39.1547 19.4646C39.286 19.3407 39.4172 19.2167 39.5521 19.0928C39.6214 19.0271 39.6906 18.9615 39.7599 18.8959C39.4792 18.8959 39.1985 18.9105 38.9214 18.936C38.688 19.1547 38.4584 19.3698 38.2287 19.5776C38.5313 19.523 38.8412 19.4865 39.1547 19.4646Z" fill="#4E6262"/>
<path d="M54.0224 1.43226C54.0661 1.3557 54.1135 1.27914 54.1573 1.20257C54.2338 1.07132 54.1864 0.903614 54.0588 0.830697C53.9276 0.754134 53.7599 0.80153 53.687 0.929135C53.6651 0.965593 53.6432 1.00205 53.625 1.03851C53.8219 1.04945 53.9239 1.06768 53.9239 1.06768C53.9239 1.06768 53.964 1.19163 54.0224 1.43226Z" fill="#4E6262"/>
<path d="M10.2213 32.2067C9.85312 32.039 9.46301 31.8531 9.05468 31.6453C3.60416 28.8817 1.46041 22.2353 0.96093 20.3942C0.764055 20.2228 0.661971 20.1208 0.647388 20.1098C0.538013 20.0041 0.538013 19.8291 0.643742 19.7234C0.749472 19.6176 0.924471 19.614 1.0302 19.7197C1.03385 19.7234 1.07395 19.7598 1.15051 19.8327C1.94895 19.6359 4.20937 19.151 7.19895 19.1473C9.71822 19.1473 12.7588 19.4937 15.876 20.6458C16.8094 20.9921 17.5713 21.3312 18.1875 21.663C18.3807 21.5572 18.574 21.4588 18.7672 21.3603C18.0453 20.9411 17.1411 20.5291 16.0656 20.1317C13.3167 19.1145 10.3344 18.5968 7.2026 18.5968V19.1437V18.5968C3.41458 18.5968 0.796867 19.3515 0.687492 19.3843C0.410409 19.4645 0.246347 19.7452 0.308326 20.026C0.326555 20.1171 0.800514 22.2499 2.07656 24.8093C2.8276 26.3187 3.7026 27.6604 4.67603 28.8015C5.90468 30.2416 7.29739 31.3609 8.81041 32.1265C9.25885 32.3526 9.68906 32.5604 10.1047 32.7427C10.1302 32.626 10.1557 32.5093 10.1812 32.3927C10.1885 32.3343 10.2031 32.2687 10.2213 32.2067Z" fill="#4E6262"/>
<path d="M12.6896 26.7124C12.7953 26.5557 12.9083 26.4025 13.0177 26.2494C9.23698 24.9333 6.45521 23.4713 4.66146 22.3739C2.6599 21.1489 1.50417 20.1536 1.14688 19.8328C0.942711 19.8838 0.833336 19.9166 0.833336 19.9166C0.833336 19.9166 0.869794 20.0916 0.953648 20.3979C1.45677 20.8354 2.56511 21.7359 4.35156 22.8296C6.15261 23.927 8.92708 25.389 12.6896 26.7124Z" fill="#4E6262"/>
<path d="M1.14686 19.8291C1.0703 19.7598 1.02655 19.7197 1.02655 19.7161C0.917171 19.6103 0.745817 19.6103 0.640088 19.7197C0.534359 19.8291 0.534359 20.0004 0.643734 20.1062C0.658317 20.1207 0.7604 20.2192 0.957275 20.3905C0.873421 20.0843 0.836963 19.9093 0.836963 19.9093C0.836963 19.9093 0.942692 19.8801 1.14686 19.8291Z" fill="#4E6262"/>
<path d="M34.3969 20.5109C34.5792 20.3942 34.7651 20.2848 34.9547 20.1791C34.9693 19.0963 34.838 18.0208 34.5609 16.9525C34.4844 16.6536 34.3932 16.3546 34.2912 16.0557C34.1708 16.2999 34.0578 16.5406 33.9448 16.7775C34.3276 18.1119 34.4443 19.3697 34.3969 20.5109Z" fill="#4E6262"/>
<path d="M34.9292 20.8245C34.9438 20.6094 34.951 20.3943 34.9547 20.1792C34.7651 20.2849 34.5792 20.3943 34.3969 20.511C34.3859 20.7443 34.3714 20.9776 34.3458 21.2C34.5391 21.0688 34.7323 20.9412 34.9292 20.8245Z" fill="#4E6262"/>
<path d="M14.7823 16.5588C9.62708 9.96349 12.3724 5.08537 13.1016 4.01349C12.9812 3.92599 12.9521 3.76193 13.0359 3.63797C13.1198 3.51401 13.2911 3.4812 13.4151 3.5687C13.5099 3.63433 13.6047 3.69995 13.6995 3.76558C13.8708 3.75828 14.0896 3.75464 14.3521 3.75464C17.1885 3.75464 24.9615 4.41453 30.7438 11.1192C32.2057 12.8145 33.1354 14.4624 33.6932 16.0192C33.8026 15.7968 33.912 15.5744 34.025 15.352C33.3906 13.7734 32.4281 12.2348 31.1557 10.7619C29.7776 9.16505 28.188 7.79058 26.4307 6.6786C24.9469 5.73797 23.3245 4.97235 21.6109 4.4036C18.4792 3.36453 15.7156 3.20776 14.3484 3.20776V3.75464V3.20776C13.6339 3.20776 13.2182 3.24787 13.2 3.25151C13.0542 3.2661 12.9229 3.33537 12.8318 3.44839C12.7844 3.50672 11.6505 4.91037 11.2786 7.2838C11.0635 8.66922 11.151 10.102 11.5411 11.5458C12.0224 13.3286 12.9667 15.1296 14.3448 16.8942C15.5625 18.451 17.112 19.9166 18.9568 21.2619C19.15 21.1708 19.3432 21.0869 19.5365 21.0031C17.7901 19.7598 16.1349 18.2869 14.7823 16.5588Z" fill="#4E6262"/>
<path d="M33.9448 16.7776C34.0578 16.5369 34.1708 16.2963 34.2911 16.0557C34.2109 15.8224 34.1234 15.5854 34.0323 15.3521C33.9193 15.5744 33.8099 15.7932 33.7005 16.0192C33.7917 16.2744 33.8719 16.5297 33.9448 16.7776Z" fill="#4E6262"/>
<path d="M21.6875 11.4547C23.813 13.7333 25.7927 16.2307 27.5718 18.8849C28.1041 19.6797 28.5963 20.4562 29.0448 21.1927C29.2307 21.2948 29.413 21.4005 29.5953 21.5099C29.7521 21.6083 29.9015 21.7104 30.051 21.8161C29.4677 20.8135 28.7932 19.7234 28.0349 18.5932C26.2411 15.9135 24.2396 13.3906 22.0958 11.0901C19.4963 8.30104 16.6745 5.8401 13.7031 3.76562C13.4187 3.77656 13.262 3.79115 13.262 3.79115C13.262 3.79115 13.2 3.86771 13.1016 4.01354C13.1052 4.01354 13.1052 4.01719 13.1089 4.01719C16.1458 6.1099 19.0333 8.61094 21.6875 11.4547Z" fill="#4E6262"/>
<path d="M13.7031 3.76563C13.6083 3.7 13.5135 3.63438 13.4187 3.56875C13.2948 3.4849 13.1234 3.51407 13.0396 3.63803C12.9557 3.76198 12.9849 3.92605 13.1052 4.01355C13.2036 3.86771 13.2656 3.79115 13.2656 3.79115C13.2656 3.79115 13.4187 3.77657 13.7031 3.76563Z" fill="#4E6262"/>
<path d="M33.0917 26.5884C34.3422 29.7056 34.2182 33.5994 32.5958 37.2489C32.6578 37.5405 32.7234 37.8249 32.7964 38.1056C33.3688 36.9463 33.8026 35.7431 34.087 34.5035C34.4844 32.7791 34.5792 31.0655 34.3714 29.4103C34.2365 28.3494 33.9813 27.3468 33.6094 26.4098C33.4599 26.4244 33.3141 26.439 33.1719 26.4499C33.1464 26.5009 33.1172 26.5447 33.0917 26.5884Z" fill="#4E6262"/>
<path d="M19.9885 46.338C18.213 46.338 16.4849 45.8859 14.9536 44.9271C11.1911 42.5719 9.64531 37.825 10.6078 32.9724C10.4401 32.9031 10.2687 32.8302 10.0937 32.75C9.76197 34.3542 9.6927 35.9474 9.88593 37.4932C10.0974 39.1594 10.6042 40.6833 11.3989 42.025C12.2229 43.4214 13.3239 44.5552 14.662 45.3937C15.4568 45.8932 16.3245 46.2724 17.2323 46.524C18.1146 46.7682 19.0406 46.8885 19.9885 46.8885C22.1943 46.8885 24.4656 46.225 26.562 44.9708C28.0531 44.0776 29.413 42.9036 30.5724 41.5182C30.4703 41.3542 30.3719 41.1901 30.2734 41.0224C27.4953 44.4203 23.6417 46.338 19.9885 46.338Z" fill="#4E6262"/>
<path d="M32.4245 38.813C32.3516 38.5614 32.2786 38.3062 32.213 38.0437C31.9943 38.4703 31.7573 38.8932 31.4948 39.3088C31.225 39.7427 30.937 40.1546 30.638 40.552C30.7328 40.7234 30.8312 40.8947 30.9333 41.0625C31.2979 40.5958 31.6406 40.1072 31.9578 39.5968C32.1255 39.3416 32.2786 39.0791 32.4245 38.813Z" fill="#4E6262"/>
<path d="M30.6417 40.5557C30.5214 40.7124 30.401 40.8692 30.2734 41.0223C30.3682 41.19 30.4703 41.3541 30.5724 41.5182C30.6964 41.3687 30.8167 41.2192 30.937 41.0661C30.8349 40.8984 30.7365 40.727 30.6417 40.5557Z" fill="#4E6262"/>
<path d="M32.2167 38.0437C32.2823 38.3062 32.3516 38.5614 32.4281 38.813C32.5594 38.5796 32.6833 38.3427 32.8 38.1057C32.7271 37.8249 32.6578 37.5406 32.5995 37.2489C32.4755 37.5187 32.3516 37.7812 32.2167 38.0437Z" fill="#4E6262"/>
<path d="M29.3073 21.9802C29.4203 22.0531 29.5333 22.126 29.6427 22.2025C29.4531 21.8781 29.2563 21.5427 29.0484 21.1999C28.4104 20.8572 27.7323 20.5838 27.0286 20.3906C26.1464 20.1463 25.2203 20.0223 24.276 20.0223V20.5692V20.0223C22.7047 20.0223 21.0969 20.3614 19.5474 21.0067C19.726 21.1343 19.9047 21.2583 20.0833 21.3786C21.4614 20.8463 22.8833 20.5656 24.2724 20.5656C26.0479 20.5656 27.776 21.0213 29.3073 21.9802Z" fill="#4E6262"/>
<path d="M13.2255 26.8983C13.0432 26.8364 12.8646 26.7744 12.6896 26.7124C12.5583 26.9056 12.4271 27.1062 12.3031 27.3067C11.337 28.8489 10.6406 30.4968 10.225 32.2067C10.4 32.2869 10.5677 32.3598 10.7354 32.4291C11.1219 30.7921 11.7963 29.1515 12.7698 27.5947C12.912 27.3577 13.0651 27.1244 13.2255 26.8983Z" fill="#4E6262"/>
<path d="M19.4781 21.6302C19.3031 21.5099 19.1318 21.3859 18.9641 21.2656C18.8948 21.2984 18.8292 21.3313 18.7599 21.3641C18.9568 21.4771 19.1391 21.5938 19.3104 21.7068C19.3687 21.6776 19.4234 21.6521 19.4781 21.6302Z" fill="#4E6262"/>
<path d="M13.0177 26.2458C13.1963 26.3078 13.3786 26.3697 13.5609 26.4317C15.0156 24.4885 16.813 22.9828 18.7417 21.9838C18.5703 21.8781 18.3844 21.7687 18.1838 21.663C18.0234 21.7505 17.8594 21.8453 17.7026 21.94C15.9088 23.0119 14.3083 24.4885 13.0177 26.2458Z" fill="#4E6262"/>
<path d="M30.0547 21.8197C30.3245 22.2827 30.576 22.7312 30.8094 23.1504C30.8823 23.2197 30.9552 23.2926 31.0281 23.3655C31.0755 23.1687 31.1302 22.9645 31.1886 22.753C30.8349 22.414 30.4557 22.1041 30.0547 21.8197Z" fill="#4E6262"/>
<path d="M33.1354 25.3781C33.0479 25.2104 32.9568 25.0464 32.8583 24.8823C32.7052 25.0026 32.5594 25.1193 32.4245 25.2214C32.5594 25.4511 32.6833 25.688 32.8 25.9287C32.8146 25.9287 32.8292 25.9287 32.8474 25.925C32.9385 25.7646 33.037 25.5823 33.1354 25.3781Z" fill="#4E6262"/>
<path d="M31.8958 23.515C31.7791 23.6608 31.6661 23.8103 31.5531 23.9635C31.7609 24.215 31.9541 24.4812 32.1364 24.7546C32.2713 24.6489 32.4135 24.5359 32.5703 24.4155C32.3588 24.102 32.1328 23.7994 31.8958 23.515Z" fill="#4E6262"/>
<path d="M31.6297 23.2124C31.5713 23.4421 31.5167 23.6572 31.4693 23.8614C31.4984 23.8942 31.524 23.9306 31.5531 23.9634C31.6661 23.8103 31.7791 23.6608 31.8958 23.515C31.8083 23.4129 31.7208 23.3108 31.6297 23.2124Z" fill="#4E6262"/>
<path d="M33.6094 26.4135C33.5547 26.2713 33.4964 26.1328 33.4344 25.9943C33.3432 26.1656 33.2557 26.3187 33.1755 26.45C33.3141 26.4427 33.4599 26.4281 33.6094 26.4135Z" fill="#4E6262"/>
<path d="M32.8 25.9286C32.8073 25.9432 32.8146 25.9578 32.8182 25.9724C32.8255 25.9578 32.8364 25.9432 32.8437 25.9286C32.8291 25.9286 32.8146 25.9286 32.8 25.9286Z" fill="#4E6262"/>
<path d="M31.1849 22.7532C31.1265 22.9683 31.0755 23.1724 31.0245 23.3657C31.0791 23.4204 31.1338 23.4787 31.1849 23.537C31.2943 23.3875 31.4073 23.2417 31.524 23.0995C31.4146 22.9829 31.3016 22.8662 31.1849 22.7532Z" fill="#4E6262"/>
<path d="M31.5276 23.0995C31.4109 23.2417 31.2979 23.3875 31.1886 23.537C31.287 23.6427 31.3781 23.7484 31.4729 23.8578C31.5203 23.6537 31.575 23.4385 31.6333 23.2089C31.5969 23.176 31.5604 23.1396 31.5276 23.0995Z" fill="#4E6262"/>
<path d="M32.5667 24.4156C32.4135 24.536 32.2677 24.649 32.1328 24.7547C32.2349 24.9078 32.3297 25.0646 32.4208 25.2214C32.5557 25.1156 32.7015 25.0026 32.8547 24.8823C32.7672 24.7219 32.6687 24.5688 32.5667 24.4156Z" fill="#4E6262"/>
<path d="M10.7281 32.4292C10.564 32.3599 10.3927 32.2833 10.2177 32.2068C10.2031 32.2724 10.1849 32.3344 10.1703 32.4C10.1448 32.5167 10.1193 32.6334 10.0937 32.75C10.2687 32.8266 10.4401 32.9031 10.6078 32.9724C10.6479 32.7901 10.688 32.6115 10.7281 32.4292Z" fill="#4E6262"/>
<path d="M18.738 21.9838C18.9276 21.8854 19.1172 21.7906 19.3104 21.7031C19.1427 21.5864 18.9568 21.4734 18.7599 21.3604C18.5667 21.4551 18.3734 21.5572 18.1802 21.663C18.3844 21.7687 18.5703 21.8781 18.738 21.9838Z" fill="#4E6262"/>
<path d="M12.6896 26.7125C12.8646 26.7745 13.0469 26.8365 13.2255 26.8985C13.3349 26.7417 13.4479 26.5849 13.5609 26.4355C13.3787 26.3735 13.1964 26.3115 13.0177 26.2495C12.9047 26.399 12.7953 26.5558 12.6896 26.7125Z" fill="#4E6262"/>
<path d="M33.3833 25.8848C33.3031 25.7135 33.2229 25.5421 33.1354 25.3781C33.0333 25.5822 32.9349 25.7645 32.8437 25.9249C33.0151 25.9176 33.1937 25.9031 33.3833 25.8848Z" fill="#4E6262"/>
<path d="M20.0833 21.3786C19.9047 21.2583 19.7224 21.1307 19.5474 21.0067C19.3542 21.0869 19.1609 21.1744 18.9677 21.2656C19.1354 21.3895 19.3068 21.5098 19.4818 21.6301C19.6786 21.539 19.8792 21.4551 20.0833 21.3786Z" fill="#4E6262"/>
<path d="M33.037 26.4609C33.0552 26.5046 33.0734 26.5447 33.088 26.5885C33.1135 26.5447 33.1427 26.501 33.1719 26.45C33.1281 26.4572 33.0844 26.4572 33.037 26.4609Z" fill="#4E6262"/>
<path d="M32.8474 25.9286C32.8401 25.9432 32.8292 25.9578 32.8219 25.9724C32.8984 26.1328 32.9714 26.2969 33.0406 26.4609C33.0844 26.4573 33.1318 26.4536 33.1755 26.45C33.2557 26.3151 33.3432 26.1656 33.4344 25.9943C33.4198 25.9578 33.4016 25.9213 33.387 25.8849C33.1938 25.9031 33.0151 25.9177 32.8474 25.9286Z" fill="#4E6262"/>
<path d="M29.599 21.5135C29.4203 21.4005 29.2344 21.2947 29.0484 21.1963C29.2563 21.539 29.4568 21.8744 29.6427 22.1989C30.062 22.4869 30.4484 22.8041 30.8057 23.1505C30.576 22.7275 30.3245 22.2828 30.051 21.8197C29.9052 21.714 29.7521 21.6119 29.599 21.5135Z" fill="#4E6262"/>
<path d="M14.9536 45.2005C14.8807 45.2005 14.8115 45.1713 14.7604 45.1202C14.7021 45.0619 14.6729 44.9853 14.6802 44.9051C14.6911 44.7739 14.9536 41.6786 16.6453 37.3911C16.7 37.2489 16.8604 37.1833 16.999 37.2379C17.1411 37.2926 17.2068 37.453 17.1521 37.5916C15.8177 40.9786 15.3839 43.6583 15.2635 44.5916C15.6865 44.4895 16.4885 44.2343 17.5094 43.6109C20.087 42.0322 22.0594 39.3489 23.2589 37.3801C23.3391 37.2525 23.5068 37.2088 23.6344 37.289C23.762 37.3692 23.8057 37.5369 23.7255 37.6645C22.7375 39.2906 21.6656 40.6978 20.5427 41.8463C19.6385 42.7687 18.7016 43.5307 17.7536 44.1031C16.1203 45.0947 15.0193 45.1968 14.9755 45.2005C14.9719 45.2005 14.9646 45.2005 14.9536 45.2005Z" fill="#4E6262"/>
<path d="M17.1484 45.3828C15.8323 45.3828 14.9682 45.2078 14.899 45.1932C14.8516 45.1822 14.8078 45.1604 14.775 45.1312C14.724 45.0874 13.55 44.0302 12.8135 41.9046C12.3833 40.6614 12.1901 39.3088 12.2411 37.8833C12.3068 36.1114 12.7516 34.2192 13.5646 32.2614C13.6229 32.1229 13.7833 32.0572 13.9219 32.1119C14.0604 32.1703 14.126 32.3307 14.0713 32.4692C13.2875 34.3578 12.8573 36.177 12.7917 37.876C12.7406 39.2286 12.9193 40.5119 13.3203 41.6895C13.8453 43.2208 14.6729 44.2744 15.0849 44.6682C15.5771 44.7557 18.5521 45.2041 21.826 44.0447C23.9115 43.3083 25.7088 42.0687 27.1745 40.3661C29.012 38.226 30.3245 35.3421 31.0792 31.7911C31.112 31.6416 31.2542 31.5505 31.4036 31.5796C31.5531 31.6125 31.6443 31.7546 31.6151 31.9041C30.8385 35.5536 29.4823 38.5249 27.5792 40.7343C26.0479 42.5098 24.1667 43.8005 21.9865 44.5661C20.1526 45.2187 18.4354 45.3828 17.1484 45.3828Z" fill="#4E6262"/>
<path d="M55.1235 26.4025C54.974 26.4025 54.85 26.2786 54.85 26.1291V23.7411C54.85 23.5916 54.974 23.4677 55.1235 23.4677C55.2729 23.4677 55.3969 23.5916 55.3969 23.7411V26.1291C55.3969 26.2822 55.2729 26.4025 55.1235 26.4025Z" fill="#4E6262"/>
<path d="M55.962 25.2103H54.2849C54.1354 25.2103 54.0115 25.0864 54.0115 24.9369C54.0115 24.7874 54.1354 24.6635 54.2849 24.6635H55.962C56.1115 24.6635 56.2354 24.7874 56.2354 24.9369C56.2354 25.0864 56.1115 25.2103 55.962 25.2103Z" fill="#4E6262"/>
<path d="M52.5057 22.2208C52.3563 22.2208 52.2323 22.0968 52.2323 21.9474V17.8932C52.2323 17.7437 52.3563 17.6198 52.5057 17.6198C52.6552 17.6198 52.7792 17.7437 52.7792 17.8932V21.9437C52.7792 22.0968 52.6552 22.2208 52.5057 22.2208Z" fill="#4E6262"/>
<path d="M53.7307 20.1937H51.2771C51.1276 20.1937 51.0037 20.0698 51.0037 19.9203C51.0037 19.7708 51.1276 19.6469 51.2771 19.6469H53.7307C53.8802 19.6469 54.0042 19.7708 54.0042 19.9203C54.0042 20.0698 53.8839 20.1937 53.7307 20.1937Z" fill="#4E6262"/>
</svg>
