<svg width="51" height="53" viewBox="0 0 51 53" fill="none" xmlns="http://www.w3.org/2000/svg">
<path d="M4.86666 6.60413C17.8708 7.2208 26.675 2.5083 26.675 2.5083C26.675 2.5083 35.4792 7.21663 48.4833 6.60413C48.4833 6.60413 48.7917 18.0708 48.7917 23.0875C48.7917 28.1041 46.3333 43.1541 26.6792 52.1625C7.02082 43.1541 4.56666 28.1041 4.56666 23.0875C4.56666 18.0708 4.86666 6.60413 4.86666 6.60413ZM26.6708 48.4166C43.3625 40.7666 45.4458 27.9875 45.4458 23.7291C45.4458 19.4708 45.1833 9.7333 45.1833 9.7333C34.1458 10.2541 26.6667 6.2583 26.6667 6.2583C26.6667 6.2583 19.1917 10.2583 8.14999 9.7333C8.14999 9.7333 7.88749 19.4708 7.88749 23.7291C7.88749 27.9875 9.98333 40.7666 26.6708 48.4166Z" fill="#87CAED" fill-opacity="0.6"/>
<path d="M28.05 32.3041C28.1333 32.3041 28.2125 32.2707 28.275 32.2082L34.7708 25.5541C34.8917 25.4291 34.8875 25.2332 34.7667 25.1124C34.6458 24.9916 34.4458 24.9957 34.325 25.1166L28.0333 31.5666L1.00835 8.32908C0.879189 8.21658 0.679188 8.23324 0.566689 8.36241C0.454189 8.49158 0.470856 8.69157 0.600025 8.80407L27.8458 32.2332C27.9042 32.2791 27.9792 32.3041 28.05 32.3041Z" fill="#4E6262"/>
<path d="M28.1292 51.1834C28.175 51.1834 28.2167 51.175 28.2583 51.1542C32.8458 49.05 36.8292 46.4625 40.0875 43.4625C42.8417 40.9292 45.1083 38.0792 46.8292 34.9875C48.2042 32.5209 49.2208 29.9209 49.8542 27.2584C50.4625 24.7042 50.5542 22.7375 50.5542 21.7917C50.5542 16.8292 50.25 5.41253 50.2458 5.30002C50.2417 5.21669 50.2083 5.13752 50.1458 5.07919C50.0833 5.02086 50.0042 4.99169 49.9167 4.99586C43.25 5.31252 37.725 4.19169 34.2583 3.19586C30.5 2.11669 28.2917 0.950024 28.2708 0.937524C28.1792 0.887524 28.0667 0.887524 27.975 0.937524C27.9542 0.950024 25.7458 2.11669 21.9875 3.19586C18.5208 4.19169 12.9958 5.30836 6.32915 4.99586C6.24582 4.99169 6.16248 5.02086 6.09998 5.07919C6.03748 5.13752 6.00415 5.21669 5.99998 5.30002C5.99581 5.41669 5.69165 16.8292 5.69165 21.7917C5.69165 22.7375 5.78332 24.7 6.39165 27.2584C7.02499 29.9167 8.04165 32.5167 9.41665 34.9875C11.1375 38.075 13.4042 40.9292 16.1583 43.4625C19.4208 46.4625 23.4 49.0542 27.9875 51.1542C28.0417 51.175 28.0875 51.1834 28.1292 51.1834ZM49.6333 5.63752C49.6833 7.52502 49.9333 17.3084 49.9333 21.7959C49.9333 22.7125 49.8458 24.6209 49.25 27.1167C48.6292 29.7209 47.6333 32.2667 46.2875 34.6834C44.6 37.7125 42.3708 40.5125 39.6667 43.0042C36.4833 45.9334 32.6042 48.4625 28.1292 50.5292C23.6542 48.4625 19.775 45.9334 16.5917 43.0042C13.8875 40.5167 11.6625 37.7167 9.97082 34.6834C8.62498 32.2667 7.62914 29.7209 7.00831 27.1167C6.41248 24.6209 6.32498 22.7125 6.32498 21.7959C6.32498 17.3084 6.57498 7.52502 6.62498 5.63752C9.50415 5.75419 12.4083 5.62086 15.2542 5.24169C17.6167 4.92502 19.95 4.43752 22.1875 3.79586C25.4917 2.84586 27.5708 1.85002 28.1292 1.57086C28.6833 1.85002 30.7667 2.84586 34.0708 3.79586C36.3083 4.43752 38.6375 4.92502 41.0042 5.24169C43.85 5.62086 46.7542 5.75419 49.6333 5.63752Z" fill="#4E6262"/>
<path d="M28.1292 47.4375C28.175 47.4375 28.2167 47.4292 28.2583 47.4084C32.1583 45.6209 35.5417 43.4209 38.3167 40.8667C40.6583 38.7125 42.5875 36.2875 44.05 33.6584C45.2208 31.5584 46.0833 29.3459 46.625 27.0834C47.1417 24.9084 47.2208 23.2375 47.2208 22.4334C47.2208 18.2167 46.9625 8.52921 46.9583 8.42921C46.9542 8.34587 46.9208 8.26671 46.8583 8.20837C46.7958 8.15004 46.7167 8.12087 46.6292 8.12504C40.9792 8.39171 36.2917 7.44171 33.3542 6.60004C30.1667 5.68754 28.2958 4.69587 28.2792 4.68337C28.1875 4.63337 28.075 4.63337 27.9833 4.68337C27.9667 4.69171 26.0917 5.68338 22.9083 6.60004C19.9708 7.44171 15.2833 8.39171 9.63333 8.12504C9.54999 8.12087 9.46666 8.15004 9.40416 8.20837C9.34166 8.26671 9.30833 8.34587 9.30416 8.42921C9.3 8.52504 9.04166 18.2167 9.04166 22.4334C9.04166 23.2375 9.12083 24.9084 9.6375 27.0834C10.175 29.3459 11.0417 31.5584 12.2125 33.6584C13.675 36.2875 15.6042 38.7125 17.9458 40.8667C20.7167 43.4167 24.1 45.6167 28 47.4084C28.0417 47.425 28.0875 47.4375 28.1292 47.4375ZM46.3417 8.76671C46.3875 10.4792 46.5958 18.6625 46.5958 22.4375C46.5958 23.2125 46.5208 24.8292 46.0167 26.9417C45.4917 29.15 44.6458 31.3084 43.5042 33.3542C42.075 35.925 40.1875 38.2959 37.8917 40.4042C35.2 42.8834 31.9125 45.025 28.1292 46.775C24.3417 45.025 21.0583 42.8834 18.3667 40.4042C16.075 38.2959 14.1875 35.9209 12.7542 33.3542C11.6125 31.3042 10.7667 29.1459 10.2417 26.9417C9.7375 24.8292 9.66249 23.2125 9.66249 22.4375C9.66249 18.6625 9.87083 10.4834 9.91666 8.76671C10.4792 8.78754 11.0333 8.80004 11.575 8.80004C16.4375 8.80004 20.4583 7.95837 23.0958 7.20004C25.8625 6.40421 27.625 5.57087 28.1292 5.31671C28.6333 5.57087 30.3917 6.40421 33.1625 7.20004C35.8 7.95837 39.825 8.80004 44.6833 8.80004C45.225 8.80004 45.7792 8.78754 46.3417 8.76671Z" fill="#4E6262"/>
<path d="M38.725 19.5292C38.8958 19.5292 39.0375 19.3876 39.0375 19.2167V16.4875C39.0375 16.3167 38.8958 16.175 38.725 16.175C38.5542 16.175 38.4125 16.3167 38.4125 16.4875V19.2167C38.4125 19.3917 38.55 19.5292 38.725 19.5292Z" fill="#4E6262"/>
<path d="M37.7625 18.1667H39.6792C39.85 18.1667 39.9917 18.0251 39.9917 17.8542C39.9917 17.6834 39.85 17.5417 39.6792 17.5417H37.7625C37.5917 17.5417 37.45 17.6834 37.45 17.8542C37.45 18.0251 37.5917 18.1667 37.7625 18.1667Z" fill="#4E6262"/>
<path d="M34.0417 18.1667C34.2125 18.1667 34.3542 18.025 34.3542 17.8542V13.2208C34.3542 13.05 34.2125 12.9083 34.0417 12.9083C33.8708 12.9083 33.7292 13.05 33.7292 13.2208V17.85C33.7292 18.025 33.8708 18.1667 34.0417 18.1667Z" fill="#4E6262"/>
<path d="M32.6417 15.85H35.4458C35.6167 15.85 35.7583 15.7083 35.7583 15.5375C35.7583 15.3666 35.6167 15.225 35.4458 15.225H32.6417C32.4708 15.225 32.3292 15.3666 32.3292 15.5375C32.3292 15.7083 32.4667 15.85 32.6417 15.85Z" fill="#4E6262"/>
<path d="M20.6917 37.6209C20.8625 37.6209 21.0042 37.4792 21.0042 37.3084V32.6792C21.0042 32.5084 20.8625 32.3667 20.6917 32.3667C20.5208 32.3667 20.3792 32.5084 20.3792 32.6792V37.3084C20.3792 37.4834 20.5167 37.6209 20.6917 37.6209Z" fill="#4E6262"/>
<path d="M19.2875 35.3083H22.0917C22.2625 35.3083 22.4042 35.1667 22.4042 34.9958C22.4042 34.825 22.2625 34.6833 22.0917 34.6833H19.2875C19.1167 34.6833 18.975 34.825 18.975 34.9958C18.975 35.1667 19.1167 35.3083 19.2875 35.3083Z" fill="#4E6262"/>
</svg>
