<svg width="67" height="66" viewBox="0 0 67 66" fill="none" xmlns="http://www.w3.org/2000/svg">
<path d="M52.0161 46.0045L47.3308 41.3192C47.1994 41.1878 47.1994 40.9703 47.3308 40.8389C47.4622 40.7075 47.6797 40.7075 47.8111 40.8389L52.0116 45.0393L56.1939 40.7664C56.3253 40.6305 56.5383 40.6305 56.6742 40.7619C56.8102 40.8933 56.8102 41.1062 56.6787 41.2422L52.0161 46.0045Z" fill="#87CAED"/>
<path d="M52.0115 65.8152C51.8258 65.8152 51.6717 65.6611 51.6717 65.4753V39.4886C51.6717 39.3028 51.8258 39.1487 52.0115 39.1487C52.1973 39.1487 52.3514 39.3028 52.3514 39.4886V65.4753C52.3514 65.6611 52.1973 65.8152 52.0115 65.8152Z" fill="#87CAED"/>
<path d="M47.5709 64.3062C47.4848 64.3062 47.3987 64.2745 47.3353 64.2111C47.1993 64.0797 47.1993 63.8667 47.3308 63.7308L51.9934 58.9684L56.6788 63.6537C56.8102 63.7851 56.8102 64.0026 56.6788 64.134C56.5473 64.2654 56.3298 64.2654 56.1984 64.134L51.998 59.9336L47.8156 64.2065C47.7476 64.2745 47.6615 64.3062 47.5709 64.3062Z" fill="#87CAED"/>
<path d="M64.1417 50.7986C64.1146 50.7986 64.0874 50.794 64.0602 50.7895L57.585 49.199L59.2389 42.7828C59.2842 42.6015 59.47 42.4928 59.6512 42.5381C59.8325 42.5834 59.9413 42.7692 59.8959 42.9504L58.4142 48.7006L64.2188 50.1279C64.4 50.1733 64.5133 50.359 64.468 50.5403C64.4363 50.6989 64.2958 50.7986 64.1417 50.7986Z" fill="#87CAED"/>
<path d="M40.8194 59.4351C40.7016 59.4351 40.5883 59.3762 40.5248 59.2675C40.4297 59.1043 40.4841 58.8959 40.6426 58.8007L63.0179 45.5876C63.181 45.4925 63.3895 45.5469 63.4846 45.7055C63.5798 45.8686 63.5254 46.077 63.3668 46.1722L40.9916 59.3853C40.9372 59.417 40.8783 59.4351 40.8194 59.4351Z" fill="#87CAED"/>
<path d="M44.4353 62.4394C44.4081 62.4394 44.3809 62.4349 44.3492 62.4303C44.1679 62.385 44.0592 62.1992 44.1045 62.018L45.5862 56.2678L39.7817 54.8405C39.6005 54.7952 39.4872 54.6094 39.5325 54.4281C39.5778 54.2469 39.7636 54.1336 39.9448 54.1789L46.4199 55.7694L44.766 62.1857C44.7253 62.3397 44.5848 62.4394 44.4353 62.4394Z" fill="#87CAED"/>
<path d="M59.6966 62.4304C59.5471 62.4304 59.4111 62.3307 59.3703 62.1811L57.5986 55.7558L64.0058 54.0656C64.1871 54.0158 64.3729 54.1245 64.4227 54.3058C64.4726 54.487 64.3638 54.6728 64.1826 54.7226L58.4414 56.2406L60.0319 62.0044C60.0817 62.1857 59.9775 62.3714 59.7963 62.4213C59.7555 62.4258 59.7238 62.4304 59.6966 62.4304Z" fill="#87CAED"/>
<path d="M63.2309 59.3672C63.172 59.3672 63.1131 59.3536 63.0588 59.3219L40.6019 46.2492C40.4388 46.154 40.3844 45.9456 40.4795 45.7825C40.5747 45.6194 40.7831 45.565 40.9463 45.6601L63.4031 58.7328C63.5663 58.828 63.6206 59.0364 63.5255 59.1995C63.462 59.3038 63.3488 59.3672 63.2309 59.3672Z" fill="#87CAED"/>
<path d="M39.9131 50.9163C39.7636 50.9163 39.6231 50.8167 39.5869 50.6626C39.537 50.4813 39.6458 50.2956 39.827 50.2457L45.5682 48.7278L43.9777 42.964C43.9279 42.7828 44.0321 42.597 44.2133 42.5472C44.3946 42.4973 44.5804 42.6015 44.6302 42.7828L46.4019 49.2081L39.9947 50.8982C39.972 50.9118 39.9403 50.9163 39.9131 50.9163Z" fill="#87CAED"/>
<g opacity="0.4">
<path d="M8.66109 41.8312C8.66109 41.8312 4.85031 51.3786 9.16406 57.813C14.2255 65.3665 24.4933 65.7744 24.4933 65.7744C24.4933 65.7744 28.5714 57.5139 23.5689 49.199C19.3639 42.2119 8.66109 41.8312 8.66109 41.8312Z" fill="#91BF4B"/>
</g>
<path d="M55.8586 9.44189C59.2162 11.3813 60.3672 15.6723 58.4278 19.03C56.4884 22.3876 52.1973 23.5386 48.8397 21.5992C45.482 19.6598 44.3311 15.3688 46.2705 12.0111C48.2098 8.65345 52.5009 7.50252 55.8586 9.44189Z" fill="#F9E599"/>
<path d="M24.3981 18.2914C26.9764 17.145 28.1817 14.2178 27.0897 11.7619C25.9977 9.31046 23.0161 8.24561 20.4378 9.39202C20.0345 9.57327 19.6086 9.88592 19.1555 10.33C19.5044 9.54608 19.6811 8.87092 19.6811 8.31811C19.6811 5.49967 17.497 3.20233 14.81 3.20233C12.123 3.20233 9.93891 5.49514 9.93891 8.31811C9.93891 8.93889 10.1609 9.70467 10.6005 10.6155C10.0477 10.0128 9.52656 9.60499 9.04172 9.38749C7.79563 8.83467 6.41812 8.77124 5.1675 9.21983C3.90781 9.66842 2.92 10.5701 2.38984 11.7619C1.29781 14.2133 2.50765 17.145 5.0814 18.2914C5.58437 18.518 6.26859 18.6267 7.125 18.6267C7.35156 18.6267 7.59172 18.6176 7.84547 18.604C7.13859 18.9665 6.61297 19.3472 6.28219 19.7505C4.47875 21.9209 4.69172 25.0792 6.75797 26.7965C7.60984 27.5034 8.66563 27.8795 9.77578 27.8795C9.97063 27.8795 10.17 27.8659 10.3694 27.8433C11.6925 27.6847 12.8978 27.0231 13.7678 25.9764C14.1756 25.4825 14.5064 24.7167 14.7556 23.679C15.0049 24.7167 15.3356 25.487 15.7434 25.9764C16.7811 27.227 18.2674 27.875 19.7309 27.875C20.8094 27.875 21.8788 27.5215 22.7578 26.792C24.8241 25.0747 25.037 21.9164 23.2336 19.7459C22.9028 19.3472 22.3772 18.962 21.6749 18.604C21.9105 18.6176 22.1325 18.6267 22.3455 18.6267C23.211 18.6267 23.8952 18.518 24.3981 18.2914ZM18.358 17.7114V17.7159C18.358 17.7159 18.358 17.7205 18.3534 17.7205C18.2809 17.9198 18.1858 18.1147 18.0816 18.3005C17.4109 19.4605 16.2056 20.1764 14.8644 20.2126C14.8009 20.2126 14.733 20.2126 14.6695 20.2126C14.0397 20.1945 13.4098 20.0178 12.8616 19.7006C12.0913 19.2565 11.4977 18.5542 11.1895 17.7205C11.1895 17.7159 11.185 17.7159 11.185 17.7114C11.185 17.7069 11.185 17.7023 11.1805 17.7023C10.7908 16.6375 10.895 15.4594 11.4614 14.4806C11.6834 14.0955 11.9689 13.7556 12.3088 13.4701C12.3631 13.4248 12.3994 13.3659 12.4175 13.3025C12.4809 13.3025 12.5489 13.2844 12.6078 13.2436C13.8177 12.4144 15.4172 12.3509 16.6859 13.085C16.7902 13.1439 16.8944 13.2119 16.9986 13.2844C17.0349 13.3115 17.0802 13.3297 17.1209 13.3387C17.1436 13.3795 17.1708 13.4158 17.207 13.4475C18.4577 14.4715 18.9199 16.1889 18.358 17.7114Z" fill="#D6CAEA"/>
<path d="M16.0968 11.9159C16.0243 11.9159 15.9564 11.8933 15.8975 11.8525C15.7978 11.78 15.6936 11.712 15.5848 11.6531C14.3161 10.9191 12.7165 10.9825 11.5067 11.8117C11.3526 11.9159 11.1442 11.8797 11.0354 11.7256C9.58544 9.64579 8.85138 8.01907 8.85138 6.89532C8.85138 4.07688 11.0354 1.77954 13.7225 1.77954C16.4095 1.77954 18.5936 4.07235 18.5936 6.89532C18.5936 8.03266 17.8459 9.67298 16.3778 11.7709C16.3279 11.8434 16.2464 11.8933 16.1558 11.9114C16.1376 11.9114 16.115 11.9159 16.0968 11.9159ZM15.9292 11.0641C15.9564 11.0777 15.9836 11.0958 16.0062 11.1094C17.2523 9.28329 17.9139 7.82876 17.9139 6.89532C17.9139 4.44845 16.0334 2.45923 13.7225 2.45923C11.4115 2.45923 9.5356 4.44845 9.5356 6.89532C9.5356 7.82423 10.1836 9.26063 11.4161 11.0731C12.7981 10.2666 14.5336 10.2575 15.9292 11.0641Z" fill="#4E6262"/>
<path d="M21.258 17.1994C20.2475 17.1994 18.9969 17.0453 17.5106 16.7327C17.4155 16.7145 17.3294 16.6511 17.2841 16.565C17.2342 16.4789 17.2297 16.3747 17.2614 16.2841C17.8233 14.7616 17.3611 13.0442 16.1059 12.0156C15.9745 11.9069 15.9428 11.7166 16.0334 11.5716C17.2569 9.60954 18.3716 8.3997 19.3412 7.9647C21.9195 6.81829 24.9011 7.88313 25.9931 10.3345C27.0852 12.7859 25.8799 15.7177 23.3016 16.8641C22.7986 17.0861 22.1144 17.1994 21.258 17.1994ZM18.0227 16.1436C21.0042 16.7327 22.3908 16.5288 23.0252 16.2433C25.2591 15.2509 26.3149 12.7225 25.3723 10.6109C24.4344 8.49938 21.8516 7.59313 19.6177 8.58548C18.8202 8.93892 17.8369 10.0083 16.763 11.6849C17.9773 12.8267 18.4577 14.5441 18.0227 16.1436Z" fill="#4E6262"/>
<path d="M6.04203 17.1994C5.18562 17.1994 4.5014 17.0861 3.99843 16.8641C1.42014 15.7177 0.214827 12.7905 1.30686 10.3345C1.83702 9.14282 2.82483 8.2411 4.08452 7.79251C5.33968 7.34844 6.71265 7.40735 7.95875 7.96016C8.93297 8.39517 10.0522 9.61861 11.2847 11.5942C11.3753 11.7392 11.3436 11.925 11.2167 12.0338C10.8769 12.3192 10.5914 12.6591 10.3694 13.0442C9.80297 14.0275 9.69875 15.2011 10.0884 16.266C10.1202 16.3566 10.1156 16.4608 10.0658 16.5469C10.0159 16.633 9.93438 16.6964 9.83922 16.7146C8.33484 17.0408 7.06609 17.1994 6.04203 17.1994ZM5.79734 8.1822C5.29437 8.1822 4.7914 8.26829 4.31108 8.43595C3.22811 8.82111 2.38077 9.59142 1.92764 10.611C0.989671 12.7225 2.04092 15.2464 4.27484 16.2433C5.18562 16.6511 6.93015 16.6104 9.33172 16.1346C9.01906 14.9836 9.17766 13.7557 9.78032 12.7135C9.99328 12.3464 10.2516 12.0111 10.5552 11.7211C9.47219 10.0264 8.48437 8.94798 7.68234 8.59001C7.07515 8.31813 6.43625 8.1822 5.79734 8.1822Z" fill="#4E6262"/>
<path d="M8.6928 26.4522C7.57811 26.4522 6.52686 26.0761 5.67499 25.3692C3.60874 23.6519 3.39577 20.4936 5.19921 18.3231C5.89249 17.4894 7.40139 16.7372 9.68514 16.0847C9.85733 16.0348 10.034 16.1255 10.0975 16.2931C10.4056 17.1269 10.9992 17.8292 11.7695 18.2733C12.3223 18.5905 12.9476 18.7672 13.5775 18.7853C13.7542 18.7898 13.8947 18.9258 13.9083 19.098C13.9354 19.4786 13.9717 19.8456 14.0125 20.1945C14.017 20.2217 14.017 20.2489 14.0125 20.2716C13.7723 22.3423 13.3237 23.7787 12.6894 24.5445C11.8194 25.5912 10.6095 26.2573 9.29092 26.4114C9.08701 26.4386 8.88764 26.4522 8.6928 26.4522ZM9.57639 16.8233C7.61436 17.4078 6.28671 18.0739 5.7203 18.7581C4.15702 20.6386 4.32921 23.3709 6.10546 24.8481C6.96186 25.5595 8.06295 25.8812 9.20483 25.7453C10.3512 25.6094 11.4025 25.0294 12.1637 24.1186C12.7029 23.4706 13.1062 22.1294 13.3328 20.2398C13.3056 19.9861 13.2784 19.7233 13.2558 19.4514C12.6169 19.3925 11.9915 19.1931 11.4297 18.8669C10.614 18.3911 9.96608 17.6752 9.57639 16.8233Z" fill="#4E6262"/>
<path d="M18.6479 26.4477C17.1798 26.4477 15.6981 25.7952 14.6604 24.5491C14.0261 23.7833 13.5775 22.3469 13.3373 20.2761C13.3328 20.2489 13.3328 20.2217 13.3373 20.1991C13.3781 19.8502 13.4144 19.4831 13.4415 19.1025C13.4551 18.9303 13.5956 18.7944 13.7723 18.7899C15.1181 18.7581 16.3189 18.0422 16.9895 16.8777C17.0937 16.6919 17.1889 16.497 17.2614 16.2977C17.3248 16.13 17.5015 16.0394 17.6737 16.0892C19.9529 16.7417 21.4573 17.4939 22.1461 18.3231C23.9495 20.4936 23.7365 23.6519 21.6703 25.3692C20.7958 26.0942 19.7264 26.4477 18.6479 26.4477ZM14.0125 20.2353C14.239 22.1249 14.6423 23.4661 15.1815 24.1141C16.7448 25.9945 19.4636 26.3208 21.2398 24.8436C23.0161 23.3664 23.1883 20.6341 21.625 18.7536C21.0586 18.0739 19.7309 17.4078 17.7779 16.8233C17.719 16.9547 17.6511 17.0861 17.5786 17.213C16.84 18.4908 15.5531 19.3109 14.094 19.4469C14.0714 19.7142 14.0442 19.9816 14.0125 20.2353Z" fill="#4E6262"/>
<path d="M13.6727 20.5751C13.5005 20.5751 13.3555 20.4483 13.3373 20.2761C13.2966 19.9181 13.2603 19.542 13.2286 19.1523C13.2195 19.0572 13.2558 18.962 13.3192 18.894C13.3872 18.8261 13.4778 18.7853 13.573 18.7898C13.6364 18.7898 13.6998 18.7898 13.7678 18.7898C13.863 18.7853 13.9581 18.8261 14.0216 18.894C14.0895 18.962 14.1213 19.0572 14.1122 19.1523C14.085 19.542 14.0488 19.9181 14.0034 20.2761C13.9899 20.4437 13.8449 20.5751 13.6727 20.5751Z" fill="#4E6262"/>
<path d="M13.7225 11.1411C13.7225 11.1411 13.7179 11.1411 13.7225 11.1411C13.5322 11.1411 13.3826 10.987 13.3826 10.8012L13.3962 6.6597C13.3962 6.47392 13.5503 6.31985 13.7361 6.31985C13.9218 6.31985 14.0759 6.47392 14.0759 6.6597L14.0623 10.8012C14.0623 10.987 13.9082 11.1411 13.7225 11.1411Z" fill="#4E6262"/>
<path d="M9.36796 13.8055C9.33624 13.8055 9.30452 13.801 9.2728 13.7919L5.90155 12.8086C5.7203 12.7542 5.61608 12.5685 5.67046 12.3872C5.72483 12.206 5.91062 12.1017 6.09187 12.1561L9.46765 13.1394C9.6489 13.1938 9.75312 13.3796 9.69874 13.5608C9.65343 13.7103 9.51749 13.8055 9.36796 13.8055Z" fill="#4E6262"/>
<path d="M8.95561 21.9255C8.89218 21.9255 8.82874 21.9073 8.76983 21.8711C8.61124 21.7669 8.57046 21.5584 8.67015 21.3998L10.8225 18.1192C10.9267 17.9606 11.1351 17.9199 11.2937 18.0195C11.4523 18.1238 11.4931 18.3322 11.3934 18.4908L9.24108 21.7714C9.17312 21.8711 9.06436 21.9255 8.95561 21.9255Z" fill="#4E6262"/>
<path d="M18.5891 21.8439C18.4848 21.8439 18.3852 21.7986 18.3172 21.7125L16.0878 18.808C15.9745 18.6585 16.0017 18.4455 16.1513 18.3322C16.3008 18.2189 16.5138 18.2461 16.627 18.3956L18.8564 21.3002C18.9697 21.4497 18.9425 21.6627 18.793 21.7759C18.7341 21.8213 18.6616 21.8439 18.5891 21.8439Z" fill="#4E6262"/>
<path d="M17.9637 13.9278C17.8233 13.9278 17.6919 13.8417 17.642 13.7013C17.5786 13.5246 17.6692 13.3297 17.8459 13.2663L21.2081 12.0564C21.3849 11.993 21.5797 12.0836 21.6431 12.2603C21.7066 12.437 21.616 12.6319 21.4392 12.6953L18.077 13.9052C18.0408 13.9188 18 13.9278 17.9637 13.9278Z" fill="#4E6262"/>
<path d="M51.1325 7.77435C52.2381 7.77435 53.3302 8.06889 54.2953 8.62623C55.7635 9.47357 56.8102 10.842 57.2497 12.4778C57.6892 14.1136 57.4627 15.8219 56.6153 17.29C56.0489 18.2733 55.2288 19.0844 54.25 19.6372C53.2939 20.1764 52.2155 20.4619 51.1189 20.4619C50.0133 20.4619 48.9213 20.1673 47.9561 19.61C46.488 18.7626 45.4413 17.3942 45.0017 15.7584C44.5622 14.1226 44.7888 12.4144 45.6361 10.9462C46.2025 9.96295 47.0227 9.15185 48.0014 8.59904C48.953 8.05982 50.036 7.77435 51.1325 7.77435ZM51.1325 7.09467C48.7083 7.09467 46.3475 8.35435 45.0471 10.6064C43.1077 13.964 44.2586 18.2551 47.6163 20.1945C48.7219 20.8334 49.9272 21.137 51.1189 21.137C53.5431 21.137 55.9039 19.8773 57.2044 17.6253C59.1438 14.2676 57.9928 9.97654 54.6352 8.03717C53.5295 7.39826 52.3242 7.09467 51.1325 7.09467Z" fill="#4E6262"/>
<path d="M56.3615 5.38185C56.3026 5.38185 56.2437 5.36826 56.1939 5.33654C56.0308 5.24138 55.9764 5.03295 56.0715 4.87435L58.3145 0.995612C58.4097 0.832488 58.6181 0.778114 58.7767 0.87327C58.9398 0.968426 58.9942 1.17686 58.8991 1.33545L56.6561 5.21419C56.5926 5.32294 56.4794 5.38185 56.3615 5.38185Z" fill="#4E6262"/>
<path d="M45.8899 5.38641C45.772 5.38641 45.6588 5.3275 45.5953 5.21422L43.3569 1.33547C43.2617 1.17234 43.3206 0.963907 43.4792 0.873282C43.6423 0.778126 43.8508 0.837032 43.9414 0.995625L46.1799 4.87438C46.275 5.0375 46.2161 5.24594 46.0575 5.33657C46.0031 5.36829 45.9442 5.38641 45.8899 5.38641Z" fill="#4E6262"/>
<path d="M40.6517 14.4534H36.1703C35.9845 14.4534 35.8305 14.2994 35.8305 14.1136C35.8305 13.9278 35.9845 13.7737 36.1703 13.7737H40.6472C40.833 13.7737 40.987 13.9278 40.987 14.1136C40.987 14.2994 40.8375 14.4534 40.6517 14.4534Z" fill="#4E6262"/>
<path d="M43.6514 27.4037C43.5925 27.4037 43.5336 27.3901 43.4838 27.3584C43.3206 27.2632 43.2663 27.0548 43.3569 26.8962L45.5953 23.0175C45.6904 22.8544 45.8989 22.8 46.0575 22.8906C46.2206 22.9858 46.275 23.1942 46.1843 23.3528L43.9459 27.2315C43.8825 27.3448 43.7692 27.4037 43.6514 27.4037Z" fill="#4E6262"/>
<path d="M58.6045 27.4037C58.4867 27.4037 58.3734 27.3448 58.31 27.2315L56.067 23.3528C55.9719 23.1897 56.0308 22.9812 56.1894 22.8906C56.3525 22.7955 56.5609 22.8544 56.6516 23.013L58.8945 26.8917C58.9897 27.0548 58.9308 27.2632 58.7722 27.3539C58.7178 27.3901 58.6589 27.4037 58.6045 27.4037Z" fill="#4E6262"/>
<path d="M66.0811 14.4534H61.5997C61.4139 14.4534 61.2599 14.2994 61.2599 14.1136C61.2599 13.9278 61.4139 13.7737 61.5997 13.7737H66.0811C66.2669 13.7737 66.421 13.9278 66.421 14.1136C66.421 14.2994 66.2669 14.4534 66.0811 14.4534Z" fill="#4E6262"/>
<path d="M51.1234 3.98169C50.9377 3.98169 50.7836 3.82763 50.7836 3.64185V1.40341C50.7836 1.21763 50.9377 1.06357 51.1234 1.06357C51.3092 1.06357 51.4633 1.21763 51.4633 1.40341V3.64185C51.4633 3.82763 51.3138 3.98169 51.1234 3.98169Z" fill="#4E6262"/>
<path d="M42.0564 9.21984C41.9975 9.21984 41.9386 9.20625 41.8887 9.17453L39.9494 8.05531C39.7863 7.96015 39.7319 7.75171 39.827 7.59312C39.9222 7.42999 40.1306 7.37562 40.2892 7.47077L42.2286 8.59C42.3917 8.68515 42.4461 8.89359 42.3509 9.05219C42.2875 9.15641 42.1742 9.21984 42.0564 9.21984Z" fill="#4E6262"/>
<path d="M40.117 20.8108C39.9992 20.8108 39.8859 20.7519 39.8225 20.6386C39.7273 20.4755 39.7863 20.267 39.9448 20.1764L41.8842 19.0572C42.0474 18.962 42.2558 19.0209 42.3464 19.1795C42.4416 19.3426 42.3827 19.5511 42.2241 19.6417L40.2847 20.7609C40.2303 20.7972 40.1714 20.8108 40.117 20.8108Z" fill="#4E6262"/>
<path d="M51.1234 27.1681C50.9377 27.1681 50.7836 27.014 50.7836 26.8283V24.5898C50.7836 24.404 50.9377 24.25 51.1234 24.25C51.3092 24.25 51.4633 24.404 51.4633 24.5898V26.8283C51.4633 27.014 51.3138 27.1681 51.1234 27.1681Z" fill="#4E6262"/>
<path d="M62.1343 20.8108C62.0754 20.8108 62.0165 20.7972 61.9667 20.7655L60.0273 19.6462C59.8642 19.5511 59.8099 19.3427 59.905 19.1841C60.0002 19.0209 60.2086 18.9666 60.3672 19.0617L62.3065 20.1809C62.4696 20.2761 62.524 20.4845 62.4289 20.6431C62.3654 20.7519 62.2521 20.8108 62.1343 20.8108Z" fill="#4E6262"/>
<path d="M60.195 9.21984C60.0772 9.21984 59.9639 9.16094 59.9005 9.04765C59.8053 8.88453 59.8642 8.67609 60.0228 8.58546L61.9622 7.46624C62.1253 7.37108 62.3338 7.42999 62.4244 7.58858C62.5196 7.75171 62.4607 7.96015 62.3021 8.05077L60.3627 9.17C60.3128 9.20172 60.2539 9.21984 60.195 9.21984Z" fill="#4E6262"/>
<path d="M50.7926 44.6814C50.702 44.6814 50.6159 44.6452 50.5525 44.5817L46.1119 40.1411C45.9805 40.0097 45.9805 39.7922 46.1119 39.6608C46.2433 39.5294 46.4608 39.5294 46.5922 39.6608L50.7926 43.8613L54.975 39.5883C55.1064 39.4524 55.3194 39.4524 55.4553 39.5838C55.5913 39.7152 55.5913 39.9281 55.4598 40.0641L51.0373 44.5817C50.9694 44.6452 50.8833 44.6814 50.7926 44.6814Z" fill="#4E6262"/>
<path d="M50.7881 64.637C50.6023 64.637 50.4483 64.483 50.4483 64.2972V38.3105C50.4483 38.1247 50.6023 37.9706 50.7881 37.9706C50.9739 37.9706 51.128 38.1247 51.128 38.3105V64.2972C51.128 64.483 50.9739 64.637 50.7881 64.637Z" fill="#4E6262"/>
<path d="M46.3475 63.1282C46.2614 63.1282 46.1753 63.0964 46.1119 63.033C45.9759 62.9016 45.9759 62.6886 46.1073 62.5527L50.5298 58.035C50.5932 57.9716 50.6793 57.9353 50.77 57.9308C50.8606 57.9308 50.9467 57.9671 51.0101 58.0305L55.4507 62.4711C55.5821 62.6025 55.5821 62.82 55.4507 62.9514C55.3193 63.0828 55.1018 63.0828 54.9704 62.9514L50.77 58.751L46.5876 63.0239C46.5242 63.0964 46.4381 63.1282 46.3475 63.1282Z" fill="#4E6262"/>
<path d="M62.9183 49.6205C62.8911 49.6205 62.8639 49.6159 62.8367 49.6114L56.6969 48.1025C56.6108 48.0798 56.5337 48.0255 56.4884 47.9484C56.4431 47.8714 56.4295 47.7762 56.4522 47.6902L58.02 41.6047C58.0653 41.4234 58.2511 41.3147 58.4323 41.36C58.6136 41.4053 58.7223 41.5911 58.677 41.7723L57.1953 47.5225L62.9998 48.9498C63.1811 48.9951 63.2944 49.1809 63.249 49.3622C63.2128 49.5208 63.0723 49.6205 62.9183 49.6205Z" fill="#4E6262"/>
<path d="M39.5959 58.2571C39.4781 58.2571 39.3648 58.1982 39.3014 58.0895C39.2062 57.9263 39.2606 57.7179 39.4192 57.6227L61.7945 44.4095C61.9577 44.3144 62.1661 44.3688 62.2612 44.5274C62.3564 44.6905 62.302 44.8989 62.1434 44.9941L39.7681 58.2073C39.7137 58.239 39.6548 58.2571 39.5959 58.2571Z" fill="#4E6262"/>
<path d="M43.2119 61.2612C43.1847 61.2612 43.1575 61.2567 43.1258 61.2522C42.9445 61.2068 42.8358 61.0211 42.8811 60.8398L44.3628 55.0897L38.5583 53.6624C38.377 53.6171 38.2638 53.4313 38.3091 53.25C38.3544 53.0688 38.5402 52.9555 38.7214 53.0008L44.8613 54.5097C44.9474 54.5324 45.0244 54.5867 45.0697 54.6638C45.115 54.7408 45.1286 54.836 45.106 54.922L43.5381 61.0075C43.5019 61.1615 43.3614 61.2612 43.2119 61.2612Z" fill="#4E6262"/>
<path d="M58.4731 61.2522C58.3236 61.2522 58.1877 61.1525 58.1469 61.0029L56.4658 54.9084C56.4431 54.8223 56.4522 54.7272 56.4975 54.6502C56.5428 54.5731 56.6153 54.5142 56.7059 54.4916L62.7824 52.8875C62.9636 52.8377 63.1494 52.9464 63.1992 53.1277C63.2491 53.3089 63.1403 53.4947 62.9591 53.5445L57.218 55.0625L58.8085 60.8262C58.8583 61.0075 58.7541 61.1932 58.5728 61.2431C58.532 61.2476 58.5003 61.2522 58.4731 61.2522Z" fill="#4E6262"/>
<path d="M62.0075 58.1891C61.9486 58.1891 61.8897 58.1755 61.8353 58.1438L39.3785 45.0711C39.2153 44.9759 39.161 44.7675 39.2561 44.6044C39.3513 44.4413 39.5597 44.3869 39.7228 44.482L62.1797 57.5547C62.3428 57.6499 62.3972 57.8583 62.302 58.0214C62.2386 58.1256 62.1253 58.1891 62.0075 58.1891Z" fill="#4E6262"/>
<path d="M38.6897 49.7383C38.5402 49.7383 38.3997 49.6386 38.3635 49.4846C38.3136 49.3033 38.4224 49.1175 38.6036 49.0677L44.3447 47.5497L42.7542 41.7859C42.7044 41.6047 42.8086 41.4189 42.9899 41.3691C43.1711 41.3192 43.3569 41.4234 43.4067 41.6047L45.0878 47.6992C45.1105 47.7853 45.1014 47.8805 45.0561 47.9575C45.0108 48.0346 44.9383 48.0935 44.8477 48.1161L38.7713 49.7202C38.7486 49.7338 38.7169 49.7383 38.6897 49.7383Z" fill="#4E6262"/>
<path d="M18.3897 57.8447C18.2356 57.8447 18.0951 57.7359 18.0589 57.5819C17.4653 54.9945 15.9292 51.9314 13.4823 48.4831C11.4025 45.5469 9.08249 42.8916 7.3878 40.9567C7.12499 40.6577 6.8803 40.3722 6.64921 40.1139C4.46062 37.59 4.9953 34.6855 5.02249 34.5631C5.05874 34.3774 5.23546 34.2595 5.42124 34.2958C5.60702 34.332 5.72483 34.5088 5.68858 34.6945C5.68405 34.7263 5.19921 37.4042 7.16577 39.6699C7.39233 39.9327 7.63702 40.2136 7.89983 40.5127C9.60358 42.4611 11.9372 45.13 14.0351 48.0934C16.5636 51.6641 18.0951 54.7227 18.7205 57.4324C18.7612 57.6136 18.648 57.7994 18.4667 57.8402C18.4441 57.8447 18.4169 57.8447 18.3897 57.8447Z" fill="#4E6262"/>
<path d="M7.7639 41.002C8.66562 41.0791 10.7137 41.3147 13.0111 42.0125C14.8055 42.5562 16.4005 43.2722 17.7553 44.1422C19.4228 45.2116 20.7233 46.512 21.625 48.0119C22.717 49.8244 23.442 51.7864 23.7864 53.8391C24.0628 55.4884 24.0945 57.2012 23.877 58.9322C23.6051 61.1162 23.0025 62.7883 22.7034 63.5223C21.8425 63.4408 19.8487 63.187 17.5423 62.4303C15.748 61.8412 14.1167 61.0664 12.6894 60.1239C10.9222 58.9594 9.46765 57.5366 8.37109 55.8962C7.44671 54.5187 6.84859 52.8694 6.58578 50.9889C6.37281 49.4619 6.38187 47.7808 6.60843 45.9909C6.8939 43.7117 7.47843 41.8358 7.7639 41.002ZM7.30171 40.2906C7.30171 40.2906 3.49093 49.838 7.80468 56.2723C12.8661 63.8259 23.1339 64.2337 23.1339 64.2337C23.1339 64.2337 27.212 55.9733 22.2095 47.6584C18.0045 40.6712 7.30171 40.2906 7.30171 40.2906Z" fill="#4E6262"/>
</svg>
