<svg width="58" height="64" viewBox="0 0 58 64" fill="none" xmlns="http://www.w3.org/2000/svg">
<path d="M2.25281 26.0491C1.65062 27.4493 1.33729 29.1971 2.24791 30.5875C4.45104 33.9411 8.87687 32.8738 12.2305 34.3181C15.0946 35.5519 17.7922 39.7231 21.0969 39.2727C23.0552 39.0083 24.4015 37.4857 25.0919 35.875C26.0416 33.6719 25.2877 31.1358 23.6329 28.683C22.9622 27.6941 22.8545 25.1237 22.2621 22.9745C21.6697 20.8203 20.5143 19.0627 19.0602 18.4409C17.048 17.5744 15.1729 17.9611 13.5377 18.9109C11.6283 20.0272 10.0274 21.8386 8.69082 22.1226C5.86103 22.7346 3.35927 23.4787 2.25281 26.0491Z" fill="#FFB266" fill-opacity="0.51"/>
<path d="M34.1243 27.0857C36.5736 24.88 37.2991 21.6927 35.7448 19.9667C34.1905 18.2408 30.9449 18.6297 28.4956 20.8354C26.0463 23.0411 25.3208 26.2284 26.8751 27.9543C28.4294 29.6803 31.675 29.2914 34.1243 27.0857Z" fill="#FFB266" fill-opacity="0.51"/>
<path d="M30.9576 15.2416C32.718 12.0719 32.4607 8.56682 30.383 7.41292C28.3053 6.25902 25.1939 7.89322 23.4335 11.063C21.6731 14.2328 21.9303 17.7378 24.0081 18.8917C26.0858 20.0456 29.1972 18.4114 30.9576 15.2416Z" fill="#FFB266" fill-opacity="0.51"/>
<path d="M6.83377 19.3356C9.15572 19.2773 10.971 16.5589 10.8882 13.2638C10.8055 9.96876 8.85613 7.34484 6.53418 7.40314C4.21223 7.46144 2.39699 10.1799 2.47972 13.4749C2.56245 16.77 4.51183 19.3939 6.83377 19.3356Z" fill="#FFB266" fill-opacity="0.51"/>
<path d="M21.4669 10.2104C22.5579 6.75235 21.6049 3.3693 19.3382 2.65414C17.0715 1.93899 14.3495 4.16254 13.2585 7.62058C12.1675 11.0786 13.1205 14.4617 15.3872 15.1768C17.6539 15.892 20.3759 13.6684 21.4669 10.2104Z" fill="#FFB266" fill-opacity="0.51"/>
<path fill-rule="evenodd" clip-rule="evenodd" d="M40.2053 30.1958C27.7699 32.5067 27.3048 42.7292 28.3182 47.5124C29.175 51.5564 32.2986 56.555 33.2435 58.0091C33.405 58.2588 33.3805 58.577 33.1847 58.8022L32.1321 60.0213C31.902 60.2856 31.9167 60.6822 32.1664 60.9319L34.4478 63.1889C34.6779 63.4141 35.0353 63.4434 35.2997 63.2623L40.3326 59.7226C40.6117 59.5268 40.6998 59.1498 40.5285 58.8512C39.8381 57.6468 38.1148 54.6016 36.8908 52.1977C35.3242 49.1329 35.0011 44.0315 36.9202 41.3143C37.9092 39.9141 39.2604 38.7146 41.5762 38.3229C43.8919 37.9313 45.532 38.6314 46.9224 39.635C49.6249 41.5787 50.9762 46.5039 50.5013 49.9163C50.1243 52.5894 49.4878 56.0312 49.2332 57.3922C49.1696 57.73 49.3752 58.058 49.7032 58.1559L55.6174 59.8597C55.9258 59.9478 56.2588 59.8058 56.4007 59.5121L57.8254 56.6333C57.9821 56.32 57.8646 55.9381 57.5611 55.7619L56.1657 54.9541C55.9112 54.8072 55.779 54.5085 55.8524 54.2197C56.2735 52.5404 57.5953 46.7927 57.0862 42.6949C56.4889 37.8333 52.7191 28.3256 40.2053 30.1958Z" fill="#6ACBB9" fill-opacity="0.53"/>
<path d="M33.1993 62.4545C32.935 62.4545 32.6706 62.3517 32.4748 62.1558L30.1933 59.8988C29.8065 59.517 29.7821 58.9001 30.1395 58.4888L31.1921 57.2698C31.2802 57.167 31.29 57.025 31.2214 56.9173C30.2716 55.4632 27.1138 50.4058 26.2424 46.2982C25.9095 44.7413 25.0772 39.2874 28.1958 34.6168C30.3059 31.4541 33.7477 29.4125 38.4183 28.541C38.4232 28.541 38.4281 28.541 38.433 28.541C43.133 27.836 47.0497 28.6487 50.0802 30.9449C54.555 34.3426 55.5439 39.7672 55.7397 41.3485C56.2587 45.5149 54.9221 51.3262 54.5011 53.0104C54.4668 53.1377 54.5256 53.2699 54.6431 53.3384L56.0384 54.1462C56.5084 54.4204 56.6846 55.0128 56.4447 55.4975L55.0201 58.3762C54.7998 58.8267 54.2906 59.0519 53.8059 58.9099L47.8917 57.2061C47.3777 57.0593 47.0643 56.5501 47.1623 56.0213C47.4168 54.6652 48.0533 51.2283 48.4303 48.565C48.6604 46.9102 48.4499 44.898 47.8477 43.0425C47.2063 41.0597 46.1929 39.493 45.0032 38.6362C43.9016 37.8431 42.3301 36.9863 39.9311 37.3878C38.0364 37.706 36.6754 38.5824 35.5102 40.2274C34.6632 41.4269 34.2177 43.2383 34.2569 45.319C34.2911 47.2725 34.7513 49.2406 35.5102 50.7289C36.7341 53.1279 38.4575 56.1682 39.1429 57.3677C39.4073 57.8328 39.28 58.4154 38.8393 58.7238L33.8064 62.2635C33.6106 62.3908 33.405 62.4545 33.1993 62.4545ZM38.5407 29.2656C34.0757 30.0979 30.7955 32.0367 28.798 35.0231C27.6671 36.7122 26.967 38.7097 26.7124 40.952C26.4529 43.2677 26.7466 45.1967 26.9474 46.1415C27.7895 50.1219 30.8934 55.0862 31.8187 56.5109C32.0733 56.8977 32.0341 57.3922 31.7306 57.7447L30.678 58.9637C30.5752 59.0812 30.585 59.2624 30.6927 59.3701L32.9741 61.6271C33.077 61.7299 33.2385 61.7446 33.356 61.6613L38.3889 58.1217C38.5162 58.0335 38.5554 57.8622 38.4771 57.73C37.7916 56.5305 36.0585 53.4755 34.8297 51.0619C33.2287 47.9285 32.8713 42.6557 34.8835 39.8014C36.5481 37.4417 38.4771 36.8786 39.7793 36.6632C42.4476 36.2177 44.1856 37.1626 45.3998 38.0389C48.2344 40.0805 49.6151 45.182 49.1255 48.6678C48.7485 51.3458 48.112 54.8023 47.8526 56.1584C47.8232 56.3102 47.9162 56.4571 48.0631 56.4962L53.9772 58.2C54.1143 58.2392 54.2661 58.1755 54.3298 58.0433L55.7544 55.1646C55.823 55.0226 55.774 54.8512 55.6369 54.7729L54.2416 53.9651C53.8402 53.7301 53.6443 53.2748 53.7569 52.8244C54.1731 51.1745 55.4803 45.4708 54.9809 41.4318C54.8634 40.4722 54.5109 38.5481 53.5121 36.4478C52.5428 34.4111 51.2258 32.7514 49.6102 31.5226C46.7657 29.3586 43.0351 28.5949 38.5407 29.2656Z" fill="#4E6262"/>
<path d="M19.5253 38.1271C17.5327 38.1271 15.7996 36.6828 14.1203 35.2826C13.053 34.3916 12.0445 33.5495 11.0164 33.1089C9.85606 32.6095 8.5195 32.4137 7.22699 32.2276C4.84272 31.8849 2.37522 31.5275 0.872199 29.2412C0.284698 28.3501 -0.195094 26.7786 0.842823 24.3551C2.02272 21.6086 4.69095 20.8301 7.54522 20.2132C8.24043 20.0664 9.0972 19.3858 10.0029 18.6711C10.6835 18.1325 11.4619 17.5205 12.2795 17.0407C14.2476 15.8902 16.2158 15.7287 18.13 16.5512C19.6233 17.1925 20.8962 18.9795 21.5424 21.3246C21.7823 22.201 21.939 23.1165 22.0956 24.0075C22.3062 25.2364 22.5069 26.3967 22.8643 26.9254C24.759 29.7307 25.273 32.3353 24.3575 34.4699C23.4763 36.5164 21.9145 37.8333 20.0737 38.083C19.8876 38.1173 19.7065 38.1271 19.5253 38.1271ZM15.7213 16.7813C14.7078 16.7813 13.6846 17.0799 12.6516 17.6821C11.8731 18.1325 11.1535 18.7053 10.4582 19.2537C9.43991 20.0566 8.55866 20.7518 7.69699 20.9378C4.93085 21.5302 2.55637 22.2205 1.51355 24.6489C1.00928 25.819 0.598031 27.4933 1.47928 28.8397C2.80116 30.847 4.99939 31.1652 7.32491 31.503C8.66147 31.6989 10.047 31.8947 11.3003 32.4332C12.4264 32.9179 13.523 33.8335 14.5854 34.7196C16.1668 36.0366 17.7922 37.3927 19.5351 37.3927C19.682 37.3927 19.8289 37.3829 19.9757 37.3633C20.7248 37.2605 22.5803 36.7514 23.6868 34.1859C24.1078 33.2068 24.1862 32.1052 23.912 30.9106C23.6574 29.7944 23.0993 28.59 22.2572 27.3465C21.8117 26.6855 21.6061 25.5056 21.3711 24.1397C21.2193 23.2682 21.0675 22.3674 20.8374 21.5302C20.2499 19.3956 19.1337 17.7898 17.8412 17.2366C17.146 16.9281 16.4361 16.7813 15.7213 16.7813Z" fill="#4E6262"/>
<path d="M31.995 18.0738C32.6217 18.0738 33.5029 18.2206 34.1198 18.9061C34.7073 19.5572 34.8933 20.5266 34.6388 21.633C34.3646 22.8325 33.6253 24.0222 32.5531 24.9916C31.9216 25.5595 31.2264 26.005 30.492 26.3135C29.8066 26.5974 29.1065 26.7492 28.4651 26.7492C27.8385 26.7492 26.9572 26.6023 26.3403 25.9169C25.7528 25.2657 25.5668 24.2964 25.8214 23.1899C26.0955 21.9904 26.8348 20.8007 27.907 19.8314C28.5386 19.2634 29.2338 18.8179 29.9681 18.5095C30.6585 18.2255 31.3586 18.0738 31.995 18.0738ZM31.995 17.3394C30.5263 17.3394 28.8372 18.0101 27.4174 19.2879C24.9695 21.4959 24.24 24.6831 25.7969 26.4065C26.448 27.1311 27.4027 27.4836 28.47 27.4836C29.9388 27.4836 31.6278 26.8128 33.0476 25.535C35.4955 23.327 36.225 20.1398 34.6681 18.4165C34.017 17.6919 33.0623 17.3394 31.995 17.3394Z" fill="#4E6262"/>
<path d="M27.8287 6.23074C28.2399 6.23074 28.6169 6.32376 28.9498 6.50981C29.7332 6.94554 30.2081 7.85616 30.3011 9.08012C30.399 10.4167 30.022 11.9295 29.2387 13.3395C28.6218 14.446 27.8189 15.3811 26.9083 16.042C26.0711 16.6491 25.1849 16.982 24.4114 16.982C24.0001 16.982 23.6231 16.889 23.2902 16.7029C22.5069 16.2672 22.032 15.3566 21.939 14.1326C21.8411 12.7961 22.218 11.2832 23.0014 9.87324C23.6183 8.76679 24.4212 7.83168 25.3318 7.17074C26.169 6.56366 27.06 6.23074 27.8287 6.23074ZM27.8287 5.49637C25.9389 5.49637 23.7358 7.03366 22.36 9.51585C20.6024 12.6834 20.857 16.1889 22.9328 17.3443C23.3833 17.594 23.8875 17.7164 24.4114 17.7164C26.3012 17.7164 28.5043 16.1791 29.88 13.6969C31.6377 10.5293 31.3831 7.02387 29.3072 5.86845C28.8568 5.61387 28.3574 5.49637 27.8287 5.49637Z" fill="#4E6262"/>
<path d="M5.53795 5.85376V6.58813C6.40452 6.58813 7.2466 7.08751 7.91243 7.99814C8.63212 8.9822 9.04827 10.309 9.08254 11.7386C9.11681 13.1828 8.76431 14.539 8.07889 15.5622C7.44733 16.5071 6.61993 17.0358 5.74358 17.0603C5.72399 17.0603 5.70441 17.0603 5.68483 17.0603C4.81826 17.0603 3.97618 16.5609 3.31034 15.6503C2.59065 14.6663 2.17451 13.3395 2.14023 11.9099C2.10596 10.4656 2.45846 9.10949 3.14388 8.08626C3.77545 7.14137 4.60284 6.61261 5.4792 6.58813C5.49878 6.58813 5.51837 6.58813 5.53795 6.58813V5.85376ZM5.53795 5.85376C5.51347 5.85376 5.48899 5.85376 5.46451 5.85376C3.14388 5.91251 1.32753 8.6297 1.41075 11.9295C1.49398 15.1901 3.39847 17.7947 5.68972 17.7947C5.7142 17.7947 5.73868 17.7947 5.76316 17.7947C8.08379 17.7359 9.90015 15.0188 9.81692 11.719C9.73369 8.45345 7.82431 5.85376 5.53795 5.85376Z" fill="#4E6262"/>
<path d="M17.3809 0.977509V1.71188C17.6062 1.71188 17.8265 1.74615 18.037 1.8098C18.8889 2.07907 19.54 2.87709 19.8729 4.05699C20.2352 5.34949 20.1716 6.90636 19.6869 8.44365C19.2658 9.78022 18.5559 10.9748 17.6894 11.8218C16.8865 12.6002 15.9954 13.0311 15.1876 13.0311C14.9624 13.0311 14.7421 12.9968 14.5316 12.9331C13.6797 12.6639 13.0286 11.8658 12.6956 10.6859C12.3333 9.39345 12.397 7.83657 12.8817 6.29928C13.3027 4.96272 14.0126 3.76813 14.8792 2.92605C15.6821 2.14761 16.5731 1.71678 17.3809 1.71678V0.977509ZM17.3809 0.977509C15.3296 0.977509 13.1314 3.05824 12.1816 6.07407C11.0898 9.53053 12.0445 12.9135 14.3113 13.6283C14.5952 13.7165 14.889 13.7605 15.1876 13.7605C17.239 13.7605 19.4372 11.6798 20.387 8.66397C21.4788 5.20751 20.5241 1.82449 18.2573 1.1097C17.9733 1.02157 17.6796 0.977509 17.3809 0.977509Z" fill="#4E6262"/>
<path d="M52.1952 13.9515C51.9945 13.9515 51.828 13.785 51.828 13.5843V10.3775C51.828 10.1768 51.9945 10.0103 52.1952 10.0103C52.396 10.0103 52.5624 10.1768 52.5624 10.3775V13.5843C52.5624 13.785 52.4008 13.9515 52.1952 13.9515Z" fill="#4E6262"/>
<path d="M53.3213 12.3456H51.0692C50.8685 12.3456 50.702 12.1792 50.702 11.9784C50.702 11.7777 50.8685 11.6112 51.0692 11.6112H53.3213C53.522 11.6112 53.6884 11.7777 53.6884 11.9784C53.6884 12.1792 53.5269 12.3456 53.3213 12.3456Z" fill="#4E6262"/>
<path d="M48.68 8.33106C48.4793 8.33106 48.3128 8.1646 48.3128 7.96387V2.5246C48.3128 2.32387 48.4793 2.15741 48.68 2.15741C48.8808 2.15741 49.0472 2.32387 49.0472 2.5246V7.96387C49.0472 8.16949 48.8856 8.33106 48.68 8.33106Z" fill="#4E6262"/>
<path d="M50.3299 5.61386H47.035C46.8343 5.61386 46.6678 5.4474 46.6678 5.24667C46.6678 5.04594 46.8343 4.87949 47.035 4.87949H50.3299C50.5306 4.87949 50.6971 5.04594 50.6971 5.24667C50.6971 5.4474 50.5306 5.61386 50.3299 5.61386Z" fill="#4E6262"/>
<path d="M10.9233 48.942C10.7226 48.942 10.5561 48.7755 10.5561 48.5748V43.1355C10.5561 42.9348 10.7226 42.7683 10.9233 42.7683C11.1241 42.7683 11.2905 42.9348 11.2905 43.1355V48.5748C11.2905 48.7755 11.1241 48.942 10.9233 48.942Z" fill="#4E6262"/>
<path d="M12.5683 46.2199H9.27344C9.07271 46.2199 8.90625 46.0535 8.90625 45.8527C8.90625 45.652 9.07271 45.4855 9.27344 45.4855H12.5683C12.7691 45.4855 12.9355 45.652 12.9355 45.8527C12.9355 46.0535 12.774 46.2199 12.5683 46.2199Z" fill="#4E6262"/>
</svg>
