<svg width="48" height="42" viewBox="0 0 48 42" fill="none" xmlns="http://www.w3.org/2000/svg">
<path d="M9.17235 20.8352L11.1674 24.8757C11.1941 24.9321 11.2505 24.9736 11.3128 24.9825L15.7719 25.6297C15.9292 25.6535 15.9945 25.8464 15.8787 25.9592L12.6517 29.1061C12.6072 29.1507 12.5864 29.216 12.5953 29.2783L13.3583 33.7196C13.385 33.8769 13.2188 33.9986 13.0763 33.9244L9.08626 31.8285C9.02985 31.7988 8.96157 31.7988 8.90517 31.8285L4.91517 33.9244C4.77267 33.9986 4.60642 33.8799 4.63314 33.7196L5.39611 29.2783C5.40798 29.216 5.3872 29.1507 5.3397 29.1061L2.11268 25.9592C1.9969 25.8464 2.06221 25.6535 2.21955 25.6297L6.67861 24.9825C6.74095 24.9736 6.79736 24.935 6.82408 24.8757L8.82501 20.8352C8.89626 20.6897 9.1011 20.6897 9.17235 20.8352Z" fill="#F9E599"/>
<path d="M41.0181 20.8352L43.0131 24.8757C43.0399 24.9321 43.0963 24.9736 43.1586 24.9825L47.6177 25.6297C47.775 25.6535 47.8403 25.8464 47.7245 25.9592L44.4975 29.1061C44.453 29.1507 44.4322 29.216 44.4411 29.2783L45.2041 33.7196C45.2308 33.8769 45.0645 33.9986 44.922 33.9244L40.932 31.8285C40.8756 31.7988 40.8074 31.7988 40.7509 31.8285L36.7609 33.9244C36.6184 33.9986 36.4522 33.8799 36.4789 33.7196L37.2419 29.2783C37.2538 29.216 37.233 29.1507 37.1855 29.1061L33.9584 25.9592C33.8427 25.8464 33.908 25.6535 34.0653 25.6297L38.5244 24.9825C38.5867 24.9736 38.6431 24.935 38.6699 24.8757L40.6649 20.8352C40.742 20.6897 40.9469 20.6897 41.0181 20.8352Z" fill="#F9E599"/>
<path d="M25.3372 22.9818L28.2822 28.952C28.3089 29.0084 28.3624 29.044 28.4218 29.0529L35.0094 30.0089C35.1638 30.0326 35.2232 30.2197 35.1133 30.3265L30.3485 34.9786C30.304 35.0201 30.2832 35.0825 30.295 35.1448L31.4202 41.7058C31.4469 41.8572 31.2866 41.9759 31.15 41.9017L25.2571 38.8053C25.2036 38.7756 25.1383 38.7756 25.0819 38.8053L19.1889 41.9017C19.0524 41.9729 18.8921 41.8572 18.9188 41.7058L20.0439 35.1448C20.0558 35.0854 20.035 35.0231 19.9905 34.9786L15.2227 30.3325C15.1128 30.2256 15.1722 30.0356 15.3266 30.0148L21.9143 29.0589C21.9766 29.05 22.0271 29.0114 22.0538 28.9579L24.9988 22.9878C25.07 22.8423 25.2689 22.8423 25.3372 22.9818Z" fill="#F9E599"/>
<path d="M12.2509 33.4496C12.1856 33.4496 12.1203 33.4347 12.0609 33.4021L8.10657 31.324L4.1522 33.4021C4.01267 33.4763 3.84642 33.4644 3.72173 33.3724C3.59407 33.2804 3.53173 33.126 3.55845 32.9716L4.31251 28.569L1.11517 25.4518C1.00235 25.3419 0.96376 25.1816 1.01126 25.0332C1.05876 24.8847 1.18642 24.7779 1.34079 24.7541L5.76126 24.1129L7.74142 20.1051C7.8097 19.9655 7.9522 19.8765 8.10954 19.8765C8.26689 19.8765 8.40642 19.9626 8.47767 20.1051L10.4549 24.1099L14.8753 24.7512C15.0297 24.7749 15.1574 24.8818 15.2049 25.0302C15.2524 25.1787 15.2138 25.3419 15.1009 25.4488L11.9036 28.566L12.6577 32.9687C12.6844 33.123 12.622 33.2774 12.4944 33.3694C12.4202 33.4229 12.337 33.4496 12.2509 33.4496ZM1.48032 25.1816L4.63907 28.2632C4.73704 28.3582 4.7786 28.4918 4.75782 28.6254L4.01267 32.9746L7.91954 30.9202C8.03829 30.8579 8.18079 30.8579 8.29954 30.9202L12.2064 32.9746L11.4583 28.6254C11.4345 28.4918 11.4791 28.3582 11.577 28.2632L14.7358 25.1816L10.3688 24.5493C10.2352 24.5285 10.1194 24.4454 10.06 24.3266L8.10657 20.3693L6.15314 24.3266C6.09376 24.4483 5.97798 24.5315 5.84439 24.5493L1.48032 25.1816Z" fill="#4E6262"/>
<path d="M44.1591 33.4496C44.0938 33.4496 44.0284 33.4348 43.9691 33.4021L40.0147 31.324L36.0603 33.4021C35.9208 33.4763 35.7545 33.4645 35.6298 33.3695C35.5022 33.2774 35.4398 33.123 35.4666 32.9687L36.2206 28.566L33.0233 25.4488C32.9105 25.339 32.8719 25.1787 32.9194 25.0302C32.9669 24.8818 33.0945 24.7749 33.2489 24.7512L37.6694 24.1099L39.6466 20.1051C39.7148 19.9655 39.8573 19.8765 40.0147 19.8765C40.172 19.8765 40.3116 19.9626 40.3828 20.1051L42.36 24.1099L46.7805 24.7512C46.9348 24.7749 47.0625 24.8818 47.11 25.0302C47.1575 25.1787 47.1189 25.3419 47.0061 25.4488L43.8088 28.566L44.5628 32.9687C44.5895 33.123 44.5272 33.2774 44.3995 33.3695C44.3283 33.4229 44.2452 33.4496 44.1591 33.4496ZM33.3884 25.1816L36.5472 28.2602C36.6452 28.3552 36.6867 28.4888 36.6659 28.6224L35.9208 32.9716L39.8277 30.9173C39.9464 30.8549 40.0889 30.8549 40.2077 30.9173L44.1145 32.9716L43.3694 28.6224C43.3456 28.4888 43.3902 28.3552 43.4881 28.2602L46.6469 25.1816L42.2798 24.5463C42.1463 24.5255 42.0305 24.4424 41.9711 24.3237L40.0177 20.3663L38.0642 24.3237C38.0048 24.4454 37.8891 24.5285 37.7555 24.5463L33.3884 25.1816Z" fill="#4E6262"/>
<path d="M18.1617 41.1501C18.0786 41.1501 17.9925 41.1234 17.9213 41.0729C17.7936 40.9809 17.7313 40.8265 17.758 40.6721L18.8475 34.3279L14.237 29.8332C14.1242 29.7234 14.0856 29.5631 14.1331 29.4146C14.1806 29.2662 14.3083 29.1593 14.4627 29.1356L20.8336 28.2093L23.6836 22.4381C23.7519 22.2985 23.8944 22.2095 24.0518 22.2095C24.2091 22.2095 24.3486 22.2956 24.4199 22.4381L27.2699 28.2093L33.6408 29.1356C33.7952 29.1593 33.9229 29.2662 33.9704 29.4146C34.0179 29.5631 33.9793 29.7263 33.8665 29.8332L29.253 34.3249L30.3425 40.6692C30.3693 40.8235 30.3069 40.9779 30.1793 41.0699C30.0516 41.162 29.8883 41.1738 29.7488 41.0996L24.0518 38.1042L18.3547 41.0996C18.2924 41.1323 18.2271 41.1501 18.1617 41.1501ZM24.0488 37.6559C24.1141 37.6559 24.1794 37.6707 24.2388 37.7034L29.8883 40.6751L28.8077 34.3843C28.7839 34.2507 28.8285 34.1171 28.9264 34.0221L33.4983 29.566L27.1808 28.6487C27.0472 28.6279 26.9314 28.5448 26.8721 28.426L24.0458 22.7023L21.2196 28.426C21.1602 28.5478 21.0444 28.6309 20.9108 28.6487L14.5933 29.566L19.1652 34.0221C19.2631 34.1171 19.3047 34.2507 19.2839 34.3843L18.2033 40.6751L23.8528 37.7034C23.9182 37.6707 23.9835 37.6559 24.0488 37.6559Z" fill="#4E6262"/>
<path d="M24.0577 11.8933C21.0147 11.8933 18.5388 9.41736 18.5388 6.37438C18.5388 3.33141 21.0147 0.855469 24.0577 0.855469C27.1006 0.855469 29.5766 3.33141 29.5766 6.37438C29.5766 9.41736 27.1006 11.8933 24.0577 11.8933ZM24.0577 1.30078C21.2611 1.30078 18.9841 3.57782 18.9841 6.37438C18.9841 9.17095 21.2611 11.448 24.0577 11.448C26.8542 11.448 29.1313 9.17392 29.1313 6.37438C29.1313 3.57485 26.8542 1.30078 24.0577 1.30078Z" fill="#4E6262"/>
<path d="M29.348 25.6117C29.2263 25.6117 29.1254 25.5108 29.1254 25.3891V18.9825C29.1254 18.5431 29.3213 18.1334 29.6597 17.8544L29.7221 17.8039C31.2213 16.5778 35.5883 13.0064 37.239 11.6556C37.7407 11.2459 37.9663 10.7115 37.8743 10.1505C37.7793 9.57748 37.3547 9.06983 36.7936 8.86201C36.4226 8.72248 35.6685 8.60076 34.7838 9.33405C32.4325 11.2875 28.0002 13.2973 24.0755 13.3508C21.9914 13.3805 19.3374 12.3503 17.476 11.4805C15.3978 10.5126 13.5691 9.39639 12.9872 8.94811C12.0966 8.26233 11.2119 8.72248 10.722 9.32514C10.4281 9.68733 10.247 10.1356 10.2263 10.5512C10.2114 10.863 10.2767 11.3083 10.6864 11.6586C12.438 13.1578 16.8377 16.6995 18.1469 17.7505C18.4527 17.9969 18.6278 18.362 18.6278 18.7569V25.3891C18.6278 25.5108 18.5269 25.6117 18.4052 25.6117C18.2835 25.6117 18.1825 25.5108 18.1825 25.3891V18.7569C18.1825 18.4986 18.0667 18.2581 17.8678 18.0978C16.5586 17.0469 12.153 13.4992 10.3955 11.997C9.96798 11.6319 9.75126 11.1094 9.78095 10.5275C9.80767 10.0198 10.0244 9.47951 10.3777 9.04608C10.728 8.61264 11.1852 8.31576 11.6631 8.20889C12.2183 8.0842 12.7705 8.2178 13.2603 8.5978C13.8274 9.0342 15.6175 10.1237 17.666 11.0797C19.4858 11.9287 22.0746 12.9351 24.0725 12.9084C25.8182 12.8847 27.7983 12.4542 29.7993 11.6675C31.6221 10.952 33.2905 10.002 34.5018 8.99561C35.5557 8.11983 36.4879 8.2742 36.951 8.44639C37.6576 8.71061 38.1949 9.35186 38.3166 10.0792C38.4354 10.7917 38.1474 11.4923 37.524 12.003C35.8733 13.3537 31.5063 16.9222 30.0071 18.1512L29.9447 18.2017C29.7102 18.3947 29.5736 18.6797 29.5736 18.9855V25.3891C29.5707 25.5108 29.4697 25.6117 29.348 25.6117Z" fill="#4E6262"/>
</svg>
